<?xml version="1.0" encoding="UTF-8"?>
<svg width="230px" height="52px" viewBox="0 0 230 52" version="1.1" xmlns="http://www.w3.org/2000/svg" xmlns:xlink="http://www.w3.org/1999/xlink">
    <!-- Generator: Sketch 51.2 (57519) - http://www.bohemiancoding.com/sketch -->
    <title>logo-fts</title>
    <desc>Created with Sketch.</desc>
    <defs></defs>
    <g id="Final" stroke="none" stroke-width="1" fill="none" fill-rule="evenodd">
        <g id="pays.de-0816" transform="translate(-715.000000, -4068.000000)" fill="#1A5795" fill-rule="nonzero">
            <g id="Group-57" transform="translate(0.000000, 3924.000000)">
                <g id="Group-27" transform="translate(277.000000, 144.000000)">
                    <g id="logo-fts" transform="translate(438.000000, 0.000000)">
                        <path d="M24.690119,16.0763954 C26.1174368,16.0763954 27.4887815,16.3871918 28.7761662,16.9805303 L28.8881127,17.0370388 L28.4123401,18.0824447 L28.3003936,18.0259363 C27.4607948,17.6021231 26.5372362,17.3478351 25.585691,17.2630725 L25.5017311,18.25197 L25.361798,18.25197 C25.137905,18.2237158 24.914012,18.2237158 24.7181056,18.2237158 C23.3747476,18.2237158 22.0873628,18.5627664 20.9399112,19.2408676 L20.8279647,19.297376 L20.3521921,18.4497495 C18.9248742,19.297376 17.7774226,20.5688157 17.0497703,22.0662891 L17.973329,22.4901024 L17.9173557,22.6031192 C16.853864,24.8634565 16.9658105,27.4910985 18.197222,29.6384189 L18.2531952,29.7514358 L17.4135965,30.2317574 C18.1412487,31.4466887 19.1487672,32.4638404 20.3521921,33.1984501 L20.8279647,32.3508236 L20.9399112,32.407332 C21.4996437,32.7463826 22.1153495,33.0006705 22.7590418,33.1701958 L22.8709883,33.1984501 L22.6191087,34.1590934 C23.5426673,34.3851271 24.4942126,34.4698897 25.4457578,34.3851271 L25.585691,34.3851271 L25.6976375,35.5152957 L25.5577043,35.5152957 C25.2778381,35.5435499 24.9979718,35.5435499 24.7181056,35.5435499 C24.6061591,35.5435499 24.4942126,35.5435499 24.3822661,35.5435499 C19.0368207,35.4587873 14.8108403,31.0511297 14.8948002,25.6545745 C14.9787601,20.2580193 19.3726602,15.9916328 24.690119,16.0763954 Z M17.973329,5.67884412 L18.1692353,5.62233568 L18.8968876,7.71314763 L18.7289678,7.76965607 C16.629971,8.53251989 14.7268805,9.66268851 13.0196963,11.1036535 C4.95954834,17.9129194 3.92404322,30.0622321 10.6688198,38.1994462 C17.4135965,46.3366603 29.4478452,47.4103205 37.5079932,40.5728003 L37.6479263,40.4597834 L39.0472576,42.1550364 L38.9073245,42.2680532 C37.004234,43.8785435 34.8212772,45.1499832 32.4983873,45.9976097 C21.4716571,50.0379625 9.26948859,44.3023568 5.26740122,33.1701958 C1.26531384,22.0380349 6.94659872,9.71919694 17.973329,5.67884412 Z M34.8492638,14.2963799 L34.7093307,14.2116172 C28.3563668,8.81506204 18.8968876,9.66268851 13.5514422,16.0763954 C8.20599684,22.4901024 9.04559559,32.0682814 15.3985595,37.4365824 L15.5384926,37.5495992 L14.2231212,39.1318353 L14.0831881,39.0188185 C13.9992282,38.9340558 13.9152683,38.8775474 13.8313085,38.7927847 C6.66673247,32.6051115 5.82713372,21.7272385 11.9562046,14.4941594 C18.0852755,7.26108019 28.8601261,6.41345372 36.0247021,12.6011269 L36.1646352,12.7141438 L34.8492638,14.2963799 Z M17.2456767,14.7201931 L17.4975563,14.5506678 L18.4491016,15.9068701 L18.197222,16.0763954 C17.9453423,16.2741749 17.6934627,16.4719545 17.4415831,16.669734 C12.4879505,20.8513579 11.8162715,28.3104708 15.958292,33.3114669 C20.1003125,38.3124631 27.4887815,38.9905642 32.4424141,34.8089403 L32.6663071,34.6111608 L33.7297988,35.8826005 L33.5059058,36.08038 C33.198053,36.334668 32.8902001,36.5889559 32.5543606,36.8149896 C26.5092496,41.0813762 18.197222,39.5839028 13.9712416,33.4809922 C9.74526122,27.3780816 11.2005657,18.9865796 17.2456767,14.7201931 Z M23.5426673,21.529459 C22.7590418,21.8685096 22.0873628,22.3770855 21.555617,23.0551867 C19.9323927,25.1742528 20.3242055,28.2539623 22.451189,29.8927068 L22.7030686,30.0904863 L21.8074966,31.2489092 L21.555617,31.0511297 C20.660045,30.3730285 19.988366,29.4688936 19.5685666,28.4517418 C18.2531952,25.2307613 19.764473,21.5012048 22.9829348,20.1732567 C26.0054903,18.9300712 29.4478452,20.2015109 30.959123,23.1116951 L31.0990561,23.3942373 L29.8116713,24.0723384 L29.6717382,23.7897963 C28.4963,21.5577132 25.8655572,20.5688157 23.5426673,21.529459 Z M45.6241145,41.6182063 C45.4282081,41.8724942 45.2323017,42.0985279 45.0923686,42.3245617 C45.0363953,42.3810701 44.9804221,42.4375785 44.9244488,42.494087 C44.7285425,42.7483749 44.5046495,42.9744086 44.2807565,43.2286966 C44.16881,43.3699676 44.0568635,43.4829845 43.9169303,43.6242556 C43.7769972,43.7655267 43.6090775,43.935052 43.4691443,44.076323 C43.273238,44.2741025 43.0773316,44.471882 42.8534386,44.6696616 L42.601559,44.8956953 C42.3216927,45.1499832 42.0418265,45.4042712 41.7339736,45.6585591 L41.6500137,45.7433217 C41.2861876,46.0258639 40.9503481,46.3084061 40.586522,46.562694 L40.5585353,46.5909482 C40.1947092,46.8452362 39.8028965,47.1277783 39.4110837,47.3820663 L39.3830971,47.3820663 C38.9912843,47.6363542 38.5994716,47.8906421 38.2076588,48.1166759 L38.1516856,48.1449301 C37.7598728,48.3709638 37.3680601,48.5687433 36.9762473,48.7665228 L36.8643008,48.8230312 C36.5004747,49.0208108 36.1366486,49.190336 35.7448358,49.3598613 L35.5489295,49.444624 C35.1851033,49.5858951 34.8212772,49.7271661 34.4574511,49.8684372 L34.2055715,49.9814541 C33.8417453,50.1227252 33.4779192,50.235742 33.1140931,50.3487589 L32.8342268,50.4335215 C32.4144275,50.5465384 31.9946281,50.6595553 31.5748287,50.7725721 L31.4628822,50.8008263 C23.5986406,52.722113 15.286613,50.7443179 9.07358222,45.4607796 C-1.70126841,36.3064138 -3.07261303,20.0602398 5.99505347,9.18236684 C6.02304009,9.12585841 6.07901334,9.06934998 6.13498659,9.01284155 C6.35887959,8.75855361 6.58277259,8.50426567 6.80666559,8.24997773 C6.91861209,8.10870665 7.05854522,7.99568979 7.17049172,7.85441871 C7.33841147,7.68489342 7.50633122,7.51536813 7.67425097,7.34584283 C7.84217072,7.17631754 8.03807709,6.97853803 8.17801022,6.86552117 C8.31794334,6.75250431 8.45787647,6.61123323 8.59780959,6.49821637 C8.79371597,6.32869107 9.01760897,6.13091156 9.21351534,5.96138627 C9.29747522,5.90487784 9.40942172,5.82011519 9.49338159,5.73535255 C9.74526122,5.53757304 9.99714084,5.33979353 10.2490205,5.14201402 L10.3049937,5.08550559 C11.5923785,4.12486226 12.9637231,3.2772358 14.4190276,2.57088041 L14.4750008,2.54262619 C14.7828537,2.3731009 15.1186932,2.23182982 15.4545327,2.09055874 L15.6504391,2.0057961 C15.958292,1.89277923 16.2941315,1.75150816 16.6019843,1.63849129 L16.853864,1.55372865 C17.1617168,1.44071179 17.4695697,1.32769492 17.8054092,1.21467806 L18.0572888,1.12991541 C18.3931283,1.04515277 18.7289678,0.932135905 19.0648073,0.847373259 L19.2607137,0.790864828 C19.6245398,0.706102181 20.0163526,0.621339535 20.3801787,0.536576888 L20.4081653,0.536576888 C29.4478452,-1.35645555 38.795378,1.8362708 44.8125023,8.89982469 C44.1967966,9.15411263 43.6650507,9.54967164 43.2452513,10.0582475 C42.153773,8.81506204 40.9503481,7.6566392 39.6349767,6.66774166 C39.4110837,6.49821637 39.1592041,6.32869107 38.9353111,6.15916578 L38.7114181,6.0178947 C28.9720726,-0.621845949 15.8743321,0.960390121 7.98210384,9.77570537 C-0.777709785,19.5234097 -0.0220709095,34.5829066 9.66130134,43.3982219 L9.71727459,43.4547303 C9.96915422,43.680764 10.2210338,43.9067977 10.4729135,44.1328315 L10.6968065,44.3023568 C10.8927128,44.5001363 11.1166058,44.6696616 11.3404988,44.8391869 C11.5084186,44.9522037 11.704325,45.121729 11.8442581,45.2064917 C11.9841912,45.2912543 12.1241243,45.4042712 12.2640575,45.4890338 C22.0313896,52.1852829 35.21309,50.5182842 43.0773316,41.6182063 L45.6241145,41.6182063 Z M43.8329705,13.9290751 C44.6725692,12.4316016 46.2957935,11.5274667 48.1429107,11.5274667 L51.2494261,11.5274667 L51.2494261,14.6919389 L48.2548572,14.6919389 C46.7995527,14.6919389 46.3517667,15.624328 46.3517667,18.647529 L46.3517667,21.8967638 L50.4098273,21.8967638 L50.4098273,25.0047275 L46.3517667,25.0047275 L46.3517667,39.7816823 L43.1053182,39.7816823 L43.1053182,24.9764733 L41.3141742,24.9764733 L41.3141742,21.8967638 L43.1053182,21.8967638 L43.1053182,18.3367327 C43.1053182,16.7262424 43.1892781,15.0874979 43.8329705,13.9290751 Z M52.7886905,21.8967638 L56.035139,21.8967638 L56.035139,39.7816823 L52.7886905,39.7816823 L52.7886905,21.8967638 Z M81.8947805,21.8967638 L81.8947805,25.0047275 L79.0681314,25.0047275 L79.0681314,39.7816823 L75.8216829,39.7816823 L75.8216829,25.0047275 L74.0305389,25.0047275 L74.0305389,21.8967638 L75.8216829,21.8967638 L75.8216829,15.9916328 L79.0681314,15.9916328 L79.0681314,21.8967638 L81.8947805,21.8967638 Z M65.7744845,21.4729506 C70.1124114,21.4729506 72.3233547,24.0440842 72.2673815,29.1015888 L72.2673815,39.7816823 L69.020933,39.7816823 L69.020933,29.1015888 C69.020933,26.2761672 68.4891871,24.6374227 65.7185112,24.6374227 C63.1157551,24.6374227 62.1362232,26.3326757 62.1362232,30.9098586 L62.1362232,39.7816823 L58.8897747,39.7816823 L58.8897747,29.1015888 C58.8897747,24.5244059 60.9887716,21.8402554 64.8509259,21.5012048 L64.8509259,21.4729506 L65.7744845,21.4729506 Z M114.723092,35.1479909 L115.47873,34.3003645 L115.47873,38.6232594 C113.967453,39.6404112 112.148322,40.1772413 110.301205,40.1489871 C107.614489,40.1489871 105.347572,39.1883437 103.640388,37.3235655 C100.254006,33.7070259 100.198033,28.0561828 103.500455,24.3548806 C105.291599,22.3205771 107.530529,21.3316795 110.301205,21.3316795 C112.148322,21.3034253 113.967453,21.8685096 115.47873,22.9139156 L115.47873,27.3215732 L114.667118,26.4174383 C114.639132,26.3891841 114.583158,26.3326757 114.555172,26.3044215 C114.471212,26.2196588 114.415239,26.1631504 114.331279,26.0783877 C111.980402,23.8180505 108.258181,23.9310674 106.019251,26.3044215 C104.843813,27.4910985 104.200121,29.1015888 104.228107,30.7968417 C104.228107,31.9270104 104.507973,33.0289248 105.039719,33.9895681 C105.543479,34.9219572 106.299117,35.7130752 107.222676,36.2499053 C109.125767,37.3235655 111.42067,37.3235655 113.32376,36.2499053 C113.855506,35.9673632 114.331279,35.6000584 114.723092,35.1479909 Z M90.9344604,36.9562607 C92.6976177,36.9562607 94.2648687,36.1086343 95.3563471,34.5263982 L99.0505816,34.5263982 L98.6867555,35.2610078 C97.0635312,38.3972257 94.2088955,40.1207329 90.7105674,40.1207329 C85.6729749,40.1207329 82.0347136,36.1651427 82.0347136,30.7403333 C82.0347136,25.456795 85.7849214,21.4446964 90.7105674,21.4446964 C92.9215107,21.388188 95.0764809,22.2640686 96.6437319,23.8463047 C98.3789026,25.5980661 99.3304479,28.1126913 99.3024612,30.9381128 L99.3024612,31.7857393 L85.3371354,31.7857393 C85.4770685,34.7806861 87.9678781,37.0692776 90.9344604,36.9562607 Z M90.7665406,24.6374227 C88.3317042,24.6939312 86.2327074,26.2761672 85.5050551,28.6212671 L95.8601064,28.6212671 C95.216414,26.5304552 93.3972834,24.6374227 90.7665406,24.6374227 Z M131.179227,21.6707301 L132.998358,21.6707301 L140.638706,38.0581751 L147.495429,21.6707301 L149.286573,21.6707301 L137.252325,50.3487589 L135.461181,50.3487589 L139.771121,40.0924786 L131.179227,21.6707301 Z M210.10151,21.4729506 C214.32749,21.4729506 216.370514,23.9310674 216.3985,28.9885719 L216.3985,39.8381907 L214.663329,39.8381907 L214.663329,28.9603177 C214.663329,26.0501335 214.131584,23.0834409 210.073523,23.0834409 C205.819556,23.0834409 205.20385,26.7282347 205.175864,30.7403333 L205.175864,39.7816823 L203.440693,39.7816823 L203.440693,28.9038093 C203.440693,26.0218793 202.908947,23.0834409 198.878873,23.0834409 C194.568933,23.0834409 193.981214,26.8695058 193.981214,30.9381128 L193.981214,39.7816823 L192.246043,39.7816823 L192.246043,28.9320635 C192.246043,24.1288469 194.456986,21.529459 198.626993,21.4446964 L198.90686,21.4446964 C201.593576,21.4729506 203.412706,22.4618481 204.364251,24.4961517 C205.37177,22.574865 207.218887,21.529459 209.821643,21.4729506 L210.10151,21.4729506 Z M130.059762,34.5546524 C130.059762,37.7473788 127.736872,39.9794618 124.658343,40.2054955 C124.51841,40.2337497 124.350491,40.2337497 124.210557,40.2337497 C123.986664,40.2337497 123.790758,40.2337497 123.622838,40.2054955 L123.482905,40.2054955 L123.426932,40.2054955 C121.971627,40.0359702 120.572296,39.4991401 119.396858,38.6232594 L119.396858,36.3064138 C120.796189,37.775633 122.4474,38.566751 124.210557,38.566751 L124.350491,38.566751 C124.43445,38.566751 124.51841,38.566751 124.60237,38.566751 L124.714317,38.5384968 C126.75734,38.3124631 128.296605,36.5607017 128.268618,34.498144 C128.268618,32.2660609 126.561434,31.5597055 124.77029,30.9381128 C122.391427,30.0622321 119.424845,28.9885719 119.424845,25.7675914 C119.396858,24.5526601 119.928604,23.3942373 120.852162,22.6313734 C121.831694,21.7554928 123.091092,21.3034253 124.658343,21.3034253 C126.085661,21.3034253 127.484993,21.7272385 128.660431,22.4901024 L128.660431,24.5526601 C127.540966,23.5920168 126.113648,23.0551867 124.630357,23.0269325 C123.790758,22.9986782 122.923173,23.2529662 122.223507,23.7332878 C121.607801,24.1288469 121.215989,24.8634565 121.215989,25.6263203 L121.215989,25.7393371 C121.215989,25.7393371 121.215989,25.7675914 121.215989,25.7675914 C121.215989,30.1187406 130.059762,27.9996744 130.059762,34.5546524 Z M161.404782,34.5546524 C161.404782,37.7473788 159.109879,39.9794618 156.003363,40.2054955 C155.835444,40.2337497 155.667524,40.2337497 155.527591,40.2337497 C155.303698,40.2337497 155.107791,40.2337497 154.939872,40.2054955 L154.799939,40.2054955 L154.743965,40.2054955 C153.288661,40.0359702 151.88933,39.4991401 150.713891,38.6232594 L150.713891,36.3064138 C152.113223,37.775633 153.764433,38.566751 155.527591,38.566751 L155.667524,38.566751 C155.751484,38.566751 155.835444,38.566751 155.919404,38.566751 L156.03135,38.5384968 C158.074374,38.3124631 159.613638,36.5607017 159.585651,34.498144 C159.585651,32.2660609 157.878467,31.5597055 156.087323,30.9381128 C153.70846,30.0622321 150.741878,28.9885719 150.741878,25.7675914 C150.713891,24.5526601 151.245637,23.3942373 152.169196,22.6313734 C153.148728,21.7554928 154.408126,21.3034253 155.975377,21.3034253 C157.402695,21.3034253 158.802026,21.7272385 159.977464,22.4901024 L159.977464,24.5526601 C158.857999,23.5920168 157.430681,23.0551867 155.94739,23.0269325 C155.107791,22.9986782 154.240206,23.2529662 153.54054,23.7332878 C152.896848,24.1288469 152.533022,24.8634565 152.533022,25.6263203 C152.533022,25.6545745 152.533022,25.7393371 152.533022,25.7393371 C152.533022,25.7393371 152.533022,25.7675914 152.533022,25.7675914 C152.533022,30.1187406 161.404782,27.9996744 161.404782,34.5546524 Z M230,34.5546524 C230,37.7473788 227.67711,39.9794618 224.598581,40.1772413 C224.458648,40.2054955 224.290728,40.2054955 224.150795,40.2054955 C223.926902,40.2054955 223.730996,40.2054955 223.563076,40.1772413 L223.423143,40.1772413 L223.36717,40.1772413 C221.911865,40.007716 220.512534,39.4708859 219.337096,38.5950052 L219.337096,36.2781595 C220.736427,37.7473788 222.387638,38.5384968 224.150795,38.5384968 L224.290728,38.5384968 C224.374688,38.5384968 224.458648,38.5384968 224.542608,38.5384968 L224.654555,38.5102426 C226.697578,38.2842088 228.236843,36.5324475 228.208856,34.4698897 C228.208856,32.2378067 226.501672,31.5314513 224.710528,30.9098586 C222.331665,30.0339779 219.365082,28.9603177 219.365082,25.7393371 C219.337096,24.5244059 219.868842,23.365983 220.7924,22.6031192 C221.771932,21.7272385 223.03133,21.2751711 224.598581,21.2751711 C226.025899,21.2751711 227.42523,21.6989843 228.600669,22.4618481 L228.600669,24.5244059 C227.453217,23.5637626 226.025899,23.0269325 224.542608,22.9986782 C223.703009,22.970424 222.835424,23.224712 222.135758,23.7050336 C221.520053,24.1005926 221.12824,24.8352023 221.12824,25.5980661 L221.12824,25.7675914 C221.12824,30.1187406 230,27.9996744 230,34.5546524 Z M167.365933,39.8099365 L165.630762,39.8099365 L165.630762,24.0723384 L163.643712,24.0723384 L163.643712,22.4335939 L165.630762,22.4335939 L165.630762,15.624328 L167.365933,15.624328 L167.365933,22.4335939 L170.500435,22.4335939 L170.500435,24.0723384 L167.365933,24.0723384 L167.365933,39.8099365 Z M180.351727,38.566751 C182.81455,38.566751 184.829587,37.2670571 186.144959,35.3175162 L188.132009,35.3175162 C186.620731,38.3689715 183.486229,40.2902582 180.099848,40.2054955 C174.782389,40.2054955 171.396007,35.8543463 171.396007,30.7120791 C171.396007,25.6545745 174.866349,21.3034253 180.099848,21.3034253 C185.529253,21.3034253 188.747715,25.7110829 188.719728,30.9098586 L173.159165,30.9098586 C173.047218,35.5152957 176.209707,38.566751 180.351727,38.566751 Z M180.155821,22.970424 C176.51756,22.970424 173.495004,25.8806082 173.159165,29.2711141 L186.984557,29.2711141 C186.564758,25.9371167 183.850055,22.970424 180.155821,22.970424 Z" id="Combined-Shape"></path>
                    </g>
                </g>
            </g>
        </g>
    </g>
</svg>