<?xml version="1.0" encoding="UTF-8"?>
<svg width="178px" height="39px" viewBox="0 0 178 39" version="1.1" xmlns="http://www.w3.org/2000/svg" xmlns:xlink="http://www.w3.org/1999/xlink">
    <!-- Generator: Sketch 51.2 (57519) - http://www.bohemiancoding.com/sketch -->
    <title>logo-kredupay</title>
    <desc>Created with Sketch.</desc>
    <defs>
        <path d="M116.40913,9.03604361 L112.299899,9.03604361 C106.797104,9.03604361 104.045707,11.762886 104.045707,17.2165707 L104.045707,37.6501817 L108.154937,37.6501817 L108.154937,28.7967974 C109.298375,29.2571734 110.656207,29.5050681 112.264167,29.5050681 L116.40913,29.5050681 C121.911925,29.5050681 124.663322,26.7782258 124.663322,21.324541 L124.663322,17.1811572 C124.62759,11.762886 121.876192,9.03604361 116.40913,9.03604361 Z M120.51836,21.2891275 C120.51836,24.0159699 119.160527,25.3616843 116.40913,25.3616843 L112.299899,25.3616843 C109.548502,25.3616843 108.190669,24.0159699 108.190669,21.2891275 L108.190669,17.1811572 C108.190669,14.4543148 109.548502,13.1086004 112.299899,13.1086004 L116.40913,13.1086004 C119.160527,13.1086004 120.51836,14.4543148 120.51836,17.1811572 L120.51836,21.2891275 Z M139.849607,9.03604361 L135.740377,9.03604361 C130.237582,9.03604361 127.486185,11.762886 127.486185,17.2165707 L127.486185,21.2891275 C127.486185,26.7428122 130.237582,29.4696546 135.740377,29.4696546 L148.1038,29.4696546 L148.1038,17.1811572 C148.1038,11.762886 145.352403,9.03604361 139.849607,9.03604361 Z M143.958838,25.3616843 L135.704645,25.3616843 C132.953247,25.3616843 131.595415,24.0159699 131.595415,21.2891275 L131.595415,17.1811572 C131.595415,14.4543148 132.953247,13.1086004 135.704645,13.1086004 L139.813875,13.1086004 C142.565273,13.1086004 143.923105,14.4543148 143.923105,17.1811572 L143.923105,25.3616843 L143.958838,25.3616843 Z M171.901602,9.03604361 L171.901602,29.4696546 C171.901602,34.9233393 169.150205,37.6501817 163.64741,37.6501817 L153.356468,37.6501817 L153.356468,33.5422114 L163.64741,33.5422114 C166.398807,33.5422114 167.75664,32.196497 167.75664,29.4696546 L167.75664,28.7613839 C166.613202,29.2217598 165.255369,29.4696546 163.64741,29.4696546 L159.53818,29.4696546 C154.035384,29.4696546 151.283987,26.7428122 151.283987,21.2891275 L151.283987,9.03604361 L155.393217,9.03604361 L155.393217,21.2891275 C155.393217,24.0159699 156.75105,25.3616843 159.502447,25.3616843 L163.611677,25.3616843 C166.363075,25.3616843 167.720907,24.0159699 167.720907,21.2891275 L167.720907,9.03604361 L171.901602,9.03604361 Z" id="path-1"></path>
        <path d="M20.5388488,8.18052711 L11.260955,16.3256407 L20.503437,28.5787246 L15.3687248,28.5787246 L8.18012772,19.052483 L4.07235796,22.6292503 L4.07235796,28.5787246 L0,28.5787246 L0,0 L4.07235796,0 L4.07235796,17.1755656 L14.3771942,8.14511357 L20.5388488,8.14511357 L20.5388488,8.18052711 Z M21.9553212,16.3256407 L21.9553212,28.5787246 L26.0276791,28.5787246 L26.0276791,16.3256407 C26.0276791,13.5987983 27.3733278,12.2530839 30.1000371,12.2530839 L34.172395,12.2530839 L34.172395,8.18052711 L30.1000371,8.18052711 C24.6820304,8.18052711 21.9553212,10.9073695 21.9553212,16.3256407 Z M55.7735981,16.3256407 L55.7735981,20.3981975 L39.4487545,20.3981975 C39.4487545,23.1250398 40.7944032,24.4707542 43.5211124,24.4707542 L53.7197132,24.4707542 L53.7197132,28.543311 L43.5211124,28.543311 C38.0676939,28.543311 35.3409847,25.8164687 35.3409847,20.3627839 L35.3409847,16.3256407 C35.3409847,10.8719559 38.0676939,8.14511357 43.5211124,8.14511357 L47.5934704,8.14511357 C53.0468889,8.18052711 55.7735981,10.9073695 55.7735981,16.3256407 Z M51.7012401,16.3256407 C51.7012401,13.5987983 50.3555914,12.2530839 47.6288822,12.2530839 L43.5565242,12.2530839 C40.829815,12.2530839 39.4841663,13.5987983 39.4841663,16.3256407 L51.7012401,16.3256407 Z M74.1169148,0 L78.1892728,0 L78.1892728,20.433611 C78.1892728,25.8872957 75.4625635,28.6141381 70.009145,28.6141381 L65.9367871,28.6141381 C60.4833686,28.6141381 57.7566594,25.8872957 57.7566594,20.433611 L57.7566594,16.3256407 C57.7566594,10.8719559 60.4833686,8.14511357 65.9367871,8.14511357 L70.009145,8.14511357 C71.6026764,8.14511357 72.9483251,8.39300833 74.081503,8.85338431 L74.081503,0 L74.1169148,0 Z M74.1169148,16.3256407 C74.1169148,13.5987983 72.7712661,12.2530839 70.0445569,12.2530839 L65.9721989,12.2530839 C63.2454897,12.2530839 61.8998409,13.5987983 61.8998409,16.3256407 L61.8998409,20.3981975 C61.8998409,23.1250398 63.2454897,24.4707542 65.9721989,24.4707542 L70.0445569,24.4707542 C72.7712661,24.4707542 74.1169148,23.1250398 74.1169148,20.3981975 L74.1169148,16.3256407 Z M96.8867076,8.18052711 L96.8867076,20.433611 C96.8867076,23.1604534 95.5410588,24.5061678 92.8143496,24.5061678 L88.7419916,24.5061678 C86.0152824,24.5061678 84.6696337,23.1604534 84.6696337,20.433611 L84.6696337,8.18052711 L80.5972757,8.18052711 L80.5972757,20.433611 C80.5972757,25.8872957 83.323985,28.6141381 88.7774035,28.6141381 L92.8497614,28.6141381 C98.3031799,28.6141381 101.029889,25.8872957 101.029889,20.433611 L101.029889,8.18052711 L96.8867076,8.18052711 Z" id="path-2"></path>
        <path d="M176.19811,5.28134056 C176.19811,4.82747535 175.950234,4.66243346 175.609406,4.66243346 C175.454483,4.66243346 175.330546,4.66243346 175.299561,4.70369394 L175.299561,5.94150813 L175.64039,5.94150813 C175.950234,5.94150813 176.19811,5.69394529 176.19811,5.28134056 M176.415001,6.80797806 C176.507954,7.26184327 176.569923,7.59192705 176.600907,7.75696895 L176.260079,7.75696895 C176.229094,7.674448 176.167125,7.38562469 176.105156,6.93175948 C176.043188,6.47789428 175.888265,6.27159191 175.609406,6.27159191 L175.299561,6.27159191 L175.299561,7.75696895 L174.958733,7.75696895 L174.958733,4.41487062 C175.113655,4.37361015 175.36153,4.33234968 175.578421,4.33234968 C175.91925,4.33234968 176.136141,4.41487062 176.322047,4.62117299 C176.445985,4.78621488 176.507954,4.99251725 176.507954,5.28134056 C176.507954,5.73520576 176.291063,6.02402907 176.043188,6.14781049 C176.229094,6.23033144 176.353032,6.43663381 176.415001,6.80797806 M177.313549,4.74495441 C177.158627,4.33234968 176.910751,4.04352637 176.600907,3.79596353 C176.291063,3.58966116 175.981219,3.46587974 175.671374,3.46587974 C175.36153,3.46587974 175.051686,3.58966116 174.741842,3.79596353 C174.431997,4.00226589 174.215106,4.33234968 174.0292,4.74495441 C173.874278,5.15755914 173.781324,5.57016387 173.781324,6.02402907 C173.781324,6.43663381 173.843293,6.89049901 174.0292,7.26184327 C174.184122,7.674448 174.431997,7.96327131 174.741842,8.21083415 C175.051686,8.41713652 175.36153,8.54091793 175.671374,8.54091793 C176.012203,8.54091793 176.322047,8.41713652 176.600907,8.21083415 C176.910751,8.00453178 177.127642,7.674448 177.313549,7.26184327 C177.468471,6.84923854 177.561424,6.43663381 177.561424,6.02402907 C177.561424,5.57016387 177.468471,5.15755914 177.313549,4.74495441 M177.623393,7.50940611 C177.437487,8.00453178 177.158627,8.37587604 176.786814,8.62343888 C176.415001,8.87100172 176.043188,9.03604361 175.671374,9.03604361 C175.268577,9.03604361 174.896764,8.91226219 174.555935,8.62343888 C174.184122,8.33461557 173.905262,7.96327131 173.719355,7.50940611 C173.502464,7.0555409 173.409511,6.51915475 173.409511,6.02402907 C173.409511,5.48764292 173.502464,4.99251725 173.719355,4.49739157 C173.936246,4.00226589 174.215106,3.63092163 174.555935,3.3833588 C174.927748,3.13579596 175.299561,3.01201454 175.671374,3.01201454 C176.043188,3.01201454 176.415001,3.13579596 176.786814,3.3833588 C177.158627,3.63092163 177.437487,4.00226589 177.623393,4.49739157 C177.840284,4.99251725 177.933238,5.48764292 177.933238,6.02402907 C177.933238,6.56041523 177.840284,7.0555409 177.623393,7.50940611" id="path-3"></path>
    </defs>
    <g id="Final" stroke="none" stroke-width="1" fill="none" fill-rule="evenodd">
        <g id="pays.de-0816" transform="translate(-277.000000, -4081.000000)" fill-rule="nonzero">
            <g id="Group-57" transform="translate(0.000000, 3924.000000)">
                <g id="Group-27" transform="translate(277.000000, 144.000000)">
                    <g id="logo-kredupay" transform="translate(0.000000, 13.368124)">
                        <g id="Pay">
                            <use fill="#FFFFFF" xlink:href="#path-1"></use>
                            <use fill="#009EDB" xlink:href="#path-1"></use>
                        </g>
                        <g id="Kredu">
                            <use fill="#FFFFFF" xlink:href="#path-2"></use>
                            <use fill="#009EDB" xlink:href="#path-2"></use>
                        </g>
                        <g id="Copyright">
                            <use fill="#FFFFFF" xlink:href="#path-3"></use>
                            <use fill="#009EDB" xlink:href="#path-3"></use>
                        </g>
                    </g>
                </g>
            </g>
        </g>
    </g>
</svg>