<?xml version="1.0" encoding="UTF-8"?>
<svg width="140px" height="37px" viewBox="0 0 140 37" version="1.1" xmlns="http://www.w3.org/2000/svg" xmlns:xlink="http://www.w3.org/1999/xlink">
    <!-- Generator: Sketch 51.2 (57519) - http://www.bohemiancoding.com/sketch -->
    <title>logo-schufa</title>
    <desc>Created with Sketch.</desc>
    <defs></defs>
    <g id="Final" stroke="none" stroke-width="1" fill="none" fill-rule="evenodd">
        <g id="pays.de-0816" transform="translate(-516.000000, -4082.000000)">
            <g id="Group-57" transform="translate(0.000000, 3924.000000)">
                <g id="Group-27" transform="translate(277.000000, 144.000000)">
                    <g id="logo-schufa" transform="translate(239.000000, 14.000000)">
                        <g id="Schufa_Logo">
                            <path d="M46.4823981,13.3575374 C46.4823981,11.3386507 45.6595068,10.8691397 41.0214473,10.8691397 L38.8520382,10.8691397 L36.8920813,10.866116 C31.9099106,10.866116 29.9349931,11.335627 29.9349931,14.6448904 L29.9349931,20.8893378 L29.9349931,21.4194287 C29.9349931,24.7286922 31.9099106,25.1966923 36.8920813,25.1966923 L38.0740365,25.1951674 L41.0214473,25.1785121 C45.6595068,25.1785121 46.4823981,24.7090111 46.4823981,22.6901244 L46.4823981,22.4659768 L50.0282619,22.4659768 L50.0282619,23.1066297 C50.0282619,26.417406 48.098232,28.1666997 40.1686407,28.1666997 L38.373266,28.1803313 L36.5928518,28.1848799 C30.6082549,28.1848799 26.3891135,27.2791826 26.3891135,21.3437043 L26.3891135,15.1749833 L26.3891135,14.719104 C26.3891135,8.78513653 30.6082549,7.87943927 36.5928518,7.87943927 L39.9891117,7.87943927 L40.1686407,7.88247496 C48.098232,7.88247496 50.0282619,9.63025585 50.0282619,12.9410322 L50.0282619,13.581685 L46.4823981,13.581685 L46.4823981,13.3575374" id="path7349" fill="#231F20" fill-rule="nonzero"></path>
                            <path d="M87.641437,28.1591275 C81.5221869,28.1591275 79.5323186,25.0149425 79.5323186,21.4270009 L79.5323186,7.86429479 L83.0931469,7.86429479 L83.0931469,20.6303528 C83.0931469,23.3565196 83.7664127,25.169427 89.9754303,25.169427 L93.0574922,25.169427 C99.2515453,25.169427 99.9397756,23.3565196 99.9397756,20.6303528 L99.9397756,7.86429479 L103.485639,7.86429479 L103.485639,21.4270009 C103.485639,25.0149425 101.510736,28.1591275 95.376521,28.1591275 L87.641437,28.1591275" id="path7351" fill="#231F20" fill-rule="nonzero"></path>
                            <path d="M0.0569059215,25.1785121 L14.5695413,25.1785121 C19.4619464,25.1785121 20.7785627,24.9679962 20.7785627,22.2736311 L20.7785627,22.1206594 C20.7785627,20.3895359 20.3596348,19.4050905 16.5594194,19.4050905 L6.6249992,19.4050905 C2.03182346,19.4050905 0.25140931,17.8784315 0.25140931,14.079974 L0.25140931,12.942545 C0.25140931,9.6317687 2.1664707,7.88398781 10.1110246,7.88398781 L23.6661273,7.88398781 L23.6661273,10.8706626 L9.2432574,10.8706626 C4.60519991,10.8706626 3.79727703,11.3401635 3.79727703,13.3590503 L3.79727703,14.079974 C3.79727703,15.5430175 4.20123255,16.4169009 7.52268756,16.4169009 L16.0357654,16.4169009 C20.8533657,16.4169009 24.3244305,16.9076177 24.3244305,22.3114943 L24.3244305,22.3872167 C24.3244305,27.9985835 19.162717,28.1666997 15.2876986,28.1666997 L0.0569059215,28.1666997 L0.0569059215,25.1785121" id="path7353" fill="#231F20" fill-rule="nonzero"></path>
                            <path d="M52.9457535,14.4979802 L52.9158442,14.5827997 C52.9158442,14.4586061 52.9158442,14.3359234 52.9158442,14.2132527 L52.9158442,0.0704736489 L56.461708,0.0704736489 L56.461708,8.67457461 C57.6436494,8.15205596 59.1398065,7.8552097 61.0249625,7.8552097 L68.7001884,7.8552097 C74.8194385,7.8552097 76.8093265,10.996369 76.8093265,14.5827997 L76.8093265,28.1666997 L73.2484784,28.1666997 L73.2484784,15.5702707 C73.1736755,11.6021843 71.6476091,10.8858091 64.8550932,10.8449102 C58.2122029,10.8842962 56.6113138,11.5779547 56.461708,15.3203828 L56.461708,28.1666997 L52.9158442,28.1666997 L52.9158442,15.7398997 C52.9158442,14.749393 52.930789,14.5403899 52.9457535,14.4979802" id="path7355" fill="#231F20" fill-rule="nonzero"></path>
                            <path d="M106.507863,11.0084778 L106.507863,6.64660479 C106.507863,1.94850948 109.365516,0.0704736489 112.956273,0.0704736489 L119.150327,0.0704736489 L119.150327,3.05715041 L113.225576,3.05715041 C110.921512,3.05715041 110.053746,4.34450344 110.053746,5.96355422 L110.053746,7.87943927 L115.589478,7.87943927 L115.589478,10.866116 L110.053746,10.866116 L110.053746,28.1666997 L106.507863,28.1666997 L106.507863,11.0084778" id="path7357" fill="#231F20" fill-rule="nonzero"></path>
                            <path d="M136.34108,18.7704971 L129.249333,18.791703 L124.297079,18.791703 C120.137768,18.791703 119.135362,19.3990291 119.135362,21.6602436 L119.135362,22.2675717 C119.135362,24.2819099 119.748789,25.1739755 124.147454,25.1739755 L128.411477,25.1739755 L136.34108,25.1588311 L136.34108,18.7704971 Z M129.608403,28.1621512 L121.903228,28.1606383 C116.921065,28.1606383 115.589478,25.9145803 115.589478,22.1918473 L115.589478,20.9014586 C115.589478,16.3214855 118.86606,15.8050262 124.446685,15.8050262 L129.608403,15.8050262 L136.356045,15.7959411 L136.34108,14.6433796 C136.34108,11.3341022 134.366157,10.866116 129.398939,10.866116 L119.150327,10.866116 L119.150327,7.87792642 L129.683206,7.87792642 C135.667795,7.87792642 139.901908,8.78513653 139.901908,14.7206149 L139.901908,28.1606383 L129.608403,28.1621512 Z" id="path7359" fill="#231F20"></path>
                            <polygon id="path7361" fill="#F9AD0B" fill-rule="nonzero" points="0.101787674 36.937394 139.961747 36.937394 139.961747 33.9552657 0.101787674 33.9552657"></polygon>
                        </g>
                    </g>
                </g>
            </g>
        </g>
    </g>
</svg>