<?xml version="1.0" encoding="UTF-8"?>
<svg width="169px" height="53px" viewBox="0 0 169 53" version="1.1" xmlns="http://www.w3.org/2000/svg" xmlns:xlink="http://www.w3.org/1999/xlink">
    <!-- Generator: Sketch 51.2 (57519) - http://www.bohemiancoding.com/sketch -->
    <title>logo-Sofortuberweisung</title>
    <desc>Created with Sketch.</desc>
    <defs></defs>
    <g id="Final" stroke="none" stroke-width="1" fill="none" fill-rule="evenodd">
        <g id="pays.de-0816" transform="translate(-455.000000, -3770.000000)" fill-rule="nonzero">
            <g id="Group-56" transform="translate(455.000000, 3674.000000)">
                <g id="Group-55" transform="translate(0.000000, 96.000000)">
                    <g id="logo-Sofortuberweisung">
                        <path d="M55.9831274,0.208899876 C53.67648,0.208899876 51.4396888,0.739029271 49.3387221,1.72832059 C46.3385564,3.14936409 43.6168793,5.51898224 41.3952229,8.66363146 C39.952084,10.7051055 38.7164621,13.0714753 37.7492689,15.7180821 C35.9253724,20.7138286 35.9457778,24.7660643 37.8104703,27.436469 C38.8677537,28.9459022 41.0656561,30.7492868 45.5344611,30.754386 L45.5515909,30.754386 C53.6919908,30.754386 59.7685665,25.4186675 63.6169409,14.8951315 C64.6334269,12.1108408 65.9746372,6.91438954 63.5235084,3.40767923 C62.0429723,1.28801397 59.5102305,0.212298677 55.9831211,0.208899876 L55.9831274,0.208899876 Z M105.101118,0.208899876 C102.796171,0.208899876 100.557613,0.739029271 98.4583465,1.72832059 C95.4564783,3.14936409 92.7369111,5.51898224 90.5152546,8.66363146 C89.0704153,10.7051055 87.8360844,13.0714753 86.8688926,15.7180821 C85.0432936,20.7138286 85.0653326,24.7660643 86.9317255,27.436469 C87.9873071,28.9459022 90.1835112,30.7492868 94.655717,30.754386 L94.669588,30.754386 C102.811688,30.754386 108.889964,25.4186675 112.73494,14.8951315 C113.754825,12.1108408 115.092567,6.91438954 112.643137,3.40767923 C111.160903,1.28801397 108.628228,0.212298677 105.101118,0.208899876 Z M29.8400417,0.632003597 C27.1611389,0.632003597 24.5587625,0.631794697 22.226621,1.81481768 C19.8961778,2.9978887 17.8376157,5.36577716 16.2533901,10.1014517 C15.9100297,11.1196401 15.7284164,11.9968797 15.7046206,12.758397 C15.6808311,13.5216127 15.8134595,14.1708568 16.1024265,14.7351936 C16.4593863,15.4236168 17.0373328,16.0712837 17.7597546,16.616924 C18.4838747,17.1642625 19.348858,17.6080787 20.2820577,17.8919485 C20.3177524,17.9021428 20.8075098,18.0414352 21.4024462,18.211417 C21.9939796,18.3813989 22.6856868,18.5851702 23.1242366,18.7177548 C23.3809077,18.795946 23.6628389,18.8980458 23.9178117,19.0527299 C24.1744828,19.2040131 24.4041097,19.4078681 24.5485911,19.6900375 C24.6437826,19.8770154 24.6948628,20.0827734 24.6999621,20.3020473 C24.7067513,20.5230237 24.6691473,20.7612259 24.5824559,21.0127978 C24.3648825,21.6553258 24.0351006,22.0700463 23.4061699,22.3233186 C22.7806381,22.5765888 21.8577372,22.6578843 20.4570928,22.6680849 L2.97274342,22.6680849 L0.208899876,30.2611045 L18.923799,30.2611045 C20.6848041,30.2611045 23.9042019,30.2613134 26.9978607,28.9456891 C30.0915175,27.631734 33.0597236,25.0054907 34.3158845,19.7479738 C34.7884327,17.772792 34.6421234,16.1630576 33.8687093,14.8983966 C33.0918942,13.635436 31.6878489,12.7177221 29.6429739,12.1312879 C29.6429739,12.1312879 29.1858676,11.9983253 28.6470271,11.8436433 C28.1115853,11.6889612 27.4911005,11.5123301 27.1749368,11.4205395 C26.651394,11.2709568 26.2484554,10.9683507 26.0104829,10.5824917 C25.7742088,10.1983353 25.7027943,9.73085288 25.8370793,9.25320331 C25.9781619,8.7568593 26.3181862,8.36078722 26.8077305,8.08711794 C27.3006757,7.81514492 27.9465774,7.66564572 28.701293,7.66564572 L39.5799978,7.66564572 C39.6564886,7.55515858 39.72628,7.43462962 39.8027707,7.32414247 C41.7898493,4.51265304 44.1951768,2.23832666 46.8298848,0.632003597 L29.8400417,0.632003597 Z M78.7368926,0.632003597 C73.895828,0.632003597 70.2920733,3.08125438 68.5905608,7.66564572 L60.3667597,30.2611045 L69.3759742,30.2611045 L73.6017095,18.6463528 L81.563569,18.6516589 L83.8292344,12.4303594 L75.8930801,12.4250534 L77.1713676,8.82316412 C77.4365368,8.17723525 78.0738632,7.66401422 79.0053623,7.66401422 C79.5238038,7.66401422 85.3692443,7.66568541 88.3932079,7.66727305 C88.4714012,7.55508755 88.5411215,7.43462544 88.6176123,7.32413829 C90.6046909,4.51264886 93.418027,2.23832248 96.0527349,0.631999419 L78.7368926,0.631999419 L78.7368926,0.632003597 Z M120.531965,0.648318677 L109.74302,30.2794605 L118.90687,30.2794605 L122.82823,19.8495639 C123.020309,20.2796156 125.333804,30.2794605 125.333804,30.2794605 L134.968497,30.2794605 C134.968497,30.2794605 133.216073,22.9312695 131.927616,19.9633976 C131.596155,19.2001819 131.250806,18.3452153 130.788458,17.6295954 C133.509857,16.6182066 137.453407,14.4475175 139.086924,10.0484058 C140.089813,7.34400676 140.032269,5.15788836 138.917193,3.55496618 C137.565841,1.60867946 134.815548,0.653420012 130.506525,0.648318677 L120.531965,0.648318677 Z M139.328057,0.648736477 C139.907694,1.10768533 140.407357,1.63102339 140.823812,2.2293565 C141.889594,3.76598848 142.297437,5.59194888 142.054364,7.68441747 L147.511056,7.68441747 L139.287257,30.2868138 L147.504121,30.2868138 L155.732818,7.68441747 L166.290422,7.68441747 L168.851894,0.648736477 L139.328057,0.648736477 Z M126.56966,6.76599334 L128.082553,6.76599334 C130.848143,6.76787344 131.87969,7.57682567 130.943094,10.1010464 C130.06429,12.4705852 128.483505,13.9342777 125.47824,13.9342777 L125.466416,13.9342777 L123.911092,13.9326065 L126.569669,6.76595365 L126.56966,6.76599334 Z M53.8210951,6.91287502 L53.8227663,6.91287502 C56.6376525,6.91628009 57.2820773,8.5482289 54.8105515,15.3100798 L54.8101337,15.3100798 C52.2706131,22.2606111 50.428183,24.0096169 47.6540888,24.0096169 L47.6487827,24.0096169 C44.9460842,24.0079457 43.99785,22.2976762 46.52717,15.3794408 C48.4156625,10.2154129 50.8617485,6.91287502 53.8211223,6.91287502 L53.8210951,6.91287502 Z M102.939086,6.91287502 L102.942345,6.91287502 C105.755533,6.91628009 106.401317,8.5482289 103.928091,15.3100798 C101.390271,22.2606111 99.5460736,24.0096169 96.7736797,24.0096169 L96.7671621,24.0096169 C94.062761,24.0079457 93.1191519,22.2976762 95.6467735,15.3794408 C97.5335635,10.2154129 99.9814188,6.91287502 102.939092,6.91287502 L102.939086,6.91287502 Z" id="path66" fill="#EE7F00"></path>
                        <path d="M9.11856108,33.4011308 C8.5423233,33.4011308 8.11047294,33.5063557 7.82150592,33.7120323 C7.53423726,33.9228101 7.29276989,34.2952139 7.09729183,34.8340544 C6.90861346,35.3507975 6.87991062,35.7092571 7.01079475,35.9132332 C7.14168096,36.1189119 7.4966687,36.2208717 8.08140661,36.2208717 C8.6644399,36.2208717 9.09982902,36.1155778 9.38539933,35.9014011 C9.67096755,35.6889249 9.9105966,35.3182906 10.1026759,34.7879481 C10.2930547,34.2644074 10.3252963,33.9041094 10.1961084,33.7018338 C10.0703235,33.5012544 9.7100945,33.4011308 9.11856108,33.4011308 Z M14.0868686,33.4011308 C13.5021328,33.4011308 13.0687867,33.5063557 12.7849168,33.7120323 C12.4993486,33.9228101 12.2598533,34.2952139 12.0643752,34.8340544 C11.8773973,35.3507975 11.8467914,35.7092571 11.9725742,35.9132332 C12.1000616,36.1189119 12.4535536,36.2208717 13.0382894,36.2208717 C13.6213248,36.2208717 14.0565092,36.1155778 14.3471788,35.9014011 C14.6361479,35.6889249 14.8772058,35.3182906 15.0709834,34.7879481 C15.2613622,34.2644074 15.2904076,33.9041094 15.1595214,33.7018338 C15.0269348,33.5012544 14.669904,33.4011308 14.0868686,33.4011308 Z M106.834333,37.2555779 C106.157809,37.2555779 105.488366,37.3425074 104.82204,37.515888 C104.155713,37.6909691 103.536744,37.9543375 102.965606,38.306198 C102.392769,38.659759 101.881401,39.1017452 101.424154,39.6354864 C100.968602,40.1709282 100.613071,40.7914632 100.356398,41.4951863 C100.132023,42.1105176 100.031973,42.6355561 100.054064,43.0758063 C100.074452,43.5143581 100.172748,43.8969645 100.347829,44.2182275 C100.521208,44.541193 100.752475,44.8165334 101.041442,45.0477083 C101.328712,45.2788811 101.634659,45.486068 101.962723,45.6662462 C102.290788,45.848127 102.61034,46.0233418 102.924806,46.1848255 C103.23587,46.3480056 103.504682,46.5213194 103.727357,46.7082973 C103.953431,46.8935769 104.111169,47.1060009 104.206358,47.3439733 C104.301548,47.5836484 104.288282,47.8692584 104.167597,48.2024223 C104.062209,48.489691 103.91413,48.7516305 103.722053,48.9862042 C103.529974,49.2224783 103.303879,49.419732 103.047208,49.5778149 C102.787138,49.7375983 102.499824,49.861595 102.178559,49.9482863 C101.858994,50.0349777 101.517405,50.0792561 101.153644,50.0792561 C100.599505,50.0792561 100.135482,50.0161349 99.7615224,49.89035 C99.3875666,49.7662635 99.0749479,49.6270965 98.826777,49.4758133 C98.5803044,49.3245301 98.3813523,49.1866562 98.2351662,49.0608692 C98.0855835,48.9367827 97.9579102,48.874002 97.8508239,48.874002 C97.7760315,48.874002 97.7031818,48.8943489 97.6300919,48.9368349 C97.5586962,48.977631 97.4872107,49.0471466 97.4175196,49.1457348 C97.3478285,49.2443251 97.2764077,49.373561 97.2033158,49.5333422 C97.1302238,49.6914251 97.0487382,49.8904482 96.9654477,50.1233214 C96.8379603,50.4734836 96.7612251,50.740184 96.7357393,50.9254635 C96.7085427,51.1107431 96.729159,51.2536515 96.7920441,51.3522397 C96.8515388,51.45083 96.9738998,51.5645572 97.1506813,51.693743 C97.3257624,51.8212283 97.5601543,51.9452939 97.8508239,52.0625808 C98.1414914,52.1798676 98.489951,52.2804007 98.8945065,52.3636911 C99.3007624,52.4469816 99.7579837,52.4877255 100.266229,52.4877255 C101.015845,52.4877255 101.757318,52.3890307 102.488238,52.1935526 C103.219158,51.9963741 103.902407,51.7023956 104.536435,51.3114395 C105.172165,50.9221838 105.738016,50.435915 106.23946,49.8511813 C106.739204,49.2681459 107.130311,48.5898606 107.41248,47.8164464 C107.626657,47.224913 107.723507,46.7117776 107.699718,46.2766266 C107.67592,45.8414735 107.575458,45.4607744 107.396976,45.1395094 C107.218498,44.8165439 106.982404,44.5412723 106.686635,44.308397 C106.392566,44.0789226 106.079545,43.8713304 105.751482,43.6894497 C105.425118,43.507571 105.100805,43.3360955 104.78124,43.1729134 C104.461676,43.0097312 104.186201,42.8343097 103.955025,42.6490301 C103.722151,42.4637505 103.560467,42.2513286 103.468681,42.013354 C103.378588,41.7753816 103.392123,41.491472 103.511112,41.1651077 C103.591004,40.9458318 103.706977,40.7385091 103.859958,40.5396323 C104.009541,40.3424538 104.19129,40.1743102 104.405465,40.034926 C104.619642,39.8955417 104.860973,39.7851465 105.132942,39.7052569 C105.404911,39.6253652 105.704195,39.5861171 106.03056,39.5861171 C106.447012,39.5861171 106.812547,39.6354321 107.123612,39.7391217 C107.434676,39.8411087 107.699544,39.9531375 107.918818,40.0806228 C108.138096,40.2047094 108.319906,40.3203417 108.462693,40.42743 C108.607175,40.5345184 108.72138,40.5857365 108.80297,40.5857365 C108.887961,40.5857365 108.96108,40.5634949 109.027375,40.5175996 C109.093667,40.4717043 109.158284,40.4003524 109.221179,40.3017642 C109.28237,40.2031739 109.34495,40.0772721 109.412941,39.9259889 C109.479233,39.776404 109.554191,39.5895577 109.634083,39.3702818 C109.705476,39.1731033 109.761453,39.0066623 109.800549,38.8757761 C109.843045,38.7414911 109.868546,38.6323889 109.882151,38.5456997 C109.894058,38.4590083 109.897505,38.3878612 109.890716,38.3351662 C109.882214,38.2824733 109.855078,38.2161538 109.807484,38.1413635 C109.759888,38.0665711 109.63895,37.9712772 109.445172,37.8573892 C109.249694,37.7435032 109.018565,37.6415413 108.748295,37.5497528 C108.479723,37.4596626 108.179151,37.3882418 107.851087,37.3355489 C107.519623,37.2811535 107.181095,37.2555779 106.834331,37.2555779 L106.834333,37.2555779 Z M154.044481,37.2653753 C152.88521,37.2653753 151.770247,37.4437215 150.695965,37.8006812 C149.621684,38.157641 148.630716,38.6690759 147.717917,39.340501 C146.808517,40.0119282 145.994332,40.8261802 145.282111,41.7848761 C144.56989,42.7452682 143.995267,43.8266321 143.555015,45.0317985 C143.131761,46.1978692 142.921027,47.2432523 142.929539,48.1628483 C142.932944,49.0841469 143.142097,49.8660926 143.551752,50.5052218 C143.963107,51.1460493 144.571398,51.6337448 145.378809,51.9720081 C146.182821,52.3085708 147.173718,52.4767143 148.348289,52.4767143 C148.751144,52.4767143 149.157693,52.4582058 149.569048,52.4208169 C149.980399,52.3817213 150.394911,52.3254687 150.813061,52.2506763 C151.232917,52.1741855 151.641165,52.083993 152.04402,51.9769047 C152.446878,51.8698163 152.7884,51.7698953 153.070567,51.6713071 C153.352736,51.5710185 153.565094,51.4365434 153.707877,51.2665636 C153.847261,51.0965818 153.96126,50.8978303 154.04285,50.6700563 L156.174282,44.8159631 C156.228676,44.6629795 156.259424,44.5285065 156.26282,44.4112196 C156.267917,44.2939328 156.251059,44.1938092 156.208554,44.1105187 C156.166058,44.0272282 156.106473,43.9640381 156.026584,43.9232421 C155.946692,43.8807476 155.846159,43.8587776 155.725473,43.8587776 L150.757166,43.8587776 C150.689173,43.8587776 150.621153,43.8807476 150.553161,43.9232421 C150.48517,43.9640381 150.417286,44.0286571 150.345894,44.1170468 C150.277902,44.2037361 150.206347,44.317668 150.134953,44.463852 C150.063562,44.6066371 149.988673,44.785117 149.912181,44.9958949 C149.762598,45.407248 149.694574,45.6961941 149.708177,45.8661738 C149.723469,46.0378561 149.79823,46.1228115 149.934213,46.1228115 L152.720497,46.1228115 L151.477705,49.5329391 C151.142843,49.6842223 150.797784,49.7979494 150.444223,49.8744402 C150.092361,49.9492326 149.747576,49.988276 149.414412,49.988276 C148.73109,49.988276 148.147691,49.8778808 147.663244,49.6586049 C147.178797,49.4376285 146.813671,49.1128393 146.570599,48.6793867 C146.325827,48.249335 146.208371,47.7121907 146.216857,47.0730615 C146.227051,46.4322319 146.384996,45.6895344 146.690961,44.8498279 C146.969734,44.0832134 147.335196,43.3845916 147.785647,42.7522601 C148.234397,42.1199306 148.746101,41.577685 149.318938,41.1255337 C149.893474,40.675085 150.514011,40.3266923 151.178636,40.0802197 C151.844964,39.8354475 152.533381,39.7113798 153.245604,39.7113798 C153.911928,39.7113798 154.472676,39.7793997 154.928226,39.9153851 C155.380375,40.0513685 155.76135,40.2008071 156.069016,40.3588879 C156.37328,40.5186712 156.611418,40.6664073 156.781398,40.8023928 C156.951379,40.9383783 157.085445,41.0063961 157.185732,41.0063961 C157.252026,41.0063961 157.318277,40.9878875 157.381168,40.9504986 C157.445762,40.911403 157.510583,40.8448809 157.580277,40.751392 C157.648269,40.6562026 157.719621,40.5288718 157.796112,40.3690885 C157.874303,40.2110056 157.952457,40.0221183 158.032349,39.801142 C158.170034,39.4220848 158.251733,39.13688 158.27552,38.9431024 C158.302717,38.7510232 158.282101,38.6013819 158.219216,38.4942936 C158.154624,38.3872052 158.020489,38.2630038 157.816513,38.1185182 C157.610837,37.9757351 157.333725,37.8399022 156.988664,37.7158156 C156.645303,37.5900287 156.226921,37.4846679 155.735674,37.3979787 C155.244429,37.3095869 154.680212,37.2653753 154.044481,37.2653753 Z M61.107293,37.4469385 C60.7197357,37.4469385 60.4156255,37.4571328 60.1929487,37.4775382 C59.970274,37.4962347 59.7968934,37.5472502 59.6711064,37.6305427 C59.5453236,37.7138332 59.4588014,37.8327975 59.4112057,37.9891799 C59.3619116,38.143864 59.3227324,38.3581222 59.2904365,38.6317915 L57.9611481,51.4652629 C57.9390611,51.648842 57.9441436,51.793384 57.9713424,51.9038712 C58.0002395,52.0126579 58.0799578,52.0957771 58.210844,52.1535713 C58.3417302,52.2096651 58.5340184,52.2487085 58.7889911,52.267405 C59.0439597,52.2861016 59.3908588,52.2947417 59.8294107,52.2947417 C60.2475614,52.2947417 60.5856868,52.2860932 60.8457567,52.267405 C61.1058286,52.2487085 61.323283,52.2082362 61.4932648,52.1470432 C61.6615462,52.0875506 61.8010495,52.0025262 61.9098404,51.8920391 C62.0169267,51.7832503 62.1224232,51.640344 62.2244144,51.4652629 L67.845534,42.1435133 L67.8675667,42.1435133 L66.8291881,51.4652629 C66.8002889,51.648842 66.8002889,51.793384 66.8291881,51.9038712 C66.8563848,52.0126579 66.9361699,52.0957771 67.0670561,52.1535713 C67.1979402,52.2096651 67.3898252,52.2487085 67.6447938,52.267405 C67.8997665,52.2861016 68.2432627,52.2947417 68.6750128,52.2947417 C69.0608738,52.2947417 69.3836889,52.2860932 69.64036,52.267405 C69.8970332,52.2487085 70.1163216,52.2096651 70.2948036,52.1535713 C70.4749818,52.0957771 70.6263256,52.0126579 70.7436125,51.9038712 C70.8642981,51.793384 70.981564,51.648842 71.0920512,51.4652629 L79.1273515,38.6656562 C79.2973333,38.3851893 79.4178623,38.1624958 79.4892538,38.001012 C79.5589366,37.8361315 79.5672466,37.7138332 79.5145516,37.6305427 C79.4601582,37.5472522 79.3466337,37.4962389 79.1681517,37.4775382 C78.9879735,37.4571496 78.7313379,37.4469385 78.3998744,37.4469385 C78.0429146,37.4469385 77.7621323,37.4571328 77.5581541,37.4775382 C77.3541759,37.4962347 77.1893685,37.5302457 77.065282,37.5795419 C76.9428938,37.628836 76.8444038,37.6968538 76.7764132,37.7835452 C76.70672,37.8719349 76.6370686,37.9753925 76.5707763,38.0960782 L69.9022995,49.3285264 L69.880269,49.3285264 L71.1773241,38.1405509 C71.2011136,37.9909681 71.2041803,37.8683982 71.1854921,37.7766097 C71.1650826,37.6882179 71.1058511,37.6170039 71.0055625,37.5677098 C70.9052738,37.5184136 70.7520228,37.4859025 70.5412491,37.4706027 C70.3287707,37.4553112 70.0432965,37.4469385 69.6795371,37.4469385 C69.337875,37.4469385 69.0608341,37.4571328 68.8500583,37.4775382 C68.63758,37.4962347 68.4641346,37.5302457 68.3298475,37.5795419 C68.193862,37.628836 68.0850336,37.6983516 68.0034414,37.7884418 C67.920151,37.8802303 67.8386633,37.9994662 67.7553728,38.1405509 L61.0020326,49.3285264 L60.9902088,49.3285264 L62.5100369,38.0622134 C62.5406324,37.9177299 62.5504381,37.80713 62.5402292,37.7272404 C62.531727,37.6473487 62.4826856,37.5864711 62.3908971,37.5456771 C62.2991065,37.5031806 62.1529999,37.4776071 61.9490258,37.4657061 C61.7433472,37.4538197 61.4642674,37.4469469 61.1073056,37.4469469 L61.107293,37.4469385 Z M96.5843684,37.4477741 C96.2953993,37.4477741 96.0520288,37.4595352 95.8548503,37.4816389 C95.6576718,37.5054347 95.4928624,37.5360427 95.3619761,37.5734399 C95.2310941,37.6108351 95.1294037,37.6603527 95.0580122,37.7215458 C94.9866207,37.7827388 94.9371699,37.8507587 94.9082728,37.9255511 L89.8530587,51.8178003 C89.825862,51.894291 89.8241637,51.9626514 89.8530587,52.0238445 C89.8785549,52.0833371 89.9412709,52.1325142 90.0415595,52.1699114 C90.1435486,52.2090071 90.2846855,52.2396151 90.4699672,52.2617125 C90.6535442,52.2838099 90.891406,52.2955773 91.1786747,52.2955773 C91.4744414,52.2955773 91.7211479,52.2838162 91.9200248,52.2617125 C92.1172033,52.2396151 92.2801765,52.2090071 92.4059614,52.1699114 C92.5351493,52.1325142 92.6339777,52.0833371 92.7070718,52.0238445 C92.7767629,51.9626514 92.8259421,51.894291 92.8531388,51.8178003 L97.9099843,37.9255511 C97.9390089,37.8507587 97.9388125,37.7827388 97.9116555,37.7215458 C97.8844568,37.6603527 97.8201825,37.6108351 97.7198917,37.5734399 C97.6213056,37.5360448 97.4802313,37.5054347 97.3000531,37.4816389 C97.1181723,37.4595415 96.8784744,37.4477741 96.5844081,37.4477741 L96.5843684,37.4477741 Z M5.63376854,37.4481919 C5.33799974,37.4481919 5.0917047,37.4603708 4.89282784,37.482464 C4.69564933,37.5062619 4.53043042,37.5368699 4.39954629,37.5742651 C4.26866007,37.6116623 4.16840276,37.6607726 4.10210838,37.7219657 C4.03411565,37.7814583 3.98657004,37.8494781 3.95767292,37.9259689 L0.702588776,46.8735747 C0.36092885,47.8135698 0.196111026,48.63313 0.209716675,49.3334522 C0.225008146,50.0354749 0.39819241,50.61996 0.736453535,51.0891094 C1.07301839,51.5599572 1.56771837,51.9101862 2.21874439,52.1413611 C2.86807414,52.3725339 3.65681949,52.4881662 4.58151689,52.4881662 C5.56740941,52.4881662 6.48518803,52.3588635 7.33679136,52.1021924 C8.18839886,51.8438208 8.96197808,51.4702598 9.65549852,50.9773146 C10.3507236,50.4860698 10.9610559,49.8825393 11.4845966,49.1686177 C12.0098398,48.4563965 12.4364531,47.6505089 12.7645178,46.7479089 L15.9755366,37.9259689 C16.004417,37.8494781 16.0042206,37.7814583 15.9804248,37.7219657 C15.9583274,37.6607705 15.8971093,37.6116623 15.7968206,37.5742651 C15.6965299,37.5368699 15.5591343,37.5062598 15.3806524,37.482464 C15.203875,37.4603666 14.9707052,37.4481919 14.6817361,37.4481919 C14.3944674,37.4481919 14.1500086,37.4603708 13.9477309,37.482464 C13.7471535,37.5062619 13.5836351,37.5368699 13.4544493,37.5742651 C13.3269661,37.6116623 13.2303081,37.6607726 13.1623154,37.7219657 C13.0943226,37.7814583 13.0484127,37.8494781 13.0195135,37.9259689 L9.79666261,46.782181 C9.6096826,47.2972236 9.36984883,47.7578479 9.08428061,48.1641017 C8.7953115,48.5703577 8.47229171,48.9099767 8.11363151,49.1853464 C7.75496922,49.4624145 7.36433899,49.6715734 6.93938441,49.8177573 C6.51783282,49.9605404 6.07067428,50.0335927 5.60152693,50.0335927 C5.13747675,50.0335927 4.74460293,49.964146 4.41993701,49.8230613 C4.09697362,49.6819766 3.85217221,49.4727508 3.68389292,49.1922819 C3.51730989,48.9118129 3.43942157,48.5582498 3.45132886,48.1281981 C3.46323616,47.7015452 3.57545717,47.1951447 3.78793341,46.6104089 L6.94958499,37.9259689 C6.97678167,37.8494781 6.97678167,37.7814583 6.94958499,37.7219657 C6.92238832,37.6607705 6.85933189,37.6116623 6.75904533,37.5742651 C6.65875459,37.5368699 6.51775553,37.5062598 6.33757311,37.482464 C6.15569444,37.4603666 5.92102885,37.4481919 5.63376019,37.4481919 L5.63376854,37.4481919 Z M115.930047,37.4486097 C115.63428,37.4486097 115.387983,37.4603708 115.189104,37.4824745 C114.991928,37.5045719 114.827118,37.5352489 114.696232,37.572644 C114.565346,37.6117396 114.464746,37.6612573 114.396755,37.720752 C114.32876,37.781945 114.282848,37.8498959 114.253951,37.9263867 L110.998867,46.872361 C110.657203,47.8123561 110.492325,48.6335478 110.507627,49.33387 C110.519534,50.0358927 110.694536,50.6203799 111.0311,51.0895272 C111.369362,51.560375 111.862704,51.910604 112.515432,52.1417789 C113.164758,52.3729538 113.953098,52.4885861 114.877795,52.4885861 C115.861985,52.4885861 116.780171,52.3592813 117.633479,52.1026102 C118.485083,51.8442386 119.256554,51.4702702 119.951777,50.977325 C120.646998,50.4843798 121.255634,49.8829571 121.780875,49.1690355 C122.306118,48.4568143 122.731031,47.6492262 123.060796,46.7483267 L126.271815,37.9263867 C126.300695,37.8498959 126.300499,37.781945 126.276703,37.720752 C126.252903,37.6612573 126.193797,37.6117396 126.093506,37.572644 C125.99322,37.5352489 125.855411,37.5045719 125.676931,37.4824745 C125.500149,37.4603791 125.265691,37.4486097 124.978422,37.4486097 C124.691153,37.4486097 124.446287,37.4603708 124.244009,37.4824745 C124.043432,37.5045719 123.880321,37.5352489 123.751135,37.572644 C123.62365,37.6117396 123.524886,37.6612573 123.458594,37.720752 C123.390603,37.781945 123.344687,37.8498959 123.315792,37.9263867 L120.092939,46.7821914 C119.904261,47.2972341 119.666127,47.7578583 119.380559,48.1641122 C119.09159,48.5703681 118.768978,48.908694 118.410317,49.1857642 C118.051657,49.4628323 117.660615,49.6720601 117.235663,49.8165436 C116.812409,49.9610271 116.363621,50.0340126 115.896174,50.0340126 C115.433826,50.0340126 115.041287,49.9628655 114.716625,49.8234791 C114.393659,49.6823965 114.147229,49.4731686 113.978947,49.1926997 C113.812364,48.9122307 113.734002,48.5569693 113.747605,48.1286159 C113.7578,47.701963 113.871738,47.1955625 114.084212,46.6108288 L117.24423,37.9263867 C117.273129,37.8498959 117.271431,37.781945 117.24423,37.720752 C117.218734,37.6612573 117.153914,37.6117396 117.055324,37.572644 C116.955035,37.5352489 116.81403,37.5045719 116.633852,37.4824745 C116.451971,37.4603791 116.217307,37.4486097 115.930039,37.4486097 L115.930047,37.4486097 Z M141.492538,37.4706424 C141.218869,37.4706424 140.992703,37.4809203 140.809124,37.4996105 C140.628944,37.5183071 140.477876,37.550415 140.353787,37.5963082 C140.231401,37.6422035 140.136109,37.695122 140.069815,37.7546167 C140.001824,37.8158098 139.954208,37.8837607 139.927013,37.9602515 L137.412869,44.8612923 C137.224191,45.384833 137.030746,45.9338825 136.831867,46.5084177 C136.632988,47.0846555 136.447706,47.6386684 136.279425,48.1690088 L136.267183,48.1690088 C136.239989,47.8647419 136.213118,47.5625348 136.177423,47.2599684 C136.143427,46.9557016 136.109144,46.6478479 136.071749,46.3333826 C136.034354,46.0172189 135.990412,45.7045355 135.942818,45.3900701 C135.893524,45.0739044 135.845978,44.7543523 135.798383,44.427988 L134.890566,39.0512645 C134.854872,38.7554957 134.80372,38.507636 134.740827,38.3070587 C134.676233,38.1064814 134.58781,37.9501052 134.475622,37.8362172 C134.360036,37.7223291 134.213865,37.6386668 134.035383,37.5893727 C133.856905,37.5400765 133.622511,37.5163392 133.335242,37.5163392 L131.73218,37.5163392 C131.429611,37.5163392 131.140876,37.606396 130.867205,37.7831754 C130.593536,37.9616574 130.392944,38.2287672 130.26376,38.585727 L125.451311,51.8068038 C125.42243,51.8815962 125.417306,51.9512476 125.430901,52.0124406 C125.449598,52.0719332 125.499048,52.1230155 125.580641,52.1638116 C125.665631,52.206306 125.789833,52.2387523 125.956414,52.2625481 C126.122997,52.2846455 126.337121,52.2964129 126.60229,52.2964129 C126.874259,52.2964129 127.102056,52.2846518 127.287336,52.2625481 C127.469214,52.2387523 127.618856,52.206306 127.736143,52.1638116 C127.853429,52.1230155 127.943217,52.0719332 128.009509,52.0124406 C128.0707,51.9512476 128.116952,51.8815962 128.144151,51.8068038 L130.947163,44.1101489 C131.156241,43.5339133 131.353288,42.9745943 131.53347,42.4340554 C131.717049,41.891814 131.891926,41.3476633 132.060207,40.8020251 L132.08224,40.8020251 C132.092434,41.249075 132.123182,41.7101066 132.170778,42.1843532 C132.216673,42.6569014 132.272719,43.098685 132.335612,43.5083397 L133.493131,50.3857143 C133.545826,50.7647715 133.603639,51.0743256 133.666534,51.3123002 C133.732825,51.5502726 133.821252,51.740453 133.931739,51.8798373 C134.045625,52.020922 134.186768,52.1180541 134.360147,52.170747 C134.535228,52.2251425 134.754654,52.2503087 135.021526,52.2503087 L136.292878,52.2503087 C136.437361,52.2503087 136.586936,52.2299618 136.743318,52.1874757 C136.898,52.1466797 137.04431,52.0788666 137.180295,51.9887765 C137.314578,51.8969858 137.437012,51.7831918 137.547501,51.6489047 C137.657988,51.5112209 137.744511,51.3564094 137.807402,51.1813283 L142.621076,37.9602515 C142.648285,37.8837607 142.655212,37.8158098 142.638205,37.7546167 C142.622914,37.695122 142.575226,37.6422035 142.497035,37.5963082 C142.418844,37.550415 142.296479,37.5183113 142.128197,37.4996105 C141.961614,37.480914 141.74919,37.4706424 141.492521,37.4706424 L141.492538,37.4706424 Z M35.3518169,37.5163392 C35.100243,37.5163392 34.863879,37.5895963 34.6378034,37.7374807 C34.4134282,37.8870634 34.2420196,38.1264898 34.1196335,38.4596538 L29.4520269,51.2829226 C29.3313475,51.617787 29.3294361,51.8576208 29.4467209,52.0055052 C29.5640077,52.1533875 29.7477289,52.228276 29.9958998,52.228276 L37.3849162,52.228276 C37.4546072,52.228276 37.5243965,52.2058986 37.5974885,52.1634042 C37.6671817,52.1226082 37.7403677,52.0581249 37.8100587,51.9663364 C37.8831507,51.8745458 37.9527374,51.7555815 38.0275271,51.6076971 C38.0989186,51.4598127 38.1753049,51.2761626 38.2551945,51.0568866 C38.3350862,50.8376107 38.3912029,50.6522601 38.4285981,50.5060762 C38.462584,50.3581938 38.4777564,50.2375959 38.4726635,50.1458053 C38.4692584,50.0557152 38.443689,49.9896025 38.4028951,49.947106 C38.362099,49.9080104 38.3060533,49.8859046 38.2380584,49.8859046 L32.941714,49.8859046 L34.4509341,45.7364679 L38.8961745,45.7364679 C38.9641673,45.7364679 39.0336829,45.7180429 39.1050744,45.678939 C39.1747676,45.6415438 39.2446885,45.5783537 39.3143837,45.4916644 C39.3840748,45.4049731 39.455224,45.2897501 39.5249151,45.1452645 C39.5980071,45.000781 39.672693,44.8186266 39.7525826,44.5993507 C39.8307738,44.3868744 39.8870953,44.2066252 39.9210895,44.0587408 C39.9567968,43.9125568 39.9703126,43.7954288 39.9635234,43.707039 C39.9584262,43.6203477 39.9346179,43.5540303 39.8921214,43.5132343 C39.849627,43.4724382 39.796978,43.4504014 39.7272869,43.4504014 L35.2840853,43.4504014 L36.5893022,39.8587106 L41.8419908,39.8587106 C41.9116839,39.8587106 41.9796349,39.8383637 42.0476255,39.7958777 C42.1156203,39.7533833 42.1851339,39.6885595 42.2565254,39.596771 C42.3279169,39.5066809 42.3976352,39.3860161 42.4707292,39.2381317 C42.5438212,39.0919478 42.618574,38.9116985 42.6967652,38.6975218 C42.7800577,38.4714462 42.837735,38.284462 42.8734339,38.1348792 C42.9074219,37.9886953 42.9245642,37.8665327 42.9211696,37.7713433 C42.9160725,37.6778544 42.8958677,37.6116728 42.8550737,37.5742755 C42.8176764,37.5368825 42.7631264,37.5163392 42.6951337,37.5163392 L35.3518148,37.5163392 L35.3518169,37.5163392 Z M47.6879243,37.5163392 C47.4380508,37.5163392 47.2003248,37.5895963 46.9759517,37.7374807 C46.7515745,37.8870634 46.5780601,38.1264898 46.4573745,38.4596538 L41.5959631,51.8186359 C41.5687811,51.8951287 41.5652381,51.9631465 41.5890276,52.0226412 C41.6128255,52.0838343 41.6739057,52.1329445 41.7758948,52.1703397 C41.874483,52.2077349 42.0173914,52.2400454 42.202671,52.2621407 C42.3862501,52.2842382 42.6224114,52.2960055 42.9113806,52.2960055 C43.2054489,52.2960055 43.4539186,52.2842444 43.6510971,52.2621407 C43.8499761,52.2400433 44.0128804,52.2077349 44.1386673,52.1703397 C44.2661506,52.1329445 44.3663452,52.0838343 44.4377368,52.0226412 C44.5074278,51.9631465 44.5586459,51.8951287 44.5858426,51.8186359 L46.625472,46.2126134 L47.5589934,46.2126134 C47.8751592,46.2126134 48.1382581,46.2616547 48.345633,46.3619434 C48.5513096,46.4605316 48.7131276,46.6051404 48.828714,46.7989201 C48.9443004,46.9926978 49.0238829,47.2325336 49.0714786,47.5215006 C49.1190744,47.8087693 49.1532734,48.1382525 49.1787842,48.510512 L49.301187,51.7945643 C49.2977819,51.8863549 49.3077256,51.9646443 49.3281142,52.0275357 C49.3519121,52.0921297 49.4100029,52.1466797 49.5051903,52.1874757 C49.5986813,52.2299702 49.7377794,52.2570415 49.9213585,52.2723413 C50.106636,52.2876328 50.3566077,52.2960055 50.6761723,52.2960055 C51.0552315,52.2960055 51.3579818,52.2876495 51.5823569,52.2723413 C51.8084326,52.2570499 51.98324,52.231399 52.1107274,52.1940039 C52.2399132,52.1549083 52.3286079,52.1072958 52.3796045,52.051202 C52.430597,51.9951082 52.4714097,51.923959 52.5020052,51.8406685 C52.529204,51.7658782 52.5476937,51.6603127 52.5579026,51.5277282 C52.568097,51.3951415 52.5696637,51.1846247 52.5611615,50.8973561 L52.3759258,47.9988703 C52.3589213,47.6504086 52.3249187,47.3379299 52.2739242,47.0608597 C52.224628,46.7854921 52.1515067,46.5370182 52.0597203,46.3211432 C51.9679297,46.105266 51.8543383,45.9220232 51.714952,45.77074 C51.5772702,45.6177585 51.4191247,45.4901541 51.2355435,45.3847662 C51.7437864,45.2402806 52.2179473,45.0497618 52.659898,44.815186 C53.1018466,44.5806124 53.5011859,44.3036404 53.8598481,43.9840758 C54.2185083,43.6662116 54.5331659,43.3058468 54.8068352,42.8995909 C55.078804,42.4950354 55.3047605,42.0461116 55.484943,41.5531664 C55.6974192,40.9684306 55.797829,40.4520322 55.7893163,39.9998809 C55.7774299,39.5494322 55.667089,39.1598883 55.4580137,38.8301231 C55.2489362,38.50036 54.9444166,38.2335907 54.543262,38.0296125 C54.1455062,37.823936 53.6660413,37.6795987 53.1034029,37.5963082 C52.9079248,37.5742108 52.6889038,37.5553033 52.4424312,37.5400034 C52.1976569,37.524712 51.8829325,37.5163392 51.4970777,37.5163392 L47.687918,37.5163392 L47.6879243,37.5163392 Z M83.6068709,37.5163392 C83.3569974,37.5163392 83.1188662,37.5895963 82.8944889,37.7374807 C82.6701158,37.8870634 82.4965994,38.1264898 82.3759117,38.4596538 L77.7083051,51.2829226 C77.5876069,51.617787 77.5841496,51.8576208 77.6997402,52.0055052 C77.8187254,52.1533875 78.0023108,52.228276 78.2521822,52.228276 L85.6411985,52.228276 C85.7108896,52.228276 85.7807478,52.2058986 85.8521393,52.1634042 C85.9252334,52.1226082 85.9950185,52.0581249 86.0647117,51.9663364 C86.139502,51.8745458 86.210787,51.7555815 86.2821785,51.6076971 C86.3552705,51.4598127 86.4315879,51.2761626 86.5114796,51.0568866 L86.5118974,51.0568866 C86.591789,50.8376107 86.6491968,50.6522601 86.6848936,50.5060762 C86.7171791,50.3581938 86.734522,50.2375959 86.7277327,50.1458053 C86.7243277,50.0557152 86.7004588,49.9896025 86.6579643,49.947106 C86.6171683,49.9080104 86.5611225,49.8859046 86.4931298,49.8859046 L81.1963753,49.8859046 L82.7060027,45.7364679 L87.1508364,45.7364679 C87.2205296,45.7364679 87.2883448,45.7180429 87.3597363,45.678939 C87.4311279,45.6415438 87.500984,45.5783537 87.5706771,45.4916644 C87.6403682,45.4049731 87.7102264,45.2897501 87.781618,45.1452645 C87.8530095,45.000781 87.9293937,44.8186266 88.0092854,44.5993507 C88.0857762,44.3868744 88.1417572,44.2066252 88.1757515,44.0587408 C88.2114608,43.9125568 88.226606,43.7954288 88.2198168,43.707039 C88.2147196,43.6203477 88.1896203,43.5540303 88.1488243,43.5132343 C88.1063278,43.4724382 88.0515751,43.4504014 87.9835803,43.4504014 L83.5387466,43.4504014 L84.8460023,39.8587106 L90.0966527,39.8587106 C90.1646454,39.8587106 90.2342279,39.8383637 90.303919,39.7958777 C90.3702133,39.7533833 90.4414962,39.6885595 90.5111873,39.596771 C90.5825789,39.5066809 90.655698,39.3860161 90.7253912,39.2381317 C90.8001836,39.0919478 90.8752768,38.9116985 90.9534681,38.6975218 C91.0367585,38.4714462 91.0928043,38.284462 91.1285032,38.1348792 C91.1641874,37.9886953 91.1792261,37.8665327 91.1758315,37.7713433 C91.1724265,37.6778544 91.1504627,37.6116728 91.1113671,37.5742755 C91.0722715,37.5368825 91.0194867,37.5163392 90.9497956,37.5163392 L83.6068835,37.5163392 L83.6068709,37.5163392 Z M21.243323,37.5171748 C20.9934495,37.5171748 20.7553162,37.5904298 20.530941,37.7383142 C20.3065679,37.8861986 20.1347498,38.125625 20.0123637,38.4604873 L15.3447571,51.2837582 C15.2240798,51.61692 15.2205348,51.8568228 15.3378216,52.0047072 C15.4551085,52.1525916 15.6387586,52.2274801 15.88863,52.2274801 L19.8001988,52.2274801 C20.3900359,52.2274801 20.9407837,52.1916329 21.4473262,52.1185409 C21.9555692,52.0471493 22.4482303,51.934851 22.9275782,51.7835678 C23.4069241,51.6322846 23.8660526,51.4387702 24.3046023,51.2041966 C24.7431542,50.9696229 25.1461012,50.6891811 25.520057,50.3645172 C25.8923166,50.038153 26.227039,49.6604453 26.5262045,49.2371911 C26.8253721,48.8122387 27.0702403,48.3400518 27.2606171,47.816509 C27.4424978,47.3167641 27.5309147,46.8643037 27.5258238,46.4631491 C27.5190137,46.0619924 27.44053,45.7121039 27.2875464,45.4129363 C27.1345648,45.1137708 26.9169705,44.8689025 26.6331027,44.6785237 C26.349237,44.4898433 26.0145794,44.3555081 25.6253238,44.2807157 C25.9941804,44.1600301 26.3426421,44.0001172 26.6690064,43.8029387 C26.9953685,43.6057602 27.2911185,43.3782369 27.5596886,43.1215658 C27.8265603,42.8631943 28.0627195,42.5775843 28.268396,42.2631189 C28.4740726,41.9486536 28.6405846,41.6139312 28.7714708,41.2569715 C29.004344,40.6212411 29.0911378,40.066754 29.035044,39.5976045 C28.9789502,39.1267567 28.7918302,38.7374865 28.4756644,38.4315192 C28.1595007,38.1238535 27.7158788,37.894494 27.1447445,37.7432108 C26.5753064,37.5919276 25.8395464,37.5171748 24.9386469,37.5171748 L21.243323,37.5171748 Z M22.4755064,39.755911 L23.9867654,39.755911 C24.449113,39.755911 24.8027429,39.7982884 25.0492176,39.8815789 C25.2956902,39.9648693 25.4807692,40.0838336 25.6065562,40.2402161 C25.7323411,40.3949002 25.7968995,40.5903176 25.8019904,40.8248913 C25.8070876,41.0611654 25.7577078,41.3247386 25.6506195,41.6205074 C25.5537296,41.887377 25.4195302,42.1372797 25.2495484,42.3769526 C25.0778661,42.6149272 24.8758516,42.8239482 24.6395775,43.0024281 C24.4050038,43.180908 24.1396634,43.3202797 23.845595,43.4222688 C23.5498283,43.5242558 23.1876293,43.5769028 22.7541746,43.5769028 L21.0850145,43.5769028 L22.4755064,39.755911 Z M48.9592764,39.8007931 L50.3003969,39.8007931 C50.6420589,39.8007931 50.9058347,39.8146014 51.0911163,39.8366967 C51.2763938,39.8587941 51.436102,39.8891306 51.5737879,39.9248274 C52.0242366,40.0642117 52.2993765,40.297041 52.3979647,40.6319033 C52.496555,40.9650673 52.455947,41.374745 52.2808659,41.8591901 C52.1635791,42.1770563 52.0073387,42.466272 51.8067614,42.7229431 C51.6078824,42.9813146 51.3662124,43.2039392 51.0874439,43.3892188 C50.8069749,43.5744983 50.4908906,43.717202 50.1339308,43.8208916 C49.7786694,43.9228807 49.3895328,43.973894 48.9645804,43.973894 L47.4414872,43.973894 L48.9592764,39.8007931 Z M20.2894005,45.7597435 L22.0626011,45.7597435 C22.6082413,45.7597435 23.0328805,45.8088517 23.3388499,45.907442 C23.6431146,46.0060302 23.874513,46.145402 24.0291992,46.3272827 C24.1804803,46.5091614 24.2652289,46.735189 24.2805308,47.003759 C24.2975353,47.272329 24.2434553,47.5768487 24.1193687,47.9185107 C24.0003815,48.2465754 23.8372014,48.5355194 23.6281261,48.7887917 C23.4156498,49.042064 23.175814,49.254486 22.9055456,49.4244678 C22.635273,49.596148 22.3412297,49.7236834 22.0250639,49.8120753 C21.7089002,49.900465 21.343503,49.9410041 20.928749,49.9410041 L18.7683482,49.9410041 L20.2894005,45.7597435 Z" id="path98" fill="#383A41"></path>
                    </g>
                </g>
            </g>
        </g>
    </g>
</svg>