<?xml version="1.0" encoding="UTF-8"?>
<svg width="225px" height="55px" viewBox="0 0 225 55" version="1.1" xmlns="http://www.w3.org/2000/svg" xmlns:xlink="http://www.w3.org/1999/xlink">
    <!-- Generator: Sketch 51.2 (57519) - http://www.bohemiancoding.com/sketch -->
    <title>logo-paypal</title>
    <desc>Created with Sketch.</desc>
    <defs></defs>
    <g id="Final" stroke="none" stroke-width="1" fill="none" fill-rule="evenodd">
        <g id="pays.de-0816" transform="translate(-739.000000, -3770.000000)" fill-rule="nonzero">
            <g id="Group-56" transform="translate(455.000000, 3674.000000)">
                <g id="Group-55" transform="translate(0.000000, 96.000000)">
                    <g id="logo-paypal" transform="translate(284.000000, 0.000000)">
                        <g id="PayPal">
                            <path d="M83.8506048,12.1917419 L71.441129,12.1917419 C70.5919355,12.1917419 69.8697581,12.8059355 69.7372984,13.6405161 L64.7183468,45.3202581 C64.6185484,45.9452903 65.1048387,46.5089032 65.7417339,46.5089032 L71.666129,46.5089032 C72.5153226,46.5089032 73.2375,45.8947097 73.3699597,45.0583226 L74.7235887,36.5138065 C74.8542339,35.6774194 75.5782258,35.0632258 76.4256048,35.0632258 L80.3540323,35.0632258 C88.5284274,35.0632258 93.2461694,31.1251613 94.4782258,23.3212903 C95.0334677,19.9070968 94.5018145,17.2245161 92.8959677,15.3458065 C91.1322581,13.2828387 88.0040323,12.1917419 83.8506048,12.1917419 Z M85.2822581,23.7620645 C84.603629,28.1950968 81.2014113,28.1950968 77.9116935,28.1950968 L76.0391129,28.1950968 L77.3528226,19.916129 C77.4308468,19.4157419 77.8663306,19.0472258 78.3743952,19.0472258 L79.2326613,19.0472258 C81.4735887,19.0472258 83.5875,19.0472258 84.6798387,20.3189677 C85.33125,21.0776774 85.5308468,22.2049032 85.2822581,23.7620645 Z" id="Shape" fill="#253B80"></path>
                            <path d="M120.944758,23.6193548 L115.002218,23.6193548 C114.495968,23.6193548 114.058669,23.987871 113.980645,24.4882581 L113.71754,26.1429677 L113.302016,25.5432258 C112.015524,23.6843871 109.146774,23.0629677 106.283468,23.0629677 C99.7167339,23.0629677 94.1080645,28.0144516 93.0157258,34.9602581 C92.4477823,38.4250323 93.2552419,41.7380645 95.2294355,44.0485161 C97.0403226,46.1729032 99.6314516,47.0580645 102.714315,47.0580645 C108.005444,47.0580645 110.939516,43.6709677 110.939516,43.6709677 L110.674597,45.3148387 C110.574798,45.9434839 111.061089,46.5070968 111.694355,46.5070968 L117.047177,46.5070968 C117.898185,46.5070968 118.616734,45.8929032 118.751008,45.0565161 L121.962702,24.808 C122.064315,24.1847742 121.579839,23.6193548 120.944758,23.6193548 Z M112.661492,35.1336774 C112.088105,38.5135484 109.393548,40.7824516 105.956855,40.7824516 C104.23125,40.7824516 102.852218,40.2314839 101.966734,39.1873548 C101.088508,38.1504516 100.754637,36.6745806 101.034073,35.0307097 C101.569355,31.6797419 104.309274,29.3367742 107.693347,29.3367742 C109.380847,29.3367742 110.752621,29.8949677 111.65625,30.948129 C112.561694,32.012129 112.920968,33.4970323 112.661492,35.1336774 Z" id="Shape" fill="#253B80"></path>
                            <path d="M152.593548,23.6193548 L146.621976,23.6193548 C146.052218,23.6193548 145.516935,23.9011613 145.193952,24.3726452 L136.957863,36.4505806 L133.466734,24.844129 C133.247177,24.1179355 132.573992,23.6193548 131.811895,23.6193548 L125.94375,23.6193548 C125.230645,23.6193548 124.735282,24.3130323 124.962097,24.9814194 L131.539718,44.1984516 L125.355847,52.8892903 C124.869556,53.5739355 125.359476,54.5150968 126.199597,54.5150968 L132.163911,54.5150968 C132.73004,54.5150968 133.259879,54.2405161 133.581048,53.7780645 L153.442742,25.236129 C153.918145,24.5532903 153.43004,23.6193548 152.593548,23.6193548 Z" id="Shape" fill="#253B80"></path>
                            <path d="M172.364516,12.1917419 L159.953226,12.1917419 C159.105847,12.1917419 158.383669,12.8059355 158.25121,13.6405161 L153.232258,45.3202581 C153.13246,45.9452903 153.61875,46.5089032 154.252016,46.5089032 L160.620968,46.5089032 C161.2125,46.5089032 161.71875,46.0789677 161.81129,45.4936774 L163.235685,36.5138065 C163.366331,35.6774194 164.090323,35.0632258 164.937702,35.0632258 L168.864315,35.0632258 C177.040524,35.0632258 181.756452,31.1251613 182.990323,23.3212903 C183.547379,19.9070968 183.012097,17.2245161 181.40625,15.3458065 C179.644355,13.2828387 176.517944,12.1917419 172.364516,12.1917419 Z M173.796169,23.7620645 C173.119355,28.1950968 169.717137,28.1950968 166.425605,28.1950968 L164.554839,28.1950968 L165.870363,19.916129 C165.948387,19.4157419 166.380242,19.0472258 166.890121,19.0472258 L167.748387,19.0472258 C169.9875,19.0472258 172.103226,19.0472258 173.195565,20.3189677 C173.846976,21.0776774 174.044758,22.2049032 173.796169,23.7620645 Z" id="Shape" fill="#179BD7"></path>
                            <path d="M209.456855,23.6193548 L203.517944,23.6193548 C203.008065,23.6193548 202.574395,23.987871 202.498185,24.4882581 L202.235081,26.1429677 L201.817742,25.5432258 C200.53125,23.6843871 197.664315,23.0629677 194.801008,23.0629677 C188.234274,23.0629677 182.627419,28.0144516 181.535081,34.9602581 C180.968952,38.4250323 181.772782,41.7380645 183.746976,44.0485161 C185.561492,46.1729032 188.148992,47.0580645 191.231855,47.0580645 C196.522984,47.0580645 199.457056,43.6709677 199.457056,43.6709677 L199.192137,45.3148387 C199.092339,45.9434839 199.578629,46.5070968 200.215524,46.5070968 L205.566532,46.5070968 C206.413911,46.5070968 207.136089,45.8929032 207.268548,45.0565161 L210.482056,24.808 C210.58004,24.1847742 210.09375,23.6193548 209.456855,23.6193548 Z M201.173589,35.1336774 C200.603831,38.5135484 197.905645,40.7824516 194.468952,40.7824516 C192.746976,40.7824516 191.364315,40.2314839 190.478831,39.1873548 C189.600605,38.1504516 189.270363,36.6745806 189.546169,35.0307097 C190.085081,31.6797419 192.821371,29.3367742 196.205444,29.3367742 C197.892944,29.3367742 199.264718,29.8949677 200.168347,30.948129 C201.077419,32.012129 201.436694,33.4970323 201.173589,35.1336774 Z" id="Shape" fill="#179BD7"></path>
                            <path d="M216.462702,13.0606452 L211.369355,45.3202581 C211.269556,45.9452903 211.755847,46.5089032 212.389113,46.5089032 L217.509677,46.5089032 C218.360685,46.5089032 219.082863,45.8947097 219.213508,45.0583226 L224.236089,13.3803871 C224.335887,12.7553548 223.849597,12.1899355 223.216331,12.1899355 L217.48246,12.1899355 C216.97621,12.1917419 216.540726,12.5602581 216.462702,13.0606452 Z" id="Shape" fill="#179BD7"></path>
                            <path d="M13.1842742,52.6652903 L14.1332661,46.6642581 L12.0193548,46.6154839 L1.92520161,46.6154839 L8.94012097,2.33393548 C8.96189516,2.20025806 9.03266129,2.0756129 9.13608871,1.98709677 C9.23951613,1.89858065 9.37197581,1.84980645 9.50987903,1.84980645 L26.5300403,1.84980645 C32.1804435,1.84980645 36.0798387,3.0203871 38.1157258,5.33083871 C39.0701613,6.41470968 39.6780242,7.54735484 39.9719758,8.79380645 C40.2804435,10.1016774 40.2858871,11.6642581 39.9846774,13.5700645 L39.9629032,13.7091613 L39.9629032,14.9303226 L40.9173387,15.4686452 C41.7211694,15.8931613 42.359879,16.3790968 42.8497984,16.9354839 C43.6663306,17.8621935 44.1943548,19.04 44.4175403,20.4363871 C44.6479839,21.8725161 44.5717742,23.5814194 44.1943548,25.516129 C43.758871,27.7416774 43.0548387,29.68 42.1040323,31.2660645 C41.2294355,32.7274839 40.1153226,33.9396129 38.7925403,34.8789677 C37.5296371,35.7713548 36.0290323,36.4487742 34.3324597,36.8823226 C32.6885081,37.3086452 30.8141129,37.5236129 28.7582661,37.5236129 L27.4336694,37.5236129 C26.4864919,37.5236129 25.5665323,37.8632258 24.8443548,38.472 C24.1203629,39.0934194 23.6413306,39.9424516 23.4943548,40.8709677 L23.3945565,41.4110968 L21.7179435,51.987871 L21.6417339,52.3762581 C21.6217742,52.4990968 21.5872984,52.5605161 21.5364919,52.6020645 C21.491129,52.64 21.4258065,52.6652903 21.3622984,52.6652903 L13.1842742,52.6652903 Z" id="Shape" fill="#253B80"></path>
                            <path d="M41.8209677,13.8500645 C41.7701613,14.1734194 41.7120968,14.504 41.6467742,14.8436129 C39.4022177,26.3163871 31.7231855,30.2797419 21.9157258,30.2797419 L16.9221774,30.2797419 C15.7227823,30.2797419 14.7120968,31.1468387 14.5252016,32.3246452 L11.9685484,48.4670968 L11.2445565,53.0428387 C11.1229839,53.816 11.7217742,54.5132903 12.5056452,54.5132903 L21.3622984,54.5132903 C22.4110887,54.5132903 23.3020161,53.7545806 23.4671371,52.7249032 L23.5542339,52.2769032 L25.2217742,41.7416774 L25.3288306,41.1636129 C25.4921371,40.1303226 26.384879,39.3716129 27.4336694,39.3716129 L28.7582661,39.3716129 C37.3391129,39.3716129 44.0564516,35.9032258 46.0197581,25.8665806 C46.8399194,21.6738065 46.4153226,18.1729032 44.2451613,15.7107097 C43.5883065,14.9682581 42.7735887,14.3522581 41.8209677,13.8500645 Z" id="Shape" fill="#179BD7"></path>
                            <path d="M39.4729839,12.9179355 C39.1300403,12.8185806 38.7762097,12.7282581 38.4133065,12.6469677 C38.0485887,12.5674839 37.6747984,12.4970323 37.290121,12.4356129 C35.94375,12.2188387 34.4685484,12.115871 32.8881048,12.115871 L19.5477823,12.115871 C19.2193548,12.115871 18.9072581,12.1899355 18.6278226,12.3236129 C18.0127016,12.6180645 17.5554435,13.1979355 17.4447581,13.907871 L14.6068548,31.8025806 L14.5252016,32.3246452 C14.7120968,31.1468387 15.7227823,30.2797419 16.9221774,30.2797419 L21.9157258,30.2797419 C31.7231855,30.2797419 39.4022177,26.3145806 41.6467742,14.8436129 C41.7139113,14.504 41.7701613,14.1734194 41.8209677,13.8500645 C41.2530242,13.5501935 40.6379032,13.2936774 39.9756048,13.0750968 C39.8122984,13.0209032 39.6435484,12.9685161 39.4729839,12.9179355 Z" id="Shape" fill="#222D65"></path>
                            <path d="M17.4447581,13.907871 C17.5554435,13.1979355 18.0127016,12.6180645 18.6278226,12.3254194 C18.9090726,12.1917419 19.2193548,12.1176774 19.5477823,12.1176774 L32.8881048,12.1176774 C34.4685484,12.1176774 35.94375,12.2206452 37.290121,12.4374194 C37.6747984,12.4988387 38.0485887,12.5692903 38.4133065,12.6487742 C38.7762097,12.7300645 39.1300403,12.8203871 39.4729839,12.9197419 C39.6435484,12.9703226 39.8122984,13.0227097 39.9774194,13.0750968 C40.6397177,13.2936774 41.2548387,13.552 41.8227823,13.8500645 C42.4905242,9.61032258 41.8173387,6.7236129 39.5147177,4.10967742 C36.9762097,1.232 32.3945565,0 26.5318548,0 L9.51169355,0 C8.3141129,0 7.29254032,0.867096774 7.10745968,2.04670968 L0.0181451613,46.7834839 C-0.121572581,47.6686452 0.564314516,48.4670968 1.46068548,48.4670968 L11.9685484,48.4670968 L14.6068548,31.8025806 L17.4447581,13.907871 Z" id="Shape" fill="#253B80"></path>
                        </g>
                    </g>
                </g>
            </g>
        </g>
    </g>
</svg>