<?xml version="1.0" encoding="UTF-8"?>
<svg width="158px" height="27px" viewBox="0 0 158 27" version="1.1" xmlns="http://www.w3.org/2000/svg" xmlns:xlink="http://www.w3.org/1999/xlink">
    <!-- Generator: Sketch 51.2 (57519) - http://www.bohemiancoding.com/sketch -->
    <title>logo-vexcash</title>
    <desc>Created with Sketch.</desc>
    <defs></defs>
    <g id="Final" stroke="none" stroke-width="1" fill="none" fill-rule="evenodd">
        <g id="pays.de-0816" transform="translate(-1005.000000, -4084.000000)" fill-rule="nonzero">
            <g id="Group-57" transform="translate(0.000000, 3924.000000)">
                <g id="Group-27" transform="translate(277.000000, 144.000000)">
                    <g id="logo-vexcash" transform="translate(728.000000, 16.000000)">
                        <path d="M56.5305096,13.6418699 L62.4817919,25.8259222 L54.7921095,25.8259222 C54.7921095,25.8259222 51.4436363,18.3862747 51.2992259,18.1657504 C51.1975911,18.3292482 45.8054713,25.8259222 45.8054713,25.8259222 L39.2608059,25.8259222 L48.7304662,13.2744941 L43.3046391,2.34782611 L51.0109184,2.34782611 C51.0109184,2.34782611 53.5630813,7.94993551 53.9273582,8.88098334 L58.8190036,2.34782611 L65.3383459,2.34782611 L56.5305096,13.6418699 Z M40.8123621,7.49240517 L30.4351749,7.49240517 L29.8080848,11.1674812 L38.5319098,11.1674812 L37.6414931,16.2634395 L28.9344361,16.2634395 L28.2308632,20.4280203 L39.0400838,20.4280203 L38.0990208,25.8259221 L20.270668,25.8259221 L24.3145012,2.34782609 L41.7022655,2.34782609 L40.8123621,7.49240517 Z M11.7247894,25.826087 L4.722083,25.826087 L0,2.34782611 L7.38400801,2.34782611 L10.0632999,17.496431 C10.2241361,17.0552175 16.6927465,2.34782611 16.6927465,2.34782611 L22.6019377,2.34782611 L11.7247894,25.826087 Z" id="VEX" fill="#99CC00"></path>
                        <path d="M147.994559,26.4993179 L140.914508,26.4993179 L142.545674,17.0128585 L136.225615,17.0128585 L134.586003,26.4993179 L127.505262,26.4993179 L131.579472,2.90614539 L138.659868,2.90614539 L137.165221,11.5800523 L143.485452,11.5800523 L144.979754,2.90614539 L152.06015,2.90614539 L147.994559,26.4993179 Z M121.782993,9.92248494 C121.603552,9.21676007 121.151245,8.66705322 120.442275,8.26475195 C119.724514,7.86278192 118.938837,7.6575735 118.084729,7.6575735 C116.479246,7.6575735 115.667886,8.17448675 115.667886,9.21676007 C115.667886,9.54486168 115.787685,9.83221974 116.009874,10.0781717 C116.240337,10.3161738 116.872256,10.619763 117.922698,10.9809895 L121.791956,12.3185708 C122.808268,12.6630692 123.748046,13.1718669 124.619392,13.845295 C125.490048,14.5180607 126.113866,15.2562479 126.48964,16.0606848 C126.873514,16.8568405 127.061573,17.7107991 127.061573,18.6214011 C127.061573,21.0097026 126.096629,22.9788092 124.166395,24.5302114 C122.227543,26.0807855 119.648152,26.86071 116.419949,26.86071 C113.661291,26.86071 111.252377,26.3189532 109.202689,25.2357707 C107.14421,24.1520913 105.709721,22.5029707 104.906807,20.2789685 L111.935836,18.9413871 C112.550691,20.6156826 114.045166,21.4527475 116.43667,21.4527475 C117.435916,21.4527475 118.162124,21.2720514 118.606157,20.9272217 C119.058636,20.5742765 119.280998,20.1724721 119.280998,19.7208148 C119.280998,19.4336224 119.195673,19.1797204 119.024507,18.9658995 C118.845066,18.7442943 118.665798,18.5884419 118.469293,18.4897298 C118.27296,18.391349 117.341973,18.0465194 115.693569,17.4559034 C113.455822,16.6599133 111.884297,16.01961 110.98744,15.5600027 C110.090755,15.0922799 109.339208,14.3948362 108.732972,13.4757873 C108.134665,12.5565728 107.835943,11.4733903 107.835943,10.2260742 C107.835943,8.07560908 108.647475,6.25423935 110.287088,4.76014311 C111.927045,3.26687499 114.429558,2.52007531 117.794625,2.52007531 C120.365224,2.52007531 122.568669,3.04510414 124.405477,4.09565868 C126.241767,5.14621321 127.454239,6.57389414 128.043755,8.37936395 L121.782993,9.92248494 Z M95.3576839,9.97167535 L92.1467183,16.7992033 L96.3315917,16.7992033 L95.3576839,9.97167535 Z M97.4416743,26.4993179 L96.7671785,21.674187 L90.2421682,21.674187 L87.9613278,26.4993179 L81.9230991,26.4993179 L93.2054337,2.90614539 L100.857936,2.90614539 L104.641697,26.4993179 L97.4416743,26.4993179 Z M78.1734677,12.0312127 C78.1564027,10.5791851 77.9174937,9.49567129 77.4815622,8.7816652 C77.0375291,8.06799036 76.2947736,7.70692952 75.2443321,7.70692952 C73.4416545,7.70692952 72.2036711,9.00327042 71.5458955,11.5967804 C70.8796735,14.1897934 70.5554398,16.2330996 70.5554398,17.7185834 C70.5554398,20.1396785 71.5290029,21.3459198 73.4761291,21.3459198 C74.4414183,21.3459198 75.2269224,21.034215 75.8164383,20.4104741 C76.4140557,19.7950144 76.9265209,18.7774191 77.3536614,17.3739193 L83.8871179,18.1861406 C83.1274697,20.7632537 81.8203647,22.8804283 79.9761452,24.5302114 C78.1221005,26.1794975 75.782136,27 72.9634916,27 C69.9062828,27 67.4720303,25.9988015 65.6702146,23.9800077 C63.8677094,21.9694951 62.962406,19.3927132 62.962406,16.232934 C62.962406,12.5893664 64.0728333,9.36416564 66.3017895,6.55749732 C68.5309181,3.75099462 71.588644,2.34782609 75.4834135,2.34782609 C78.3103319,2.34782609 80.6077202,3.19333782 82.3673045,4.87541756 C84.1180978,6.55749732 85.0149549,8.7816652 85.0490847,11.5472587 L78.1734677,12.0312127 Z" id="CASH" fill="#4A4A4A"></path>
                        <path d="M156.160979,1.78194278 C156.160979,1.4425875 155.910818,1.2983142 155.550348,1.2983142 C155.381248,1.2983142 155.270642,1.31258138 155.21185,1.32713975 L155.21185,2.2794019 L155.557623,2.27940182 C155.925516,2.27954739 156.160979,2.08475659 156.160979,1.78194278 Z M156.396146,2.95753004 C156.48463,3.32512853 156.54357,3.57786159 156.594939,3.678751 L156.241744,3.678751 C156.197798,3.59969913 156.139007,3.37608278 156.072643,3.05128585 C155.992027,2.68339619 155.844751,2.55368124 155.535798,2.53912287 L155.212147,2.53912287 L155.212147,3.67889657 L154.866672,3.67889657 L154.866672,1.08911062 C155.043047,1.05315149 155.29306,1.03160512 155.528672,1.03160512 C155.888994,1.03160512 156.131583,1.1035234 156.300832,1.2477967 C156.425839,1.36324447 156.5069,1.54376809 156.5069,1.7455469 C156.5069,2.0917446 156.285837,2.3229313 156.006725,2.41639595 L156.006725,2.42352955 C156.205221,2.49588457 156.330228,2.68339619 156.396146,2.95753004 Z M157.338,1.37052365 C157.161773,1.05315148 156.91859,0.814831188 156.60251,0.641877925 C156.278859,0.476203837 155.955208,0.389436027 155.623986,0.389436027 C155.292763,0.389436027 154.969112,0.476203822 154.653181,0.641877925 C154.336657,0.814831203 154.086644,1.05315149 153.909823,1.37052365 C153.733597,1.68076222 153.645409,2.00512238 153.645409,2.35161126 C153.645409,2.68354178 153.725877,3.00790196 153.902697,3.31828611 C154.079072,3.62823351 154.32181,3.87383298 154.638186,4.04664066 C154.954266,4.22003068 155.285637,4.3066529 155.623837,4.3066529 C155.969758,4.3066529 156.293112,4.22003068 156.60934,4.04664066 C156.925865,3.87383298 157.168603,3.62823351 157.345275,3.31828611 C157.521798,3.00790195 157.602562,2.68354178 157.602562,2.35161126 C157.602859,2.00512238 157.514375,1.68076222 157.338,1.37052365 Z M157.683475,3.51293132 C157.477853,3.88810016 157.183746,4.17650119 156.808281,4.38570477 C156.432965,4.58748358 156.035973,4.69565217 155.623986,4.69565217 C155.211999,4.69565217 154.822282,4.58748359 154.439839,4.38570477 C154.064374,4.17650119 153.770119,3.88810016 153.564348,3.51293132 C153.351006,3.14489608 153.24812,2.75531446 153.24812,2.35146567 C153.24812,1.94019211 153.35828,1.55075608 153.564348,1.16845366 C153.777394,0.793430403 154.07922,0.504883781 154.454388,0.302813806 C154.837128,0.101034995 155.226845,0 155.623986,0 C156.021423,0 156.411141,0.101034995 156.793435,0.30310497 C157.176026,0.505029371 157.469836,0.793721566 157.683327,1.16874482 C157.896669,1.55104725 158,1.9403377 158,2.35175684 C158.000148,2.75546005 157.896818,3.14489608 157.683475,3.51293132 Z" id="Copyright" fill="#4A4A4A"></path>
                    </g>
                </g>
            </g>
        </g>
    </g>
</svg>