<svg width="23" height="20" xmlns="http://www.w3.org/2000/svg"><path d="M.75 0a.75.75 0 0 0 0 1.5h2.992c1.242 3.074 2.464 6.154 3.696 9.235L6.305 13.46a.765.765 0 0 0 .068.706c.137.205.38.334.627.333h12.5a.78.78 0 0 0 .761-.75.78.78 0 0 0-.76-.75H8.124l.649-1.547 12.039-.96a.77.77 0 0 0 .672-.579l1.5-6.5c.097-.437-.286-.915-.735-.914H5.758L4.945.469A.768.768 0 0 0 4.25 0H.75zm5.61 4h14.945l-1.164 5.047-11.399.906L6.36 4zM9.5 15A2.511 2.511 0 0 0 7 17.5C7 18.872 8.128 20 9.5 20s2.5-1.128 2.5-2.5S10.872 15 9.5 15zm7.5 0a2.511 2.511 0 0 0-2.5 2.5c0 1.372 1.128 2.5 2.5 2.5s2.5-1.128 2.5-2.5S18.372 15 17 15zm-7.5 1.5c.562 0 1 .438 1 1s-.438 1-1 1c-.561 0-1-.438-1-1s.439-1 1-1zm7.5 0c.562 0 1 .438 1 1s-.438 1-1 1c-.561 0-1-.438-1-1s.439-1 1-1z" fill="#FB5101" fill-rule="evenodd"/></svg>