<svg width="27" height="26" xmlns="http://www.w3.org/2000/svg"><path d="M23.857 8.429h-8V3.286A2.289 2.289 0 0 0 13.571 1H3.286A2.289 2.289 0 0 0 1 3.286V13a2.289 2.289 0 0 0 2.286 2.286h3.143l1.542 2.057a.573.573 0 0 0 .915 0l1.543-2.057h.857v5.143a2.289 2.289 0 0 0 2.285 2.285h3.143l1.543 2.057a.573.573 0 0 0 .915 0l1.542-2.057h3.143a2.289 2.289 0 0 0 2.286-2.285v-9.715a2.289 2.289 0 0 0-2.286-2.285zm-12.571 2.285v3.429h-1.143c-.18 0-.35.085-.458.229L8.43 16.047l-1.257-1.675a.573.573 0 0 0-.458-.23H3.286c-.63 0-1.143-.513-1.143-1.142V3.286c0-.63.512-1.143 1.143-1.143H13.57c.63 0 1.143.512 1.143 1.143v5.143H13.57a2.289 2.289 0 0 0-2.285 2.285zM25 20.43c0 .629-.513 1.142-1.143 1.142H20.43c-.18 0-.35.085-.458.23l-1.257 1.674-1.256-1.675a.573.573 0 0 0-.458-.229h-3.429c-.63 0-1.142-.513-1.142-1.142v-9.715c0-.63.512-1.143 1.142-1.143h10.286c.63 0 1.143.513 1.143 1.143v9.715zm-6.857-2.858h1.143v-5.714h-1.143v5.714zm0 2.286h1.143v-1.143h-1.143v1.143zM7.857 13H9v-1.143H7.857V13zm.572-9.143c-1.294 0-2.679.867-2.855 2.806l1.138.103C6.865 5.085 8.17 5 8.43 5c.401 0 1.714.105 1.714 1.464 0 .717-.383 1.066-1.007 1.575-.57.464-1.279 1.042-1.279 2.104v.571H9v-.571c0-.495.31-.771.858-1.219.636-.518 1.428-1.164 1.428-2.46 0-1.559-1.149-2.607-2.857-2.607z" fill="#FB5101" stroke="#FB5101" stroke-width=".4" fill-rule="evenodd"/></svg>