<svg width="15" height="20" xmlns="http://www.w3.org/2000/svg"><path d="M7.5 0C4.43 0 1.935 2.455 1.935 5.476v2.62h-.241C.768 8.095 0 8.85 0 9.761v8.571C0 19.243.768 20 1.694 20h11.612c.926 0 1.694-.756 1.694-1.667V9.762c0-.91-.768-1.667-1.694-1.667h-.241V5.476C13.065 2.455 10.57 0 7.5 0zm0 1.429c2.29 0 4.113 1.793 4.113 4.047v2.62H3.387v-2.62C3.387 3.222 5.21 1.43 7.5 1.43zM1.694 9.524h11.612c.147 0 .242.094.242.238v8.571c0 .144-.095.238-.242.238H1.694c-.147 0-.242-.094-.242-.238V9.762c0-.144.095-.238.242-.238z" fill="#FB5101" fill-rule="evenodd"/></svg>