<svg width="20" height="20" xmlns="http://www.w3.org/2000/svg"><path d="M.833 5A.833.833 0 0 1 0 4.167V2.5A2.5 2.5 0 0 1 2.5 0h1.667a.833.833 0 1 1 0 1.667H2.5a.833.833 0 0 0-.833.833v1.667A.833.833 0 0 1 .833 5zM2.5 20A2.5 2.5 0 0 1 0 17.5v-1.667a.833.833 0 1 1 1.667 0V17.5c0 .46.372.833.833.833h1.667a.833.833 0 1 1 0 1.667H2.5zM20 17.5a2.5 2.5 0 0 1-2.5 2.5h-1.667a.833.833 0 1 1 0-1.667H17.5a.833.833 0 0 0 .833-.833v-1.667a.833.833 0 1 1 1.667 0V17.5zm0-15v1.667a.833.833 0 1 1-1.667 0V2.5a.833.833 0 0 0-.833-.833h-1.667a.833.833 0 1 1 0-1.667H17.5A2.5 2.5 0 0 1 20 2.5zM6.08 13.92a.835.835 0 0 1 0-1.174l6.666-6.667a.833.833 0 0 1 1.175 1.175l-6.667 6.667a.835.835 0 0 1-1.175 0zM7.082 7.5A1.25 1.25 0 1 1 7.084 5a1.25 1.25 0 0 1 0 2.5zm7.084 6.25a1.25 1.25 0 1 1-2.501 0 1.25 1.25 0 0 1 2.5 0zM7.5.833c0-.46.373-.833.833-.833h3.334a.833.833 0 1 1 0 1.667H8.333A.833.833 0 0 1 7.5.833zm.833 17.5h3.334a.833.833 0 1 1 0 1.667H8.333a.833.833 0 1 1 0-1.667zM20 8.333v3.334a.833.833 0 1 1-1.667 0V8.333a.833.833 0 1 1 1.667 0zM.833 12.5A.833.833 0 0 1 0 11.667V8.333a.833.833 0 1 1 1.667 0v3.334a.833.833 0 0 1-.834.833z" fill="#FB5101" fill-rule="evenodd"/></svg>