<svg width="119" height="49" xmlns="http://www.w3.org/2000/svg"><g fill="none" fill-rule="evenodd"><g fill-rule="nonzero"><path d="M31.488 6.166L10.604 18.35v24.444L0 36.607V12.202L20.918 0l10.57 6.166z" fill="#24333A"/><path d="M21.208 48.94V36.608l10.28-5.997V6.167l10.604 6.186v24.404L21.208 48.94z" fill="#FB5101"/></g><path d="M48.322 39.921V19.375c0-2.514-.078-4.675-.155-6.443h5.132l.272 2.672h.078c1.4-2.043 3.577-3.104 6.338-3.104 4.16 0 7.892 3.654 7.892 9.782 0 6.993-4.393 10.293-8.631 10.293-2.294 0-4.083-.943-4.938-2.2h-.078v9.546h-5.91zm5.91-18.66v2.632c0 .471.04.903.117 1.257.389 1.61 1.75 2.829 3.46 2.829 2.566 0 4.083-2.161 4.083-5.422 0-3.064-1.361-5.382-4.005-5.382-1.672 0-3.15 1.257-3.538 3.025a4.665 4.665 0 0 0-.117 1.06zm31.131-.472v6.679c0 1.846.078 3.614.272 4.675H80.31l-.35-1.925h-.117c-1.244 1.532-3.188 2.357-5.443 2.357-3.85 0-6.144-2.829-6.144-5.893 0-4.99 4.433-7.386 11.16-7.346v-.275c0-1.022-.545-2.475-3.461-2.475-1.944 0-4.005.668-5.25 1.453l-1.088-3.85c1.322-.746 3.927-1.689 7.388-1.689 6.337 0 8.36 3.771 8.36 8.29zM79.61 25.15v-2.082c-3.11-.04-5.521.707-5.521 3.025 0 1.532 1.01 2.278 2.332 2.278 1.478 0 2.683-.982 3.072-2.2.078-.314.117-.667.117-1.021zm5.223-12.218h6.57l2.839 9.429c.311 1.139.7 2.553.933 3.575h.117c.272-1.022.583-2.475.855-3.575l2.333-9.429h6.338l-4.433 12.65c-2.722 7.622-4.549 10.686-6.687 12.61-2.061 1.808-4.238 2.437-5.716 2.633l-1.244-5.068c.739-.118 1.672-.471 2.566-1.021.894-.472 1.866-1.415 2.45-2.397.194-.275.31-.589.31-.864 0-.196-.038-.51-.272-.982l-6.96-17.56zM103.8 31.2l1.05-4.282c1.088.668 3.344 1.453 5.093 1.453 1.789 0 2.527-.628 2.527-1.61 0-.982-.583-1.454-2.799-2.2-3.927-1.336-5.443-3.497-5.404-5.736 0-3.614 3.032-6.325 7.737-6.325 2.216 0 4.2.51 5.366 1.1l-1.05 4.125c-.856-.471-2.489-1.1-4.122-1.1-1.438 0-2.255.59-2.255 1.571 0 .904.739 1.375 3.072 2.2 3.616 1.258 5.132 3.104 5.171 5.933 0 3.575-2.8 6.246-8.243 6.246-2.488 0-4.704-.59-6.143-1.375z" fill="#24333A"/></g></svg>