<svg width="35" height="42" xmlns="http://www.w3.org/2000/svg"><g fill="none" fill-rule="evenodd"><path d="M16.552 37.26H.22V.073h28.729v20.854c0 .802-.656 1.458-1.458 1.458a1.463 1.463 0 0 1-1.459-1.458V2.99H3.135v31.28h13.417c.802 0 1.458.657 1.458 1.46 0 .801-.656 1.53-1.458 1.53zm5.104-21.729H7.51a1.463 1.463 0 0 1-1.458-1.458c0-.802.656-1.458 1.458-1.458h14.22c.801 0 1.457.656 1.457 1.458 0 .802-.729 1.458-1.53 1.458zm0-6.125H7.51a1.463 1.463 0 0 1-1.458-1.458c0-.802.656-1.458 1.458-1.458h14.22c.801 0 1.457.656 1.457 1.458 0 .802-.729 1.458-1.53 1.458zm-3.208 12.25h-6.49a1.463 1.463 0 0 1-1.458-1.458c0-.802.656-1.458 1.458-1.458h6.49c.802 0 1.458.656 1.458 1.458 0 .802-.656 1.458-1.458 1.458zm-9.48-1.458c0 1.944-2.916 1.944-2.916 0s2.917-1.944 2.917 0zm6.563 7.583h-3.573a1.463 1.463 0 0 1-1.458-1.458c0-.802.656-1.458 1.458-1.458h3.573c.802 0 1.459.656 1.459 1.458 0 .802-.657 1.458-1.459 1.458zM8.97 26.323c0 1.944-2.917 1.944-2.917 0s2.917-1.944 2.917 0z" fill="#FB5101"/><path d="M33.688 31.792l-6.198-6.198-6.198 6.198c-.584.583-.584 1.458 0 2.041.583.584 1.458.584 2.041 0l2.698-2.698v9.407c0 .802.657 1.458 1.459 1.458s1.458-.656 1.458-1.458v-9.407l2.698 2.698a1.44 1.44 0 0 0 1.02.438c.365 0 .73-.146 1.022-.438.583-.583.583-1.458 0-2.041z" fill="#24333A"/></g></svg>