<svg width="51" height="39" xmlns="http://www.w3.org/2000/svg"><g fill="none" fill-rule="evenodd"><path d="M43 19.667v-1.75c0-.645-.522-1.167-1.166-1.167h-1.167a2.303 2.303 0 0 1-2.333-2.333 2.303 2.303 0 0 1 2.333-2.334h1.167c.644 0 1.166-.521 1.166-1.166v-8.75C43 1.522 42.478 1 41.834 1H2.167C1.522 1 1 1.522 1 2.167v24.5c0 .645.522 1.166 1.167 1.166h33a1.17 1.17 0 0 0 .836-.334 1.176 1.176 0 0 0 0-1.663 1.17 1.17 0 0 0-.836-.336H32.5v-4.083a1.17 1.17 0 0 0-.335-.837 1.177 1.177 0 0 0-.832-.346c-.312 0-.61.125-.831.346a1.17 1.17 0 0 0-.335.837V25.5H3.333V3.333h26.834v4.084c-.007.335.13.658.378.886a1.166 1.166 0 0 0 1.955-.886V3.333h8.167V9.75A4.682 4.682 0 0 0 36 14.417a4.682 4.682 0 0 0 4.667 4.666v.584a1.166 1.166 0 0 0 1.185 1.185c.71-.066 1.162-.581 1.148-1.185zm-11.539-1.732a1.166 1.166 0 0 0 1.04-1.185v-4.667a1.17 1.17 0 0 0-.336-.836 1.177 1.177 0 0 0-.832-.346c-.312 0-.61.125-.831.346a1.17 1.17 0 0 0-.335.836v4.667a1.169 1.169 0 0 0 1.294 1.185z" stroke="#FB5101" stroke-width=".7" fill="#FB5101"/><path fill="#24333A" d="M40 24l1.431 13.334 2.944-2.46L46.792 39l2.99-1.702-2.417-4.127L51 31.89z"/></g></svg>