<svg width="64" height="16" xmlns="http://www.w3.org/2000/svg"><path d="M64.002 8.314c0 .077 0 .077-.067.152 0 .077 0 .077-.067.152 0 .077-.067.077-.067.151 0 .078-.067.078-.067.152 0 .078-.067.078-.067.152l-.067.077-.133.078-.067.077-8.369 6.477c-.198.151-.46.229-.725.229-.397 0-.858-.23-1.12-.685-.397-.684-.263-1.675.396-2.134l4.752-3.658H1.318C.592 9.534 0 8.85 0 8.01c0-.839.592-1.523 1.318-1.523h57.016L53.59 2.829c-.592-.459-.79-1.447-.397-2.134C53.59.01 54.444-.22 55.04.236l8.368 6.477.067.077c.067 0 .067.078.132.078l.067.077c0 .077.066.077.066.152 0 0 .067.077.067.152 0 .077.067.077.067.151 0 .078 0 .078.067.152 0 .077 0 .077.067.152v.303c-.005.08-.005.08-.005.155v.152z" fill="#24333A" fill-rule="evenodd"/></svg>