<svg width="36" height="36" xmlns="http://www.w3.org/2000/svg"><g fill="none" fill-rule="evenodd"><path d="M27.09 3.326V1.84a1.485 1.485 0 1 1 2.97 0v1.485h2.22c2.05 0 3.72 1.67 3.72 3.72V32.28A3.723 3.723 0 0 1 32.281 36H4.075a3.724 3.724 0 0 1-3.719-3.719V10.808a1.51 1.51 0 0 1 0-.113V7.046c0-2.05 1.67-3.72 3.72-3.72h2.22V1.84a1.486 1.486 0 0 1 2.971 0v1.485H27.09zm0 2.972H9.266a1.486 1.486 0 0 1-2.97 0h-2.22a.752.752 0 0 0-.75.75v2.218H33.03V7.048a.752.752 0 0 0-.75-.75h-2.22a1.485 1.485 0 0 1-2.97 0zm5.94 5.94H3.326v20.045a.75.75 0 0 0 .75.749H32.28a.75.75 0 0 0 .75-.75V12.238zM10.753 28.574c0 1.98-2.971 1.98-2.971 0 0-1.982 2.971-1.982 2.971 0zm0-5.941c0 1.98-2.971 1.98-2.971 0s2.971-1.98 2.971 0zm4.455 5.94c0 1.98-2.97 1.98-2.97 0s2.97-1.98 2.97 0zm0-5.94c0 1.98-2.97 1.98-2.97 0s2.97-1.98 2.97 0zm0-5.941c0 1.98-2.97 1.98-2.97 0s2.97-1.98 2.97 0zm8.911 5.94c0 1.98-2.97 1.98-2.97 0s2.97-1.98 2.97 0zm0-5.94c0 1.98-2.97 1.98-2.97 0s2.97-1.98 2.97 0zm4.456 5.94c0 1.98-2.971 1.98-2.971 0s2.97-1.98 2.97 0zm0-5.94c0 1.98-2.971 1.98-2.971 0s2.97-1.98 2.97 0zm-8.911 11.882c0 1.98-2.971 1.98-2.971 0 0-1.982 2.97-1.982 2.97 0zm0-5.941c0 1.98-2.971 1.98-2.971 0s2.97-1.98 2.97 0zm0-5.941c0 1.98-2.971 1.98-2.971 0s2.97-1.98 2.97 0z" fill="#FB5101"/><path d="M24.12 28.575c0 1.98-2.972 1.98-2.972 0 0-1.982 2.971-1.982 2.971 0" stroke="#24333A" fill="#24333A"/></g></svg>