<svg width="52" height="52" xmlns="http://www.w3.org/2000/svg"><g fill="none" fill-rule="evenodd"><path d="M43.09 19.326V17.84c0-.617.375-1.146.91-1.37v-1.425 1.424a1.485 1.485 0 0 1 2.06 1.37v1.486h2.22c2.05 0 3.72 1.67 3.72 3.72V48.28A3.723 3.723 0 0 1 48.281 52H20.075a3.724 3.724 0 0 1-3.719-3.719V26.808a1.51 1.51 0 0 1 0-.113v-3.649c0-2.05 1.67-3.72 3.72-3.72h2.22V17.84a1.486 1.486 0 0 1 2.971 0v1.485H43.09zm0 2.972H25.266a1.486 1.486 0 0 1-2.97 0h-2.22a.752.752 0 0 0-.75.75v2.218H49.03v-2.218a.752.752 0 0 0-.75-.75h-2.22a1.485 1.485 0 0 1-2.97 0zm5.94 5.94H19.326v20.045a.75.75 0 0 0 .75.749H48.28a.75.75 0 0 0 .75-.75V28.238zM14 44h-1.925a3.724 3.724 0 0 1-3.719-3.719V18.808a1.51 1.51 0 0 1 0-.113v-3.649c0-2.05 1.67-3.72 3.72-3.72h2.22V9.84a1.486 1.486 0 0 1 2.971 0v1.485H35.09V9.84c0-.617.376-1.146.911-1.37V7.045 8.47a1.485 1.485 0 0 1 2.06 1.37v1.486h2.22a3.728 3.728 0 0 1 3.645 2.974H40.34a.756.756 0 0 0-.061-.002h-2.22v.002h-2.97v-.002H17.266v.002h-2.97v-.002h-2.22a.752.752 0 0 0-.75.75v2.218H14v2.971h-2.674v20.046a.75.75 0 0 0 .75.749H14V44zm-8-8H4.075a3.724 3.724 0 0 1-3.719-3.719V10.808a1.51 1.51 0 0 1 0-.113V7.046c0-2.05 1.67-3.72 3.72-3.72h2.22V1.84a1.486 1.486 0 0 1 2.971 0v1.485H27.09V1.84a1.485 1.485 0 1 1 2.971 0v1.485h2.22A3.728 3.728 0 0 1 35.925 6.3H32.34a.756.756 0 0 0-.061-.002h-2.22V6.3h-2.97v-.002H9.266V6.3h-2.97v-.002h-2.22a.752.752 0 0 0-.75.75v2.218H6v2.971H3.326v20.046a.75.75 0 0 0 .75.749H6V36zm20.753 8.575c0 1.98-2.971 1.98-2.971 0 0-1.982 2.971-1.982 2.971 0zm0-5.941c0 1.98-2.971 1.98-2.971 0s2.971-1.98 2.971 0zm4.455 5.94c0 1.98-2.97 1.98-2.97 0s2.97-1.98 2.97 0zm0-5.94c0 1.98-2.97 1.98-2.97 0s2.97-1.98 2.97 0zm0-5.941c0 1.98-2.97 1.98-2.97 0s2.97-1.98 2.97 0zm8.911 5.94c0 1.98-2.97 1.98-2.97 0s2.97-1.98 2.97 0zm0-5.94c0 1.98-2.97 1.98-2.97 0s2.97-1.98 2.97 0zm4.456 5.94c0 1.98-2.971 1.98-2.971 0s2.97-1.98 2.97 0zm0-5.94c0 1.98-2.971 1.98-2.971 0s2.97-1.98 2.97 0zm-8.911 11.882c0 1.98-2.971 1.98-2.971 0 0-1.982 2.97-1.982 2.97 0zm0-5.941c0 1.98-2.971 1.98-2.971 0s2.97-1.98 2.97 0zm0-5.941c0 1.98-2.971 1.98-2.971 0s2.97-1.98 2.97 0z" fill="#FB5101"/><path d="M40.12 44.575c0 1.98-2.972 1.98-2.972 0 0-1.982 2.971-1.982 2.971 0" stroke="#24333A" fill="#24333A"/></g></svg>