<svg width="36" height="38" xmlns="http://www.w3.org/2000/svg"><g fill="none" fill-rule="evenodd"><path d="M16.333 37.188H0V0h28.73v20.854c0 .802-.657 1.459-1.46 1.459a1.463 1.463 0 0 1-1.457-1.459V2.917H2.916v31.28h13.416c.802 0 1.459.657 1.459 1.46 0 .801-.657 1.53-1.459 1.53zm5.105-21.73H7.291A1.463 1.463 0 0 1 5.833 14c0-.802.657-1.458 1.459-1.458H21.51c.802 0 1.459.656 1.459 1.458 0 .802-.73 1.458-1.532 1.458zm0-6.125H7.291a1.463 1.463 0 0 1-1.459-1.458c0-.802.657-1.458 1.459-1.458H21.51c.802 0 1.459.656 1.459 1.458 0 .802-.73 1.458-1.532 1.458zm-3.209 12.25h-6.49a1.463 1.463 0 0 1-1.458-1.458c0-.802.656-1.458 1.459-1.458h6.49c.801 0 1.457.656 1.457 1.458 0 .802-.656 1.458-1.458 1.458zM8.75 20.125c0 1.944-2.917 1.944-2.917 0s2.917-1.944 2.917 0zm6.563 7.583H11.74a1.463 1.463 0 0 1-1.459-1.458c0-.802.656-1.458 1.459-1.458h3.572c.803 0 1.459.656 1.459 1.458 0 .802-.656 1.458-1.459 1.458zM8.75 26.25c0 1.944-2.917 1.944-2.917 0s2.917-1.944 2.917 0z" fill="#FB5101"/><path fill="#24333A" d="M32.688 23.331h-.54l-7.41 7.412-3.465-3.465h-.54L18 29.992v.54L24.468 37h.54l10.395-10.395v-.54z"/></g></svg>