<svg width="46" height="46" xmlns="http://www.w3.org/2000/svg"><path d="M26.675 0C37.329 0 45.998 8.669 46 19.323c0 6.605-3.32 12.685-8.88 16.263l-1.11-1.725a17.223 17.223 0 0 0 7.94-14.538c0-9.523-7.75-17.272-17.273-17.272a17.232 17.232 0 0 0-14.501 7.883l-1.721-1.117A19.273 19.273 0 0 1 26.675 0zM25.65 5.42h2.05v13.313l9.497 5.482-1.025 1.776-10.522-6.074V5.42zm5.188 27.197c1.02.004 1.932.375 2.634 1.079.705.705 1.079 1.617 1.079 2.639l-.002 5.938a3.647 3.647 0 0 1-1.077 2.65c-.706.704-1.618 1.074-2.69 1.074h-.003c-8.646-.225-15.96-3.269-21.735-9.045C3.268 31.174.224 23.862 0 15.164c0-1.021.372-1.934 1.077-2.639.705-.705 1.617-1.077 2.639-1.077l5.95-.002c1.023 0 1.937.374 2.636 1.075.706.704 1.08 1.618 1.08 2.643 0 1.88.283 3.69.847 5.38.446 1.346.155 2.683-.819 3.764l-.036.04-.037.039-2.63 2.628a23.976 23.976 0 0 0 3.623 4.657 24.005 24.005 0 0 0 4.656 3.62l2.666-2.666.038-.034c.74-.669 1.621-1.023 2.547-1.023.406 0 .815.067 1.221.203 1.68.56 3.484.845 5.38.845z" fill="#FB5101" fill-rule="evenodd"/></svg>