<svg width="40" height="38" xmlns="http://www.w3.org/2000/svg"><path d="M37.62 10.828H0v-8.16h7.363V0h2.856v2.668H29.78V0h2.856v2.668H40v8.16h-2.38zM40 37.43H0V13.21h40v24.22zM28.088 16.302v3.809h5.467V16.3h-5.467zm0 6.427v3.81l5.467-.001v-3.81h-5.467zm0 6.429v3.81l5.467-.001v-3.81h-5.467zM17.265 16.302v3.809h5.467V16.3h-5.467zm0 6.427v3.81l5.467-.001v-3.81h-5.467zm0 6.429v3.81l5.467-.001v-3.81h-5.467zM6.444 16.302v3.809h5.467V16.3H6.444zm0 6.427v3.81l5.467-.001v-3.81H6.444zm0 6.429v3.81l5.467-.001v-3.81H6.444z" fill="#FB5101" fill-rule="evenodd"/></svg>