<svg width="60" height="33" xmlns="http://www.w3.org/2000/svg"><path d="M6.77 20.148l8.628-12.292a.685.685 0 0 1 .562-.291h9.494c.136 0 .27.042.386.118l12.308 8.369c.418.283.402.917-.037 1.166a9.012 9.012 0 0 1-8.756.116l-2.44-1.303a.684.684 0 0 0-.67.013l-13.457 7.849a.681.681 0 0 1-.728-.021l-5.363-3.574.074-.15zm9.082-18.002a.687.687 0 0 1 .168.959L4.13 20.05a.688.688 0 0 1-.96.169L.294 18.198a.688.688 0 0 1-.168-.96L12.015.294a.688.688 0 0 1 .96-.168l2.877 2.02zm28.126.96a.687.687 0 0 1 .165-.96l2.878-2.02a.69.69 0 0 1 .959.168l11.896 16.943a.69.69 0 0 1-.169.96l-2.877 2.02a.69.69 0 0 1-.959-.168L43.978 3.105zm-2.013 13.847a.686.686 0 0 0-.1-1.054l-9.488-6.454a.685.685 0 0 1-.127-1.027l.563-.626a.686.686 0 0 1 .512-.228h10.713c.224 0 .434.108.563.292l8.266 11.777c.226.32.14.764-.192.975L36.423 30.992a12.024 12.024 0 0 1-12.817.087l-8.107-5.03a.689.689 0 0 1 .016-1.179l3.195-1.863 7.581-4.422a.684.684 0 0 1 .67-.013l.896.478a11.976 11.976 0 0 0 14.108-2.097z" fill="#FB5101" fill-rule="evenodd"/></svg>