<svg width="40" height="40" xmlns="http://www.w3.org/2000/svg"><path d="M13.333 4.444V0h4.445v4.444h-4.445zm8.89 8.89V8.888h4.444v4.444h-4.445zm0-8.89V0h4.444v4.444h-4.445zm4.444 17.778h4.444v-4.444H40v4.444h-4.444v4.445H31.11v8.889h4.445v-8.89H40V40H0V4.444h4.444V0H8.89v4.444h4.444v8.89h8.89v4.444h-4.445v4.444h4.444v-4.444h4.445v4.444zM4.444 8.89v4.444H8.89V8.89H4.444zm22.223 22.22v-4.444h-4.445v4.444h4.445zm0-13.333v-4.445h4.444v4.445h-4.444zM31.11 4.444h4.445V8.89h-8.89V4.444h4.445zm4.445 8.89V8.888H40v4.444h-4.444zm0-8.89V0H40v4.444h-4.444z" fill="#FB5101" fill-rule="evenodd"/></svg>