<svg width="45" height="36" xmlns="http://www.w3.org/2000/svg"><g fill="none" fill-rule="evenodd"><path d="M2.605 4C1.162 4 0 5.25 0 6.8v1.68h44.8V6.8c0-1.55-1.162-2.8-2.605-2.8H2.605zM0 10.72v3.36h44.8v-3.36H0zm0 4.48v14.175A2.61 2.61 0 0 0 2.605 32h39.59c1.443 0 2.597-1.171 2.605-2.625V15.2H0zm28.775 4.48a4.29 4.29 0 0 1 2.601.871 4.272 4.272 0 0 1 2.569-.856c2.271 0 4.135 1.764 4.135 3.913s-1.864 3.912-4.135 3.912a4.244 4.244 0 0 1-2.585-.871 4.27 4.27 0 0 1-2.585.871c-2.271 0-4.135-1.763-4.135-3.912 0-2.15 1.864-3.928 4.135-3.928zm.345 2.24c-1.251 0-2.24.993-2.24 2.249 0 1.256.989 2.231 2.24 2.231 1.251 0 2.24-.975 2.24-2.231a2.226 2.226 0 0 0-2.24-2.249zm4.682 0c-.508 0-.966.212-1.322.543.197.522.303 1.1.303 1.697a4.78 4.78 0 0 1-.303 1.698c.356.336.814.542 1.322.542 1.138 0 2.038-.989 2.038-2.24 0-1.251-.9-2.24-2.038-2.24z" fill="#FB5101"/><path d="M12.5 32.5l19-29" stroke="#FFF" stroke-width="5" stroke-linecap="square"/></g></svg>