<svg width="225" height="55" xmlns="http://www.w3.org/2000/svg"><g fill="none"><path d="M83.85 12.192H71.442c-.85 0-1.571.614-1.704 1.449l-5.019 31.68a1.03 1.03 0 0 0 1.024 1.188h5.924a1.72 1.72 0 0 0 1.704-1.45l1.354-8.545a1.72 1.72 0 0 1 1.702-1.45h3.928c8.174 0 12.892-3.939 14.124-11.743.555-3.414.024-6.096-1.582-7.975-1.764-2.063-4.892-3.154-9.045-3.154zm1.432 11.57c-.678 4.433-4.08 4.433-7.37 4.433h-1.873l1.314-8.279c.078-.5.513-.869 1.021-.869h.859c2.24 0 4.355 0 5.447 1.272.651.759.85 1.886.602 3.443zm35.663-.142h-5.943c-.506 0-.943.368-1.021.868l-.263 1.655-.416-.6c-1.286-1.859-4.155-2.48-7.019-2.48-6.566 0-12.175 4.951-13.267 11.897-.568 3.465.24 6.778 2.213 9.089 1.811 2.124 4.402 3.01 7.485 3.01 5.291 0 8.226-3.388 8.226-3.388l-.265 1.644a1.03 1.03 0 0 0 1.02 1.192h5.352c.851 0 1.57-.614 1.704-1.45l3.212-20.249a1.027 1.027 0 0 0-1.018-1.189zm-8.284 11.514c-.573 3.38-3.267 5.648-6.704 5.648-1.726 0-3.105-.55-3.99-1.595-.878-1.037-1.212-2.512-.933-4.156.535-3.351 3.275-5.694 6.66-5.694 1.687 0 3.059.558 3.962 1.611.906 1.064 1.265 2.549 1.005 4.186zm39.933-11.514h-5.972a1.73 1.73 0 0 0-1.428.753l-8.236 12.078-3.491-11.607a1.729 1.729 0 0 0-1.655-1.225h-5.868c-.713 0-1.209.694-.982 1.362l6.578 19.217-6.184 8.691a1.03 1.03 0 0 0 .844 1.626h5.964c.566 0 1.096-.274 1.417-.737l19.862-28.542a1.029 1.029 0 0 0-.85-1.617z" fill="#253B80"/><path d="M172.365 12.192h-12.412c-.847 0-1.57.614-1.702 1.449l-5.019 31.68a1.03 1.03 0 0 0 1.02 1.188h6.369c.591 0 1.098-.43 1.19-1.015l1.425-8.98a1.72 1.72 0 0 1 1.702-1.45h3.926c8.177 0 12.892-3.939 14.126-11.743.557-3.414.022-6.096-1.584-7.975-1.762-2.063-4.888-3.154-9.041-3.154zm1.431 11.57c-.677 4.433-4.079 4.433-7.37 4.433h-1.871l1.315-8.279c.078-.5.51-.869 1.02-.869h.858c2.24 0 4.355 0 5.448 1.272.651.759.849 1.886.6 3.443zm35.661-.142h-5.94c-.509 0-.943.368-1.019.868l-.263 1.655-.417-.6c-1.287-1.859-4.154-2.48-7.017-2.48-6.567 0-12.174 4.951-13.266 11.897-.566 3.465.238 6.778 2.212 9.089 1.814 2.124 4.402 3.01 7.485 3.01 5.291 0 8.225-3.388 8.225-3.388l-.265 1.644c-.1.628.387 1.192 1.024 1.192h5.35c.848 0 1.57-.614 1.703-1.45l3.213-20.249a1.033 1.033 0 0 0-1.025-1.189zm-8.283 11.514c-.57 3.38-3.268 5.648-6.705 5.648-1.722 0-3.105-.55-3.99-1.595-.878-1.037-1.209-2.512-.933-4.156.54-3.351 3.275-5.694 6.66-5.694 1.687 0 3.059.558 3.962 1.611.91 1.064 1.269 2.549 1.006 4.186zm15.289-22.074l-5.094 32.26a1.03 1.03 0 0 0 1.02 1.189h5.12a1.72 1.72 0 0 0 1.705-1.45l5.022-31.679a1.03 1.03 0 0 0-1.02-1.19h-5.734c-.506.002-.941.37-1.02.87z" fill="#179BD7"/><path d="M13.184 52.665l.95-6-2.115-.05H1.925L8.94 2.334a.574.574 0 0 1 .57-.484h17.02c5.65 0 9.55 1.17 11.586 3.48.954 1.085 1.562 2.217 1.856 3.464.308 1.308.314 2.87.013 4.776l-.022.14v1.22l.954.539c.804.424 1.443.91 1.933 1.466.816.927 1.344 2.105 1.568 3.501.23 1.437.154 3.145-.224 5.08-.435 2.226-1.14 4.164-2.09 5.75a11.846 11.846 0 0 1-3.311 3.613c-1.263.892-2.764 1.57-4.46 2.003-1.644.427-3.519.642-5.575.642h-1.324c-.948 0-1.867.34-2.59.948a3.988 3.988 0 0 0-1.35 2.399l-.1.54-1.676 10.577-.076.388c-.02.123-.055.185-.106.226a.281.281 0 0 1-.174.063h-8.178z" fill="#253B80"/><path d="M41.821 13.85c-.05.323-.109.654-.174.994-2.245 11.472-9.924 15.436-19.731 15.436h-4.994c-1.2 0-2.21.867-2.397 2.045L11.97 48.467l-.724 4.576a1.274 1.274 0 0 0 1.26 1.47h8.857c1.05 0 1.94-.758 2.105-1.788l.087-.448 1.668-10.535.107-.578a2.127 2.127 0 0 1 2.105-1.792h1.324c8.581 0 15.298-3.469 17.262-13.505.82-4.193.395-7.694-1.775-10.156-.657-.743-1.471-1.359-2.424-1.86z" fill="#179BD7"/><path d="M39.473 12.918a17.768 17.768 0 0 0-2.183-.482c-1.346-.217-2.821-.32-4.402-.32h-13.34a2.126 2.126 0 0 0-2.103 1.792l-2.838 17.895-.082.522a2.422 2.422 0 0 1 2.397-2.045h4.994c9.807 0 17.486-3.965 19.73-15.436.068-.34.124-.67.175-.994-.568-.3-1.183-.556-1.845-.775a16.465 16.465 0 0 0-.503-.157z" fill="#222D65"/><path d="M17.445 13.908c.11-.71.568-1.29 1.183-1.583.281-.133.591-.207.92-.207h13.34c1.58 0 3.056.103 4.402.32.385.06.759.131 1.123.21a17.768 17.768 0 0 1 1.564.427c.663.219 1.278.477 1.846.775.668-4.24-.006-7.126-2.308-9.74C36.976 1.232 32.395 0 26.532 0H9.512a2.43 2.43 0 0 0-2.405 2.047L.018 46.783a1.458 1.458 0 0 0 1.443 1.684h10.508l2.638-16.664 2.838-17.895z" fill="#253B80"/></g></svg>