<svg width="169" height="53" xmlns="http://www.w3.org/2000/svg"><g fill="none"><path d="M55.983.209c-2.307 0-4.543.53-6.644 1.52-3 1.42-5.722 3.79-7.944 6.935-1.443 2.041-2.679 4.407-3.646 7.054-1.824 4.996-1.803 9.048.061 11.718 1.058 1.51 3.256 3.313 7.724 3.318h.018c8.14 0 14.217-5.335 18.065-15.859 1.016-2.784 2.358-7.98-.093-11.487-1.481-2.12-4.014-3.196-7.54-3.2zm49.118 0c-2.305 0-4.543.53-6.643 1.52-3.002 1.42-5.721 3.79-7.943 6.935-1.445 2.041-2.679 4.407-3.646 7.054-1.826 4.996-1.804 9.048.063 11.718 1.055 1.51 3.252 3.313 7.724 3.318h.014c8.142 0 14.22-5.335 18.065-15.859 1.02-2.784 2.358-7.98-.092-11.487-1.482-2.12-4.015-3.196-7.542-3.2zM29.84.632c-2.679 0-5.281 0-7.613 1.183-2.33 1.183-4.39 3.55-5.974 8.286-.343 1.019-.525 1.896-.548 2.657-.024.764.108 1.413.397 1.977.357.689.935 1.336 1.658 1.882a8.14 8.14 0 0 0 2.522 1.275l1.12.32c.592.17 1.284.373 1.722.506.257.078.539.18.794.335.256.151.486.355.63.637.096.187.147.393.152.612.007.221-.03.46-.118.71-.217.643-.547 1.058-1.176 1.311-.625.254-1.548.335-2.949.345H2.973L.209 30.261h18.715c1.76 0 4.98 0 8.074-1.315 3.094-1.314 6.062-3.94 7.318-9.198.472-1.975.326-3.585-.447-4.85-.777-1.263-2.181-2.18-4.226-2.767 0 0-.457-.133-.996-.287-.535-.155-1.156-.332-1.472-.423-.524-.15-.927-.453-1.165-.839a1.649 1.649 0 0 1-.173-1.329c.141-.496.481-.892.97-1.166.494-.272 1.14-.421 1.894-.421H39.58c.076-.11.146-.231.223-.342C41.79 4.513 44.195 2.238 46.83.632H29.84zm48.897 0c-4.841 0-8.445 2.45-10.146 7.034L60.367 30.26h9.009l4.226-11.615 7.962.006 2.265-6.222-7.936-.005 1.278-3.602c.266-.646.903-1.159 1.834-1.159l9.388.003c.078-.112.148-.232.225-.343 1.987-2.811 4.8-5.086 7.435-6.692H78.737zm41.795.016L109.743 30.28h9.164l3.921-10.43c.192.43 2.506 10.43 2.506 10.43h9.634s-1.752-7.348-3.04-10.316c-.332-.763-.677-1.618-1.14-2.333 2.722-1.012 6.665-3.182 8.299-7.582 1.003-2.704.945-4.89-.17-6.493-1.351-1.946-4.101-2.902-8.41-2.907h-9.975zm18.796 0c.58.46 1.08.983 1.496 1.581 1.066 1.537 1.473 3.363 1.23 5.455h5.457l-8.224 22.603h8.217l8.229-22.603h10.557L168.852.65h-29.524zM126.57 6.767h1.513c2.765.002 3.797.81 2.86 3.335-.879 2.37-2.46 3.833-5.465 3.833h-.012l-1.555-.001 2.659-7.167zm-72.749.147h.002c2.815.003 3.46 1.635.988 8.397-2.54 6.95-4.383 8.7-7.157 8.7h-.005c-2.703-.002-3.651-1.712-1.122-8.63 1.889-5.165 4.335-8.467 7.294-8.467zm49.118 0h.003c2.814.003 3.46 1.635.986 8.397-2.538 6.95-4.382 8.7-7.154 8.7h-.007c-2.704-.002-3.648-1.712-1.12-8.63 1.887-5.165 4.334-8.467 7.292-8.467z" fill="#EE7F00"/><path d="M9.119 33.401c-.577 0-1.009.105-1.297.311-.288.21-.53.583-.725 1.122-.188.517-.217.875-.086 1.08.13.205.486.307 1.07.307.583 0 1.019-.105 1.304-.32.286-.212.526-.583.718-1.113.19-.524.222-.884.093-1.086-.126-.2-.486-.3-1.077-.3zm4.968 0c-.585 0-1.018.105-1.302.311-.286.21-.525.583-.72 1.122-.188.517-.218.875-.092 1.08.127.205.48.307 1.065.307.583 0 1.019-.105 1.31-.32.288-.212.53-.583.723-1.113.19-.524.22-.884.089-1.086-.133-.2-.49-.3-1.073-.3zm92.747 3.855c-.676 0-1.346.087-2.012.26a6.555 6.555 0 0 0-3.398 2.12 6.028 6.028 0 0 0-1.068 1.86c-.224.615-.324 1.14-.302 1.58.02.438.119.821.294 1.142.173.323.404.599.693.83.288.23.594.438.922.618.328.182.647.357.962.519.31.163.58.336.802.523.226.186.384.398.48.636.095.24.081.525-.04.858a2.69 2.69 0 0 1-1.12 1.376c-.26.16-.547.284-.868.37a3.9 3.9 0 0 1-1.025.131c-.554 0-1.019-.063-1.392-.189a4.582 4.582 0 0 1-.935-.414 4.7 4.7 0 0 1-.592-.415c-.15-.124-.277-.187-.384-.187a.432.432 0 0 0-.22.063.7.7 0 0 0-.213.209 2.44 2.44 0 0 0-.215.387 7.237 7.237 0 0 0-.238.59c-.127.35-.204.617-.23.802-.026.186-.006.329.057.427.06.099.182.213.359.342.175.127.41.251.7.369.29.117.639.217 1.044.3.406.084.863.125 1.371.125a8.57 8.57 0 0 0 2.222-.294 7.705 7.705 0 0 0 2.048-.883 7.158 7.158 0 0 0 1.703-1.46c.5-.583.891-1.261 1.173-2.035.215-.591.312-1.104.288-1.54a2.614 2.614 0 0 0-.303-1.136 2.725 2.725 0 0 0-.71-.832 7.183 7.183 0 0 0-.936-.619 30.26 30.26 0 0 0-.97-.516 4.835 4.835 0 0 1-.826-.524 1.507 1.507 0 0 1-.486-.636c-.09-.238-.077-.522.042-.848a2.33 2.33 0 0 1 .894-1.13c.215-.14.456-.25.728-.33.272-.08.571-.119.898-.119.416 0 .782.05 1.093.153.31.102.576.214.795.342.22.124.4.24.544.346.144.108.258.159.34.159a.38.38 0 0 0 .224-.068.744.744 0 0 0 .194-.216c.061-.099.124-.225.192-.376a9.22 9.22 0 0 0 .221-.556 9.49 9.49 0 0 0 .167-.494 2.29 2.29 0 0 0 .081-.33.846.846 0 0 0 .009-.21.542.542 0 0 0-.084-.195c-.047-.074-.168-.17-.362-.284a3.833 3.833 0 0 0-.697-.307 6.266 6.266 0 0 0-1.914-.294zm47.21.01a10.54 10.54 0 0 0-3.348.535 10.665 10.665 0 0 0-2.978 1.54 11.653 11.653 0 0 0-2.436 2.444 12.76 12.76 0 0 0-1.727 3.247c-.423 1.166-.634 2.211-.625 3.13.003.922.212 1.704.622 2.343.411.641 1.02 1.129 1.827 1.467.804.337 1.795.505 2.97.505a13.474 13.474 0 0 0 2.464-.226c.42-.077.828-.167 1.231-.274a14.3 14.3 0 0 0 1.027-.306c.282-.1.494-.234.637-.404.14-.17.253-.37.335-.597l2.131-5.854c.055-.153.085-.287.089-.405a.596.596 0 0 0-.054-.3.413.413 0 0 0-.182-.188.637.637 0 0 0-.302-.064h-4.968a.383.383 0 0 0-.204.064.826.826 0 0 0-.207.194c-.068.087-.14.2-.211.347a5.113 5.113 0 0 0-.223.532c-.15.411-.217.7-.204.87.015.172.09.257.226.257h2.786l-1.242 3.41a5.15 5.15 0 0 1-1.034.341 4.962 4.962 0 0 1-1.03.114c-.683 0-1.266-.11-1.75-.33a2.296 2.296 0 0 1-1.093-.979c-.245-.43-.363-.967-.354-1.606.01-.64.168-1.383.474-2.223a8.745 8.745 0 0 1 1.095-2.098 7.826 7.826 0 0 1 1.533-1.626 6.876 6.876 0 0 1 1.86-1.046 5.947 5.947 0 0 1 2.067-.369c.666 0 1.227.068 1.682.204.452.136.833.286 1.141.444a4.6 4.6 0 0 1 .712.443c.17.136.304.204.405.204a.38.38 0 0 0 .195-.056.755.755 0 0 0 .2-.199 2.64 2.64 0 0 0 .215-.382 5.56 5.56 0 0 0 .236-.568c.138-.379.22-.664.244-.858.027-.192.006-.342-.057-.449-.064-.107-.199-.231-.402-.375a3.614 3.614 0 0 0-.828-.403 7.47 7.47 0 0 0-1.253-.318 9.632 9.632 0 0 0-1.692-.133zm-92.937.18c-.387 0-.691.011-.914.032-.223.018-.396.07-.522.153a.635.635 0 0 0-.26.358c-.05.155-.088.37-.12.643l-1.33 12.833a1.25 1.25 0 0 0 .01.439c.03.109.109.192.24.25.13.056.323.095.578.113.255.02.602.028 1.04.028.419 0 .757-.009 1.017-.028a2.45 2.45 0 0 0 .647-.12 1.08 1.08 0 0 0 .417-.255c.107-.109.212-.252.314-.427l5.622-9.321h.022l-1.039 9.321a1.103 1.103 0 0 0 0 .439c.027.109.107.192.238.25.13.056.323.095.578.113.255.02.598.028 1.03.028.386 0 .709-.009.965-.028.257-.018.476-.057.655-.113a1.19 1.19 0 0 0 .449-.25c.12-.11.238-.255.348-.439l8.035-12.8c.17-.28.29-.503.362-.664.07-.165.078-.287.026-.37-.055-.084-.168-.135-.347-.153a7.396 7.396 0 0 0-.768-.031c-.357 0-.638.01-.842.03a1.817 1.817 0 0 0-.493.103.683.683 0 0 0-.289.204c-.07.088-.139.191-.205.312L69.902 49.33h-.022l1.297-11.188c.024-.15.027-.273.008-.364a.31.31 0 0 0-.18-.21c-.1-.049-.253-.081-.464-.096a12.527 12.527 0 0 0-.861-.024c-.342 0-.62.01-.83.03a2.066 2.066 0 0 0-.52.103.796.796 0 0 0-.327.208 2.173 2.173 0 0 0-.248.353L61.002 49.33h-.012l1.52-11.267c.03-.144.04-.255.03-.335-.008-.08-.057-.14-.15-.181-.09-.043-.237-.068-.441-.08a15.212 15.212 0 0 0-.842-.02zm35.477.002a6.74 6.74 0 0 0-.73.034 3.26 3.26 0 0 0-.492.091.805.805 0 0 0-.304.149.512.512 0 0 0-.15.204l-5.055 13.892a.262.262 0 0 0 0 .206c.026.06.088.109.189.146.102.039.243.07.428.092.184.022.421.034.709.034.295 0 .542-.012.741-.034.197-.022.36-.053.486-.092a.843.843 0 0 0 .301-.146.496.496 0 0 0 .146-.206l5.057-13.892a.257.257 0 0 0 .002-.204c-.028-.062-.092-.111-.192-.149a1.974 1.974 0 0 0-.42-.091 6.17 6.17 0 0 0-.716-.034zm-90.95 0c-.296 0-.542.012-.741.034a3.267 3.267 0 0 0-.493.092.736.736 0 0 0-.298.148.507.507 0 0 0-.144.204L.703 46.874c-.342.94-.507 1.76-.493 2.46.015.701.188 1.286.526 1.755.337.471.832.821 1.483 1.052.65.232 1.438.347 2.363.347a9.53 9.53 0 0 0 2.755-.386 7.957 7.957 0 0 0 2.318-1.125 7.956 7.956 0 0 0 1.83-1.808 9.538 9.538 0 0 0 1.28-2.421l3.21-8.822a.274.274 0 0 0 .005-.204c-.022-.061-.083-.11-.183-.148a1.982 1.982 0 0 0-.416-.092 5.843 5.843 0 0 0-.7-.034 6.88 6.88 0 0 0-.733.034 3.26 3.26 0 0 0-.494.092.745.745 0 0 0-.292.148.502.502 0 0 0-.142.204l-3.223 8.856a5.883 5.883 0 0 1-.713 1.382 4.727 4.727 0 0 1-.97 1.021 4.07 4.07 0 0 1-1.175.633 4.148 4.148 0 0 1-1.337.216c-.465 0-.857-.07-1.182-.21a1.555 1.555 0 0 1-.736-.632c-.167-.28-.245-.634-.233-1.064.012-.426.124-.933.337-1.518l3.162-8.684a.264.264 0 0 0 0-.204c-.028-.061-.09-.11-.191-.148a2.018 2.018 0 0 0-.421-.092 6.016 6.016 0 0 0-.704-.034zm110.296 0a6.86 6.86 0 0 0-.74.034 3.08 3.08 0 0 0-.494.09.806.806 0 0 0-.3.149.519.519 0 0 0-.142.205l-3.255 8.946c-.342.94-.507 1.762-.491 2.462.012.702.187 1.286.523 1.756.338.47.832.82 1.484 1.052.65.231 1.438.347 2.363.347a9.54 9.54 0 0 0 2.755-.386 7.976 7.976 0 0 0 2.319-1.126 8.022 8.022 0 0 0 1.829-1.808 9.62 9.62 0 0 0 1.28-2.42l3.21-8.823a.279.279 0 0 0 .006-.205c-.024-.06-.083-.11-.183-.148a1.897 1.897 0 0 0-.417-.09 5.869 5.869 0 0 0-.699-.034 6.93 6.93 0 0 0-.734.033 3.13 3.13 0 0 0-.493.09.782.782 0 0 0-.292.149.519.519 0 0 0-.143.205l-3.223 8.856a5.948 5.948 0 0 1-.712 1.382 4.767 4.767 0 0 1-.97 1.022c-.36.277-.75.486-1.175.63a4.128 4.128 0 0 1-1.34.218c-.462 0-.855-.071-1.18-.21a1.559 1.559 0 0 1-.737-.631c-.167-.28-.245-.636-.231-1.064.01-.427.124-.933.336-1.518l3.16-8.685a.261.261 0 0 0 0-.205c-.025-.06-.09-.11-.189-.148a1.928 1.928 0 0 0-.421-.09 6.03 6.03 0 0 0-.704-.034zm25.563.023c-.274 0-.5.01-.684.029-.18.018-.331.05-.455.096a.898.898 0 0 0-.284.159.502.502 0 0 0-.143.205l-2.514 6.901a138.41 138.41 0 0 0-.581 1.647c-.199.577-.384 1.13-.553 1.661h-.012a30.718 30.718 0 0 0-.09-.909c-.034-.304-.068-.612-.105-.927a29.238 29.238 0 0 0-.13-.943l-.144-.962-.907-5.377a4.204 4.204 0 0 0-.15-.744 1.169 1.169 0 0 0-.265-.47.99.99 0 0 0-.44-.248 2.717 2.717 0 0 0-.7-.073h-1.604c-.302 0-.591.09-.865.267-.273.179-.474.446-.603.803l-4.813 13.22a.354.354 0 0 0-.02.206c.019.06.068.111.15.152.085.042.209.075.375.099.167.022.381.033.646.033.272 0 .5-.011.685-.033a2.17 2.17 0 0 0 .45-.1.795.795 0 0 0 .273-.15.568.568 0 0 0 .134-.206l2.803-7.697a67.837 67.837 0 0 0 1.113-3.308h.022c.01.447.041.908.089 1.382.046.473.102.915.165 1.324l1.157 6.878c.053.379.11.688.174.926.066.238.154.428.265.568a.859.859 0 0 0 .428.29c.175.055.395.08.662.08h1.27c.145 0 .295-.02.451-.063a1.47 1.47 0 0 0 .437-.198 1.77 1.77 0 0 0 .368-.34c.11-.138.197-.293.26-.468l4.813-13.22a.338.338 0 0 0 .017-.206c-.015-.06-.063-.113-.141-.159a.971.971 0 0 0-.369-.096 5.865 5.865 0 0 0-.635-.03zm-106.141.045c-.252 0-.488.074-.714.221-.225.15-.396.39-.518.723l-4.668 12.823c-.12.335-.123.575-.005.723.117.147.3.222.549.222h7.389c.07 0 .14-.022.212-.065a.75.75 0 0 0 .213-.197c.073-.091.143-.21.218-.358.07-.148.147-.332.227-.551.08-.22.136-.405.174-.55.034-.149.049-.27.044-.361a.296.296 0 0 0-.07-.199.232.232 0 0 0-.165-.061h-5.296l1.509-4.15h4.445a.431.431 0 0 0 .21-.057.703.703 0 0 0 .208-.187c.07-.087.141-.202.21-.347a4.86 4.86 0 0 0 .229-.546c.078-.212.134-.392.168-.54.036-.146.05-.264.043-.352-.006-.087-.03-.153-.072-.194a.226.226 0 0 0-.165-.063h-4.443l1.305-3.591h5.253c.07 0 .138-.02.206-.063a.832.832 0 0 0 .209-.2c.07-.09.14-.21.214-.358.073-.146.148-.326.226-.54a5.31 5.31 0 0 0 .176-.563 1.46 1.46 0 0 0 .048-.364c-.005-.093-.025-.16-.066-.197a.22.22 0 0 0-.16-.058h-7.343zm12.336 0c-.25 0-.488.074-.712.221-.224.15-.398.39-.519.723l-4.861 13.359a.284.284 0 0 0-.007.204c.024.06.085.11.187.147.098.038.241.07.427.092.183.022.42.034.708.034.294 0 .543-.012.74-.034.199-.022.362-.054.488-.092a.806.806 0 0 0 .299-.147c.07-.06.12-.128.148-.204l2.04-5.606h.933c.316 0 .58.049.787.149.205.099.367.243.483.437.115.194.195.434.242.723.048.287.082.616.108.989l.122 3.284a.68.68 0 0 0 .027.233c.024.064.082.119.177.16.094.042.233.069.416.084.186.016.436.024.755.024.38 0 .682-.008.906-.024.226-.015.401-.04.529-.078a.594.594 0 0 0 .269-.143.636.636 0 0 0 .122-.21c.027-.075.046-.18.056-.313.01-.133.012-.343.003-.63l-.185-2.9a7.137 7.137 0 0 0-.102-.937 3.45 3.45 0 0 0-.214-.74 1.896 1.896 0 0 0-.824-.936 7.264 7.264 0 0 0 1.424-.57 6.076 6.076 0 0 0 1.2-.83 5.68 5.68 0 0 0 .947-1.085c.272-.405.498-.854.678-1.347.212-.585.313-1.101.304-1.553-.012-.45-.122-.84-.331-1.17-.21-.33-.514-.596-.915-.8-.397-.206-.877-.35-1.44-.434a13.173 13.173 0 0 0-1.606-.08h-3.81zm35.919 0c-.25 0-.488.074-.713.221-.224.15-.397.39-.518.723l-4.668 12.823c-.12.335-.124.575-.008.723.119.147.302.222.552.222h7.39a.405.405 0 0 0 .21-.065.708.708 0 0 0 .213-.197c.075-.091.146-.21.217-.358a5.57 5.57 0 0 0 .23-.551c.08-.22.137-.405.173-.55.032-.149.05-.27.043-.361-.004-.09-.028-.156-.07-.199a.232.232 0 0 0-.165-.061h-5.297l1.51-4.15h4.445c.07 0 .137-.018.209-.057a.7.7 0 0 0 .21-.187c.07-.087.14-.202.212-.347a5.54 5.54 0 0 0 .227-.546c.077-.212.133-.392.167-.54.035-.146.05-.264.044-.352-.005-.087-.03-.153-.071-.194a.23.23 0 0 0-.165-.063h-4.445l1.307-3.591h5.25c.069 0 .138-.02.208-.063a.828.828 0 0 0 .207-.2c.072-.09.145-.21.214-.358.075-.146.15-.326.228-.54.084-.227.14-.414.176-.563a1.38 1.38 0 0 0 .047-.364c-.004-.093-.026-.16-.065-.197a.223.223 0 0 0-.161-.058h-7.343zm-62.364.001c-.25 0-.488.073-.712.221-.224.148-.396.388-.519.722l-4.667 12.824c-.12.333-.124.573-.007.72.117.149.3.223.55.223H19.8c.59 0 1.14-.035 1.647-.108a9.188 9.188 0 0 0 1.48-.335c.48-.152.94-.345 1.378-.58a6.584 6.584 0 0 0 1.215-.84 6.414 6.414 0 0 0 1.006-1.127c.3-.425.544-.897.735-1.42.181-.5.27-.953.265-1.354a2.367 2.367 0 0 0-.238-1.05 1.919 1.919 0 0 0-.655-.734 2.729 2.729 0 0 0-1.008-.398 5.05 5.05 0 0 0 1.935-1.16 4.998 4.998 0 0 0 1.211-1.864c.233-.636.32-1.19.264-1.66a1.88 1.88 0 0 0-.56-1.165c-.315-.308-.76-.538-1.33-.689-.57-.151-1.305-.226-2.206-.226h-3.696zm1.233 2.239h1.51c.463 0 .817.042 1.063.126.247.083.432.202.558.358a.93.93 0 0 1 .195.585c.005.236-.044.5-.151.796a3.175 3.175 0 0 1-.401.756 2.835 2.835 0 0 1-1.404 1.045c-.296.102-.658.155-1.092.155h-1.669l1.39-3.821zm26.483.045H50.3c.342 0 .606.014.791.036.185.022.345.052.483.088.45.14.725.372.824.707.099.333.058.743-.117 1.227a3.177 3.177 0 0 1-.474.864 2.99 2.99 0 0 1-.72.666c-.28.185-.596.328-.953.432a4.223 4.223 0 0 1-1.17.153h-1.523L48.96 39.8zM20.29 45.76h1.774c.545 0 .97.049 1.276.147.304.099.536.238.69.42.151.182.236.408.252.677.017.268-.038.573-.162.915a2.91 2.91 0 0 1-.49.87 3.084 3.084 0 0 1-.723.635c-.27.172-.565.3-.88.388a4.095 4.095 0 0 1-1.097.129h-2.16l1.52-4.181z" fill="#383A41"/></g></svg>