<svg width="140" height="37" xmlns="http://www.w3.org/2000/svg"><g fill="none" fill-rule="evenodd"><path d="M46.482 13.358c0-2.02-.822-2.489-5.46-2.489h-2.17l-1.96-.003c-4.982 0-6.957.47-6.957 3.779v6.774c0 3.31 1.975 3.778 6.957 3.778l1.182-.002 2.947-.016c4.639 0 5.461-.47 5.461-2.489v-.224h3.546v.64c0 3.311-1.93 5.06-9.86 5.06l-1.795.014-1.78.005c-5.985 0-10.204-.906-10.204-6.841v-6.625c0-5.934 4.22-6.84 10.204-6.84h3.396l.18.003c7.93 0 9.86 1.748 9.86 5.059v.64h-3.547v-.223M87.641 28.16c-6.119 0-8.109-3.145-8.109-6.733V7.864h3.561V20.63c0 2.727.673 4.54 6.882 4.54h3.082c6.195 0 6.883-1.813 6.883-4.54V7.864h3.546v13.563c0 3.588-1.975 6.732-8.11 6.732h-7.735M.057 25.179H14.57c4.892 0 6.209-.211 6.209-2.905v-.153c0-1.731-.42-2.716-4.22-2.716H6.625c-4.593 0-6.374-1.527-6.374-5.325v-1.137c0-3.311 1.915-5.059 9.86-5.059h13.555v2.987H9.243c-4.638 0-5.446.47-5.446 2.488v.721c0 1.463.404 2.337 3.726 2.337h8.513c4.817 0 8.288.49 8.288 5.894v.076c0 5.612-5.161 5.78-9.036 5.78H.057v-2.988m52.889-10.681l-.03.085V.07h3.546v8.605c1.182-.523 2.678-.82 4.563-.82H68.7c6.12 0 8.11 3.141 8.11 6.728v13.584h-3.562V15.57c-.074-3.968-1.6-4.684-8.393-4.725-6.643.04-8.244.733-8.393 4.475v12.847h-3.546V15.74c0-.99.015-1.2.03-1.242m53.562-3.49V6.647c0-4.698 2.858-6.577 6.448-6.577h6.194v2.987h-5.924c-2.304 0-3.172 1.288-3.172 2.907v1.915h5.535v2.987h-5.535v17.3h-3.546V11.009" fill="#231F20" fill-rule="nonzero"/><path d="M136.341 18.77l-7.092.022h-4.952c-4.16 0-5.162.607-5.162 2.868v.608c0 2.014.614 2.906 5.012 2.906h4.264l7.93-.015V18.77zm-6.733 9.392l-7.705-.001c-4.982 0-6.314-2.246-6.314-5.97v-1.29c0-4.58 3.277-5.096 8.858-5.096h5.161l6.748-.01-.015-1.152c0-3.309-1.975-3.777-6.942-3.777H119.15V7.878h10.533c5.985 0 10.219.907 10.219 6.843v13.44l-10.294.001z" fill="#231F20"/><path fill="#F9AD0B" fill-rule="nonzero" d="M.102 36.937h139.86v-2.982H.102z"/></g></svg>