<svg width="178" height="39" xmlns="http://www.w3.org/2000/svg" xmlns:xlink="http://www.w3.org/1999/xlink"><defs><path d="M116.41 9.036h-4.11c-5.503 0-8.254 2.727-8.254 8.18V37.65h4.109v-8.853c1.143.46 2.501.708 4.11.708h4.144c5.503 0 8.254-2.727 8.254-8.18V17.18c-.035-5.418-2.787-8.145-8.254-8.145zm4.108 12.253c0 2.727-1.357 4.073-4.109 4.073h-4.11c-2.75 0-4.108-1.346-4.108-4.073v-4.108c0-2.727 1.358-4.072 4.109-4.072h4.11c2.75 0 4.108 1.345 4.108 4.072v4.108zM139.85 9.036h-4.11c-5.502 0-8.254 2.727-8.254 8.18v4.073c0 5.454 2.752 8.18 8.254 8.18h12.364V17.182c0-5.418-2.752-8.145-8.254-8.145zm4.109 16.326h-8.254c-2.752 0-4.11-1.346-4.11-4.073v-4.108c0-2.727 1.358-4.072 4.11-4.072h4.109c2.751 0 4.11 1.345 4.11 4.072v8.18h.035zm27.943-16.326V29.47c0 5.453-2.752 8.18-8.255 8.18h-10.29v-4.108h10.29c2.752 0 4.11-1.346 4.11-4.072v-.709c-1.144.46-2.502.709-4.11.709h-4.109c-5.503 0-8.254-2.727-8.254-8.18V9.035h4.11v12.253c0 2.727 1.357 4.073 4.108 4.073h4.11c2.751 0 4.109-1.346 4.109-4.073V9.036h4.18z" id="a"/><path d="M20.539 8.18l-9.278 8.146 9.242 12.253H15.37l-7.19-9.527-4.108 3.578v5.95H0V0h4.072v17.176l10.305-9.03h6.162v.035zm1.416 8.146v12.253h4.073V16.326c0-2.727 1.345-4.073 4.072-4.073h4.072V8.181H30.1c-5.418 0-8.145 2.726-8.145 8.145zm33.819 0v4.072H39.449c0 2.727 1.345 4.073 4.072 4.073H53.72v4.072h-10.2c-5.453 0-8.18-2.727-8.18-8.18v-4.037c0-5.454 2.727-8.18 8.18-8.18h4.072c5.454.035 8.18 2.761 8.18 8.18zm-4.073 0c0-2.727-1.345-4.073-4.072-4.073h-4.072c-2.727 0-4.073 1.346-4.073 4.073h12.217zM74.117 0h4.072v20.434c0 5.453-2.726 8.18-8.18 8.18h-4.072c-5.454 0-8.18-2.727-8.18-8.18v-4.108c0-5.454 2.726-8.18 8.18-8.18h4.072c1.594 0 2.94.247 4.073.707V0h.035zm0 16.326c0-2.727-1.346-4.073-4.072-4.073h-4.073c-2.727 0-4.072 1.346-4.072 4.073v4.072c0 2.727 1.345 4.073 4.072 4.073h4.073c2.726 0 4.072-1.346 4.072-4.073v-4.072zm22.77-8.145v12.253c0 2.726-1.346 4.072-4.073 4.072h-4.072c-2.727 0-4.072-1.346-4.072-4.072V8.18h-4.073v12.253c0 5.453 2.727 8.18 8.18 8.18h4.073c5.453 0 8.18-2.727 8.18-8.18V8.18h-4.143z" id="b"/><path d="M176.198 5.281c0-.454-.248-.619-.589-.619-.155 0-.278 0-.31.042v1.238h.341c.31 0 .558-.248.558-.66m.217 1.526c.093.454.155.784.186.949h-.34c-.032-.083-.094-.371-.156-.825-.062-.454-.217-.66-.496-.66h-.31v1.485h-.34V4.415c.155-.041.403-.083.62-.083.34 0 .557.083.743.29.124.164.186.37.186.66 0 .453-.217.742-.465.866.186.082.31.289.372.66m.899-2.063c-.155-.413-.403-.701-.713-.949-.31-.206-.62-.33-.93-.33-.31 0-.62.124-.93.33-.309.206-.526.536-.712.949a3.568 3.568 0 0 0-.248 1.279c0 .413.062.866.248 1.238.155.412.403.701.713.949.31.206.62.33.93.33.34 0 .65-.124.929-.33.31-.206.527-.537.713-.95.154-.412.247-.824.247-1.237 0-.454-.093-.866-.247-1.279m.31 2.764c-.187.496-.465.867-.837 1.114-.372.248-.744.413-1.116.413-.402 0-.774-.124-1.115-.413a2.657 2.657 0 0 1-.837-1.114c-.217-.453-.31-.99-.31-1.485 0-.536.093-1.031.31-1.527.217-.495.496-.866.837-1.114.372-.247.744-.371 1.115-.371.372 0 .744.124 1.116.371.372.248.65.62.836 1.114.217.496.31.99.31 1.527 0 .536-.093 1.032-.31 1.485" id="c"/></defs><g fill="none"><g transform="translate(0 .368)"><use fill="#FFF" xlink:href="#a"/><use fill="#009EDB" xlink:href="#a"/></g><g transform="translate(0 .368)"><use fill="#FFF" xlink:href="#b"/><use fill="#009EDB" xlink:href="#b"/></g><g transform="translate(0 .368)"><use fill="#FFF" xlink:href="#c"/><use fill="#009EDB" xlink:href="#c"/></g></g></svg>