<svg width="158" height="27" xmlns="http://www.w3.org/2000/svg"><g fill="none"><path d="M56.53 13.642l5.952 12.184h-7.69s-3.348-7.44-3.493-7.66c-.101.163-5.494 7.66-5.494 7.66h-6.544l9.47-12.552-5.426-10.926h7.706s2.552 5.602 2.916 6.533l4.892-6.533h6.52L56.53 13.642zm-15.718-6.15H30.435l-.627 3.675h8.724l-.89 5.096h-8.708l-.703 4.165h10.81l-.942 5.398H20.271l4.044-23.478h17.387l-.89 5.144zM11.725 25.826H4.722L0 2.348h7.384l2.68 15.148c.16-.44 6.629-15.148 6.629-15.148h5.909L11.725 25.826z" fill="#9C0"/><path d="M147.995 26.5h-7.08l1.63-9.487h-6.32l-1.639 9.486h-7.08l4.073-23.593h7.08l-1.494 8.674h6.32l1.495-8.674h7.08L147.995 26.5zM121.783 9.921c-.18-.705-.632-1.255-1.34-1.657a4.746 4.746 0 0 0-2.358-.607c-1.606 0-2.417.516-2.417 1.559 0 .328.12.615.342.861.23.238.862.542 1.913.903l3.869 1.338a9.672 9.672 0 0 1 2.827 1.526c.871.673 1.495 1.411 1.87 2.216.385.796.573 1.65.573 2.56 0 2.389-.965 4.358-2.896 5.91-1.938 1.55-4.518 2.33-7.746 2.33-2.759 0-5.168-.542-7.217-1.625-2.059-1.084-3.493-2.733-4.296-4.957l7.029-1.338c.615 1.675 2.11 2.512 4.5 2.512 1 0 1.726-.18 2.17-.526.453-.353.675-.755.675-1.206 0-.287-.085-.541-.256-.755a1.72 1.72 0 0 0-.556-.476c-.196-.099-1.127-.443-2.775-1.034-2.238-.796-3.81-1.436-4.707-1.896-.896-.468-1.648-1.165-2.254-2.084-.598-.92-.897-2.003-.897-3.25 0-2.15.811-3.972 2.451-5.466 1.64-1.493 4.143-2.24 7.508-2.24 2.57 0 4.774.525 6.61 1.576 1.837 1.05 3.05 2.478 3.639 4.283l-6.261 1.543zm-26.425.05l-3.211 6.827h4.185l-.974-6.827zm2.084 16.527l-.675-4.825h-6.525l-2.28 4.825h-6.039L93.205 2.906h7.653l3.784 23.593h-7.2zM78.173 12.031c-.017-1.452-.256-2.535-.691-3.25-.444-.713-1.187-1.074-2.238-1.074-1.802 0-3.04 1.296-3.698 3.89-.666 2.593-.99 4.636-.99 6.122 0 2.42.973 3.627 2.92 3.627.965 0 1.75-.312 2.34-.936.598-.615 1.11-1.633 1.538-3.036l6.533.812c-.76 2.577-2.067 4.694-3.91 6.344-1.855 1.65-4.195 2.47-7.014 2.47-3.057 0-5.491-1.001-7.293-3.02-1.802-2.01-2.708-4.587-2.708-7.747 0-3.644 1.11-6.869 3.34-9.676 2.229-2.806 5.287-4.21 9.181-4.21 2.827 0 5.125.846 6.884 2.528 1.751 1.682 2.648 3.907 2.682 6.672l-6.876.484zm77.988-10.249c0-.34-.25-.484-.61-.484-.17 0-.28.015-.34.03v.951h.347c.368 0 .603-.194.603-.497zm.235 1.176c.089.367.148.62.199.72h-.353c-.044-.078-.103-.302-.17-.627-.08-.368-.227-.497-.536-.512h-.324v1.14h-.345v-2.59c.176-.036.426-.057.662-.057.36 0 .603.072.772.216a.678.678 0 0 1 .206.498c0 .346-.221.577-.5.67v.008c.198.072.323.26.39.534zm.942-1.587a1.815 1.815 0 0 0-.735-.73 2.126 2.126 0 0 0-.979-.252c-.331 0-.655.087-.97.253a1.835 1.835 0 0 0-.744.729 1.95 1.95 0 0 0-.007 1.947c.176.31.419.556.735.729.316.173.648.26.986.26.346 0 .67-.087.985-.26.317-.173.56-.419.736-.729a1.946 1.946 0 0 0-.007-1.948zm.345 2.142a2.19 2.19 0 0 1-.875.873c-.375.201-.772.31-1.184.31-.412 0-.802-.109-1.184-.31a2.19 2.19 0 0 1-.876-.873 2.284 2.284 0 0 1-.316-1.162c0-.41.11-.8.316-1.183.213-.375.515-.663.89-.865a2.482 2.482 0 0 1 1.17-.303c.397 0 .787.101 1.17.303.382.202.676.49.89.866.213.382.316.771.316 1.183 0 .403-.103.793-.317 1.16z" fill="#4A4A4A"/></g></svg>