<svg width="230" height="52" xmlns="http://www.w3.org/2000/svg"><path d="M24.69 16.076c1.427 0 2.799.311 4.086.905l.112.056-.476 1.045-.112-.056a7.498 7.498 0 0 0-2.714-.763l-.084.989h-.14c-.224-.028-.448-.028-.644-.028-1.343 0-2.63.339-3.778 1.017l-.112.056-.476-.847a8.552 8.552 0 0 0-3.302 3.616l.923.424-.056.113a7.623 7.623 0 0 0 .28 7.035l.056.113-.84.48a8.724 8.724 0 0 0 2.94 2.967l.475-.847.112.056c.56.34 1.175.594 1.819.763l.112.028-.252.961c.924.226 1.875.31 2.827.226h.14l.112 1.13h-.14c-.28.029-.56.029-.84.029h-.336c-5.345-.085-9.571-4.493-9.487-9.89.084-5.396 4.478-9.662 9.795-9.578zM17.973 5.68l.196-.057.728 2.091-.168.057c-2.099.763-4.002 1.893-5.71 3.334-8.06 6.809-9.095 18.958-2.35 27.095 6.745 8.138 18.779 9.211 26.839 2.374l.14-.113 1.4 1.695-.14.113a21.218 21.218 0 0 1-6.41 3.73C21.472 50.038 9.27 44.302 5.268 33.17 1.264 22.038 6.946 9.72 17.972 5.68zm16.876 8.617l-.14-.084c-6.353-5.397-15.812-4.55-21.158 1.864-5.345 6.414-4.505 15.992 1.848 21.36l.14.114-1.316 1.582-.14-.113c-.084-.085-.168-.141-.252-.226-7.164-6.188-8.004-17.066-1.875-24.299 6.13-7.233 16.904-8.08 24.069-1.893l.14.113-1.316 1.582zm-17.603.424l.252-.17.951 1.357-.252.17-.755.593c-4.954 4.181-5.626 11.64-1.484 16.641 4.142 5.001 11.53 5.68 16.484 1.498l.224-.198 1.064 1.272-.224.197c-.308.255-.616.509-.952.735-6.045 4.266-14.357 2.769-18.583-3.334-4.226-6.103-2.77-14.494 3.275-18.76zm6.297 6.81a5.033 5.033 0 0 0-1.987 1.525c-1.624 2.12-1.232 5.199.895 6.838l.252.197-.896 1.159-.251-.198a6.22 6.22 0 0 1-1.987-2.6c-1.316-3.22.195-6.95 3.414-8.278a6.278 6.278 0 0 1 7.976 2.939l.14.282-1.287.678-.14-.282c-1.176-2.232-3.806-3.221-6.13-2.26zm22.081 20.088c-.196.254-.392.48-.532.707l-.168.17c-.195.253-.42.48-.643.734a4.675 4.675 0 0 1-.364.395l-.448.452a12.55 12.55 0 0 1-.616.594l-.251.226c-.28.254-.56.508-.868.763l-.084.084c-.364.283-.7.565-1.063.82l-.028.028c-.364.254-.756.537-1.148.791h-.028c-.392.254-.784.509-1.175.735l-.056.028c-.392.226-.784.424-1.176.622l-.112.056a13.68 13.68 0 0 1-1.12.537l-.195.085-1.092.423-.251.113c-.364.142-.728.255-1.092.368l-.28.085-1.26.339-.111.028c-7.864 1.921-16.176-.057-22.39-5.34C-1.7 36.306-3.072 20.06 5.996 9.182c.028-.056.084-.113.14-.17l.672-.762c.112-.141.252-.254.363-.396l.504-.508c.168-.17.364-.367.504-.48.14-.113.28-.255.42-.368l.616-.537c.083-.056.195-.14.28-.226l.755-.593.056-.056a25.504 25.504 0 0 1 4.114-2.515l.056-.028c.308-.17.644-.311.98-.452l.195-.085c.308-.113.644-.254.952-.368l.252-.084c.308-.113.616-.226.951-.34l.252-.084c.336-.085.672-.198 1.008-.283l.196-.056c.364-.085.755-.17 1.12-.254h.027A25.24 25.24 0 0 1 44.813 8.9a4.005 4.005 0 0 0-1.568 1.158c-1.091-1.243-2.295-2.401-3.61-3.39-.224-.17-.476-.34-.7-.509l-.224-.141A23.443 23.443 0 0 0 7.982 9.776c-8.76 9.747-8.004 24.807 1.68 33.622l.055.057.756.678.224.17c.196.197.42.367.643.536.168.113.364.283.504.367.14.085.28.198.42.283 9.767 6.696 22.95 5.03 30.813-3.87h2.547zM43.833 13.93c.84-1.497 2.463-2.402 4.31-2.402h3.106v3.165h-2.994c-1.455 0-1.903.932-1.903 3.956v3.249h4.058v3.108h-4.058v14.777h-3.247V24.976h-1.79v-3.08h1.79v-3.56c0-1.61.084-3.249.728-4.407zm8.956 7.968h3.246v17.885H52.79V21.897zm29.106 0v3.108h-2.827v14.777h-3.246V25.005H74.03v-3.108h1.79v-5.905h3.247v5.905h2.827zm-16.12-.424c4.337 0 6.548 2.571 6.492 7.629v10.68h-3.246v-10.68c0-2.826-.532-4.465-3.302-4.465-2.603 0-3.583 1.696-3.583 6.273v8.872H58.89v-10.68c0-4.578 2.099-7.262 5.96-7.6v-.029h.924zm48.948 13.675l.756-.848v4.323a9.053 9.053 0 0 1-5.178 1.526c-2.687 0-4.953-.96-6.66-2.825-3.387-3.617-3.443-9.268-.14-12.97 1.79-2.033 4.03-3.022 6.8-3.022a8.896 8.896 0 0 1 5.178 1.582v4.408l-.812-.905-.112-.113-.224-.226c-2.35-2.26-6.073-2.147-8.312.226a6.214 6.214 0 0 0-1.79 4.493c0 1.13.279 2.232.81 3.193a5.815 5.815 0 0 0 2.184 2.26 6.18 6.18 0 0 0 6.1 0 4.853 4.853 0 0 0 1.4-1.102zm-23.789 1.808c1.764 0 3.33-.847 4.422-2.43h3.695l-.364.735c-1.623 3.136-4.478 4.86-7.976 4.86-5.038 0-8.676-3.956-8.676-9.38 0-5.284 3.75-9.296 8.676-9.296a8.087 8.087 0 0 1 5.933 2.401c1.735 1.752 2.686 4.267 2.658 7.092v.848H85.337a5.395 5.395 0 0 0 5.597 5.17zm-.167-12.319a5.62 5.62 0 0 0-5.262 3.984H95.86c-.644-2.09-2.463-3.984-5.093-3.984zm40.412-2.966H133l7.64 16.387 6.856-16.387h1.792L137.253 50.35h-1.79l4.31-10.257-8.593-18.421zm78.923-.198c4.225 0 6.269 2.458 6.297 7.516v10.85h-1.736V28.96c0-2.91-.531-5.877-4.59-5.877-4.253 0-4.87 3.645-4.897 7.657v9.042h-1.735V28.904c0-2.882-.532-5.82-4.562-5.82-4.31 0-4.898 3.786-4.898 7.854v8.844h-1.735v-10.85c0-4.803 2.211-7.403 6.381-7.487h.28c2.687.028 4.506 1.017 5.457 3.051 1.008-1.921 2.855-2.967 5.458-3.023h.28zM130.06 34.555c0 3.192-2.323 5.424-5.402 5.65-.14.029-.308.029-.447.029-.224 0-.42 0-.588-.029h-.196a8.366 8.366 0 0 1-4.03-1.582v-2.317c1.4 1.47 3.05 2.26 4.814 2.26h.391l.112-.028a4.006 4.006 0 0 0 3.555-4.04c0-2.232-1.708-2.938-3.499-3.56-2.379-.876-5.345-1.95-5.345-5.17a3.955 3.955 0 0 1 1.427-3.137c.98-.876 2.24-1.328 3.806-1.328a7.38 7.38 0 0 1 4.002 1.187v2.063a6.372 6.372 0 0 0-4.03-1.526 4.076 4.076 0 0 0-2.406.706c-.616.396-1.008 1.13-1.008 1.893v.142c0 4.35 8.844 2.232 8.844 8.787zm31.345 0c0 3.192-2.295 5.424-5.402 5.65-.168.029-.335.029-.475.029-.224 0-.42 0-.588-.029h-.196a8.366 8.366 0 0 1-4.03-1.582v-2.317c1.4 1.47 3.05 2.26 4.814 2.26h.391l.112-.028a4.006 4.006 0 0 0 3.555-4.04c0-2.232-1.708-2.938-3.499-3.56-2.379-.876-5.345-1.95-5.345-5.17a3.955 3.955 0 0 1 1.427-3.137c.98-.876 2.24-1.328 3.806-1.328a7.38 7.38 0 0 1 4.002 1.187v2.063a6.372 6.372 0 0 0-4.03-1.526 4.076 4.076 0 0 0-2.406.706c-.644.396-1.008 1.13-1.008 1.893v.142c0 4.35 8.872 2.232 8.872 8.787zm68.595 0c0 3.192-2.323 5.424-5.401 5.622-.14.028-.308.028-.448.028-.224 0-.42 0-.588-.028h-.196a8.366 8.366 0 0 1-4.03-1.582v-2.317c1.4 1.47 3.05 2.26 4.814 2.26h.392l.112-.028a4.006 4.006 0 0 0 3.554-4.04c0-2.232-1.707-2.939-3.498-3.56-2.38-.876-5.346-1.95-5.346-5.17a3.955 3.955 0 0 1 1.427-3.137c.98-.876 2.24-1.328 3.807-1.328 1.427 0 2.826.424 4.002 1.187v2.062A6.508 6.508 0 0 0 224.543 23a4.076 4.076 0 0 0-2.407.706c-.616.396-1.008 1.13-1.008 1.893v.17c0 4.35 8.872 2.232 8.872 8.787zm-62.634 5.255h-1.735V24.072h-1.987v-1.638h1.987v-6.81h1.735v6.81h3.134v1.638h-3.134V39.81zm12.986-1.243c2.463 0 4.478-1.3 5.793-3.25h1.987c-1.511 3.052-4.646 4.973-8.032 4.888-5.318 0-8.704-4.35-8.704-9.493 0-5.057 3.47-9.409 8.704-9.409 5.43 0 8.648 4.408 8.62 9.607h-15.56c-.113 4.605 3.05 7.657 7.192 7.657zm-.196-15.597c-3.638 0-6.661 2.91-6.997 6.301h13.826c-.42-3.334-3.135-6.3-6.83-6.3z" fill="#1A5795"/></svg>