<?xml version="1.0" encoding="UTF-8"?>
<svg width="20px" height="20px" viewBox="0 0 20 20" version="1.1" xmlns="http://www.w3.org/2000/svg" xmlns:xlink="http://www.w3.org/1999/xlink">
    <!-- Generator: Sketch 51.2 (57519) - http://www.bohemiancoding.com/sketch -->
    <title>header-allegut</title>
    <desc>Created with Sketch.</desc>
    <defs></defs>
    <g id="Final" stroke="none" stroke-width="1" fill="none" fill-rule="evenodd">
        <g id="pays.de-0816" transform="translate(-375.000000, -29.000000)" fill="#FB5101">
            <g id="Group-33" transform="translate(375.000000, 26.000000)">
                <g id="Group-41">
                    <g id="Group-28" transform="translate(0.000000, 3.000000)">
                        <g id="header-allegut">
                            <path d="M0.833333333,5 L0.833366667,5 C0.611995833,5 0.400408333,4.91210833 0.244158333,4.75585833 C0.0879083333,4.59960833 1.66666667e-05,4.38800417 1.66666667e-05,4.16665 L1.66666667e-05,2.49998333 C1.66666667e-05,1.119775 1.11980833,-1.66666667e-05 2.50001667,-1.66666667e-05 L4.16668333,-1.66666667e-05 C4.62729583,-1.66666667e-05 5.00001667,0.372704167 5.00001667,0.833316667 C5.00001667,1.29392917 4.62730833,1.66665 4.16668333,1.66665 L2.50001667,1.66665 C2.03940417,1.66665 1.66668333,2.03935833 1.66668333,2.49998333 L1.66668333,4.16665 C1.66668333,4.38802083 1.57879167,4.59960833 1.42254167,4.75585833 C1.26629167,4.91210833 1.0546875,5 0.833333333,5 Z M2.5,20 C1.11979167,20 -1.84445053e-13,18.8802083 -1.84445053e-13,17.5 L-1.84445053e-13,15.8333333 C-1.84445053e-13,15.3727208 0.372720833,15 0.833333333,15 C1.29394583,15 1.66666667,15.3727083 1.66666667,15.8333333 L1.66666667,17.5 C1.66666667,17.9606125 2.039375,18.3333333 2.5,18.3333333 L4.16666667,18.3333333 C4.62727917,18.3333333 5,18.7060542 5,19.1666667 C5,19.6272792 4.62729167,20 4.16666667,20 L2.5,20 Z M20,17.5 L19.9999833,17.5000167 C19.9999833,18.880225 18.8801917,20.0000167 17.4999833,20.0000167 L15.8333167,20.0000167 C15.3727042,20.0000167 14.9999833,19.6272958 14.9999833,19.1666833 C14.9999833,18.7060708 15.3726917,18.33335 15.8333167,18.33335 L17.4999833,18.33335 C17.7213542,18.33335 17.9329417,18.2454583 18.0891917,18.0892083 C18.2454417,17.9329583 18.3333333,17.7213542 18.3333333,17.5 L18.3333333,15.8333333 C18.3333333,15.3727208 18.7060542,15 19.1666667,15 C19.6272792,15 20,15.3727083 20,15.8333333 L20,17.5 Z M20,2.5 L20.0000167,4.16668333 C20.0000167,4.62729583 19.6272958,5.00001667 19.1666833,5.00001667 C18.7060708,5.00001667 18.33335,4.62730833 18.33335,4.16668333 L18.33335,2.50001667 C18.33335,2.27864583 18.2454583,2.06705833 18.0892083,1.91080833 C17.9329583,1.75455833 17.7213542,1.66666667 17.5,1.66666667 L15.8333333,1.66666667 C15.3727208,1.66666667 15,1.29394583 15,0.833333333 C15,0.372720833 15.3727083,1.80004154e-13 15.8333333,1.80004154e-13 L17.5,1.80004154e-13 C18.8802083,1.80004154e-13 20,1.11979167 20,2.5 Z M6.07916667,13.9208333 L6.07917917,13.9208458 C5.7569125,13.5953458 5.7569125,13.0712417 6.07917917,12.7457208 L12.7458458,6.07905417 C13.0762208,5.79585 13.5693958,5.81538333 13.8770125,6.123 C14.1846292,6.43058333 14.2041625,6.9237625 13.9209583,7.25416667 L7.25429167,13.9208333 C6.92879167,14.2431 6.4046875,14.2431 6.07916667,13.9208333 Z M7.08333333,7.5 L7.08331667,7.49998333 C6.39323333,7.49998333 5.83331667,6.94006667 5.83331667,6.24998333 C5.83331667,5.74381667 6.13769167,5.28808333 6.60481667,5.0944 C7.07194167,4.90233333 7.6090375,5.00816667 7.96710833,5.36620833 C8.32517917,5.72425 8.430975,6.261375 8.23891667,6.7285 C8.04525,7.1956375 7.5895,7.5 7.08333333,7.5 Z M14.1666667,13.75 L14.16665,13.7500167 C14.16665,14.4401 13.6067333,15.0000167 12.91665,15.0000167 C12.4104833,15.0000167 11.95475,14.6956417 11.7610667,14.2285167 C11.569,13.7613917 11.6748333,13.2242958 12.032875,12.866225 C12.3909167,12.5081542 12.9280417,12.4023583 13.3951667,12.5944167 C13.8623042,12.7880833 14.1666667,13.2438333 14.1666667,13.75 Z M7.5,0.833333333 L7.50001667,0.83335 C7.50001667,0.3727375 7.872725,1.6666667e-05 8.33335,1.6666667e-05 L11.6666833,1.6666667e-05 C12.1272958,1.6666667e-05 12.5000167,0.3727375 12.5000167,0.83335 C12.5000167,1.2939625 12.1273083,1.66668333 11.6666833,1.66668333 L8.33335,1.66668333 C8.11197917,1.66668333 7.90039167,1.57879167 7.74414167,1.42254167 C7.58789167,1.26629167 7.5,1.0546875 7.5,0.833333333 Z M8.33333333,18.3333333 L11.6666667,18.3333333 C12.1272792,18.3333333 12.5,18.7060542 12.5,19.1666667 C12.5,19.6272792 12.1272917,20 11.6666667,20 L8.33333333,20 C7.87272083,20 7.5,19.6272792 7.5,19.1666667 C7.5,18.7060542 7.87270833,18.3333333 8.33333333,18.3333333 Z M20,8.33333333 L20,11.6666667 C20,12.1272792 19.6272792,12.5 19.1666667,12.5 C18.7060542,12.5 18.3333333,12.1272917 18.3333333,11.6666667 L18.3333333,8.33333333 C18.3333333,7.87272083 18.7060542,7.5 19.1666667,7.5 C19.6272792,7.5 20,7.87270833 20,8.33333333 Z M0.833333333,12.5 L0.833366667,12.5 C0.611995833,12.5 0.400408333,12.4121083 0.244158333,12.2558583 C0.0879083333,12.0996083 1.66666667e-05,11.8880042 1.66666667e-05,11.66665 L1.66666667e-05,8.33331667 C1.66666667e-05,7.87270417 0.3727375,7.49998333 0.83335,7.49998333 C1.2939625,7.49998333 1.66668333,7.87269167 1.66668333,8.33331667 L1.66668333,11.66665 C1.66668333,11.8880208 1.57879167,12.0996083 1.42254167,12.2558583 C1.26629167,12.4121083 1.0546875,12.5 0.833333333,12.5 Z" id="Combined-Shape"></path>
                        </g>
                    </g>
                </g>
            </g>
        </g>
    </g>
</svg>