<?xml version="1.0" encoding="UTF-8"?>
<svg width="27px" height="26px" viewBox="0 0 27 26" version="1.1" xmlns="http://www.w3.org/2000/svg" xmlns:xlink="http://www.w3.org/1999/xlink">
    <!-- Generator: Sketch 51.2 (57519) - http://www.bohemiancoding.com/sketch -->
    <title>header-faq</title>
    <desc>Created with Sketch.</desc>
    <defs></defs>
    <g id="Final" stroke="none" stroke-width="1" fill="none" fill-rule="evenodd">
        <g id="pays.de-0816" transform="translate(-565.000000, -25.000000)" fill="#FB5101" stroke="#FB5101" stroke-width="0.4">
            <g id="Group-33" transform="translate(375.000000, 26.000000)">
                <g id="Group-41">
                    <g id="Group-44" transform="translate(191.000000, 0.000000)">
                        <g id="header-faq">
                            <path d="M22.8571483,7.4285732 L14.8571464,7.4285732 L14.8571464,2.28571483 C14.8571464,1.02565739 13.831489,0 12.5714316,0 L2.28571483,0 C1.02565739,0 0,1.02565739 0,2.28571483 L0,12.0000029 C0,13.2600603 1.02565739,14.2857177 2.28571483,14.2857177 L5.42857272,14.2857177 L6.97097309,16.3426325 C7.07923311,16.4866068 7.24887601,16.5714268 7.4285732,16.5714268 C7.60827038,16.5714268 7.77791614,16.4866039 7.88617331,16.3426325 L9.42857367,14.2857177 L10.2857167,14.2857177 L10.2857167,19.4285761 C10.2857167,20.6886335 11.3113741,21.7142909 12.5714316,21.7142909 L15.7142895,21.7142909 L17.2566898,23.7712057 C17.3649498,23.91518 17.5345927,24 17.7142899,24 C17.8939871,24 18.0636329,23.9151771 18.17189,23.7712057 L19.7142904,21.7142909 L22.8571483,21.7142909 C24.1172057,21.7142909 25.1428631,20.6886335 25.1428631,19.4285761 L25.1428631,9.71428803 C25.1428631,8.45423058 24.1172057,7.4285732 22.8571483,7.4285732 Z M10.2857167,9.71428803 L10.2857167,13.1428603 L9.14285932,13.1428603 C8.96317071,13.1428603 8.79351638,13.2276831 8.68525921,13.3716546 L7.4285732,15.0468836 L6.17188718,13.3716546 C6.06362716,13.2276803 5.89398426,13.1428603 5.71428707,13.1428603 L2.28571483,13.1428603 C1.65514325,13.1428603 1.14285741,12.6294601 1.14285741,12.0000029 L1.14285741,2.28571483 C1.14285741,1.65514325 1.65514325,1.14285741 2.28571483,1.14285741 L12.5714316,1.14285741 C13.2008889,1.14285741 13.714289,1.65514325 13.714289,2.28571483 L13.714289,7.4285732 L12.5714316,7.4285732 C11.3113741,7.4285732 10.2857167,8.45423058 10.2857167,9.71428803 Z M24.0000057,19.4285761 C24.0000057,20.0580333 23.4866056,20.5714335 22.8571483,20.5714335 L19.4285761,20.5714335 C19.2488874,20.5714335 19.0792331,20.6562563 18.9709759,20.8002278 L17.7142899,22.4754568 L16.4576039,20.8002278 C16.3493439,20.6562535 16.179701,20.5714335 16.0000038,20.5714335 L12.5714316,20.5714335 C11.94086,20.5714335 11.4285741,20.0580333 11.4285741,19.4285761 L11.4285741,9.71428803 C11.4285741,9.08371645 11.94086,8.57143061 12.5714316,8.57143061 L22.8571483,8.57143061 C23.4866056,8.57143061 24.0000057,9.08371645 24.0000057,9.71428803 L24.0000057,19.4285761 Z M17.1428612,16.5714325 L18.2857186,16.5714325 L18.2857186,10.8571454 L17.1428612,10.8571454 L17.1428612,16.5714325 Z M17.1428612,18.8571473 L18.2857186,18.8571473 L18.2857186,17.7142899 L17.1428612,17.7142899 L17.1428612,18.8571473 Z M6.85714449,12.0000029 L8.0000019,12.0000029 L8.0000019,10.8571454 L6.85714449,10.8571454 L6.85714449,12.0000029 Z M7.4285732,2.85714354 C6.1350586,2.85714354 4.75000113,3.72434374 4.57365823,5.66294421 L5.7120585,5.76562423 C5.8649614,4.08482383 7.16854456,3.99999524 7.4285732,3.99999524 C7.83034472,3.99999524 9.14285932,4.10490669 9.14285932,5.4642813 C9.14285932,6.18079576 8.76005923,6.5301387 8.13617337,7.0390531 C7.56585894,7.50333893 6.85714449,8.08145335 6.85714449,9.14285361 L6.85714449,9.71428231 L8.0000019,9.71428231 L8.0000019,9.14285361 C8.0000019,8.64842492 8.31025912,8.37165342 8.85825925,7.92411046 C9.49443083,7.40625319 10.2857167,6.76005304 10.2857167,5.4642813 C10.2857167,3.90513807 9.13728789,2.85713782 7.4285732,2.85713782 L7.4285732,2.85714354 Z" id="Fill-1"></path>
                        </g>
                    </g>
                </g>
            </g>
        </g>
    </g>
</svg>