<?xml version="1.0" encoding="UTF-8"?>
<svg width="15px" height="20px" viewBox="0 0 15 20" version="1.1" xmlns="http://www.w3.org/2000/svg" xmlns:xlink="http://www.w3.org/1999/xlink">
    <!-- Generator: Sketch 51.2 (57519) - http://www.bohemiancoding.com/sketch -->
    <title>header-login</title>
    <desc>Created with Sketch.</desc>
    <defs></defs>
    <g id="Final" stroke="none" stroke-width="1" fill="none" fill-rule="evenodd">
        <g id="pays.de-0816" transform="translate(-693.000000, -28.000000)" fill="#FB5101">
            <g id="Group-33" transform="translate(375.000000, 26.000000)">
                <g id="Group-41">
                    <g id="Group-48" transform="translate(318.000000, 2.000000)">
                        <g id="header-login">
                            <path d="M7.5,0 C4.42959677,0 1.93548387,2.45452381 1.93548387,5.47619048 L1.93548387,8.0952381 L1.69354839,8.0952381 C0.76833871,8.0952381 0,8.85138095 0,9.76190476 L0,18.3333333 C0,19.2438571 0.76833871,20 1.69354839,20 L13.3064516,20 C14.2316613,20 15,19.2438571 15,18.3333333 L15,9.76190476 C15,8.85138095 14.2316613,8.0952381 13.3064516,8.0952381 L13.0645161,8.0952381 L13.0645161,5.47619048 C13.0645161,2.45452381 10.5704032,0 7.5,0 Z M7.5,1.42857143 C9.79083871,1.42857143 11.6129032,3.22171429 11.6129032,5.47619048 L11.6129032,8.0952381 L3.38709677,8.0952381 L3.38709677,5.47619048 C3.38709677,3.22171429 5.20916129,1.42857143 7.5,1.42857143 Z M1.69354839,9.52380952 L13.3064516,9.52380952 C13.4529363,9.52380952 13.5483871,9.61774524 13.5483871,9.76190476 L13.5483871,18.3333333 C13.5483871,18.4774929 13.4529363,18.5714286 13.3064516,18.5714286 L1.69354839,18.5714286 C1.54706371,18.5714286 1.4516129,18.4774929 1.4516129,18.3333333 L1.4516129,9.76190476 C1.4516129,9.61774524 1.54706371,9.52380952 1.69354839,9.52380952 Z" id="Fill-1"></path>
                        </g>
                    </g>
                </g>
            </g>
        </g>
    </g>
</svg>