<?xml version="1.0" encoding="UTF-8"?>
<svg width="23px" height="20px" viewBox="0 0 23 20" version="1.1" xmlns="http://www.w3.org/2000/svg" xmlns:xlink="http://www.w3.org/1999/xlink">
    <!-- Generator: Sketch 51.2 (57519) - http://www.bohemiancoding.com/sketch -->
    <title>header-warenkorb</title>
    <desc>Created with Sketch.</desc>
    <defs></defs>
    <g id="Final" stroke="none" stroke-width="1" fill="none" fill-rule="evenodd">
        <g id="pays.de-0816" transform="translate(-817.000000, -28.000000)" fill="#FB5101">
            <g id="Group-33" transform="translate(375.000000, 26.000000)">
                <g id="Group-41">
                    <g id="Group-49" transform="translate(442.000000, 2.000000)">
                        <g id="header-warenkorb">
                            <path d="M0.750011158,0 C0.335954998,0 0,0.33595 0,0.75 C0,1.16405 0.335954998,1.5 0.750011158,1.5 L3.74230568,1.5 C4.98352414,4.57425 6.20621733,7.65425 7.43761065,10.7345 L6.3047938,13.461 C6.21006489,13.68854 6.23643278,13.961975 6.37315482,14.16705 C6.50987435,14.3721275 6.75303547,14.501025 7.00011414,14.50005 L19.5003001,14.50005 C19.896781,14.50591 20.2610614,14.146525 20.2610614,13.75005 C20.2610614,13.353575 19.896806,12.9942 19.5003001,13.00005 L8.12513088,13.00005 L8.77359053,11.453175 L20.8127696,10.492225 C21.1281993,10.46781 21.4133536,10.221725 21.4846546,9.9141 L22.984677,3.4141 C23.0823334,2.9766 22.6985477,2.49905 22.250291,2.50005 L5.75779566,2.50005 L4.94528357,0.4688 C4.83395442,0.1934 4.54682764,5e-05 4.24997323,5e-05 L0.750011158,0 Z M6.35959461,4 L21.305067,4 L20.1409996,9.047 L8.74233006,9.95325 L6.35959461,4 Z M9.50014134,15 C8.12804592,15 7.00010414,16.127925 7.00010414,17.5 C7.00010414,18.872075 8.12804592,20 9.50014134,20 C10.8722367,20 12.0001785,18.872075 12.0001785,17.5 C12.0001785,16.127925 10.8722367,15 9.50014134,15 Z M17.0002529,15 C15.6281575,15 14.5002157,16.127925 14.5002157,17.5 C14.5002157,18.872075 15.6281575,20 17.0002529,20 C18.3723483,20 19.5002901,18.872075 19.5002901,17.5 C19.5002901,16.127925 18.3723483,15 17.0002529,15 Z M9.50014134,16.5 C10.0616747,16.5 10.5001562,16.938475 10.5001562,17.5 C10.5001562,18.061525 10.0616747,18.5 9.50014134,18.5 C8.93860798,18.5 8.50012646,18.061525 8.50012646,17.5 C8.50012646,16.938475 8.93860798,16.5 9.50014134,16.5 Z M17.0002529,16.5 C17.5617863,16.5 18.0002678,16.938475 18.0002678,17.5 C18.0002678,18.061525 17.5617863,18.5 17.0002529,18.5 C16.4387196,18.5 16.000238,18.061525 16.000238,17.5 C16.000238,16.938475 16.4387196,16.5 17.0002529,16.5 Z" id="Fill-1"></path>
                        </g>
                    </g>
                </g>
            </g>
        </g>
    </g>
</svg>