<?xml version="1.0" encoding="UTF-8"?>
<svg width="119px" height="49px" viewBox="0 0 119 49" version="1.1" xmlns="http://www.w3.org/2000/svg" xmlns:xlink="http://www.w3.org/1999/xlink">
    <!-- Generator: Sketch 51.2 (57519) - http://www.bohemiancoding.com/sketch -->
    <title>pays-logo</title>
    <desc>Created with Sketch.</desc>
    <defs></defs>
    <g id="Final" stroke="none" stroke-width="1" fill="none" fill-rule="evenodd">
        <g id="pays.de-0816" transform="translate(-120.000000, -15.000000)">
            <g id="pays-logo" transform="translate(120.000000, 15.000000)">
                <g id="Group-51" fill-rule="nonzero">
                    <path d="M31.4876788,6.16618048 L10.6039604,18.3488462 L10.6039604,42.7930386 L9.53015444e-13,36.6071429 L9.39692768e-13,12.202381 L20.9175146,0 L31.4876788,6.16618048 Z" id="Combined-Shape" fill="#24333A"></path>
                    <path d="M21.2079208,48.93999 L21.2079208,36.607629 L31.4876788,30.6108591 L31.4876788,6.16666667 L42.0916392,12.3525624 L42.0916392,36.7573243 L21.2079208,48.93999 Z" id="Combined-Shape" fill="#FB5101"></path>
                </g>
                <path d="M48.3222475,39.9214286 L48.3222475,19.375 C48.3222475,16.8607143 48.2444851,14.7 48.1667228,12.9321429 L53.2990396,12.9321429 L53.5712079,15.6035714 L53.6489703,15.6035714 C55.0486931,13.5607143 57.2260396,12.5 59.986604,12.5 C64.1468911,12.5 67.8794851,16.1535714 67.8794851,22.2821429 C67.8794851,29.275 63.4859109,32.575 59.2478614,32.575 C56.9538713,32.575 55.1653366,31.6321429 54.3099505,30.375 L54.2321881,30.375 L54.2321881,39.9214286 L48.3222475,39.9214286 Z M54.2321881,21.2607143 L54.2321881,23.8928571 C54.2321881,24.3642857 54.2710693,24.7964286 54.3488317,25.15 C54.7376436,26.7607143 56.0984851,27.9785714 57.8092574,27.9785714 C60.3754158,27.9785714 61.8917822,25.8178571 61.8917822,22.5571429 C61.8917822,19.4928571 60.5309406,17.175 57.8870198,17.175 C56.2151287,17.175 54.7376436,18.4321429 54.3488317,20.2 C54.2710693,20.5142857 54.2321881,20.9071429 54.2321881,21.2607143 Z M85.3630596,20.7892857 L85.3630596,27.4678571 C85.3630596,29.3142857 85.4408219,31.0821429 85.6352279,32.1428571 L80.3085051,32.1428571 L79.9585744,30.2178571 L79.8419308,30.2178571 C78.5977328,31.75 76.6536734,32.575 74.3985645,32.575 C70.5493269,32.575 68.2553368,29.7464286 68.2553368,26.6821429 C68.2553368,21.6928571 72.6877922,19.2964286 79.4142378,19.3357143 L79.4142378,19.0607143 C79.4142378,18.0392857 78.8699011,16.5857143 75.953812,16.5857143 C74.0097526,16.5857143 71.9490497,17.2535714 70.7048516,18.0392857 L69.6161784,14.1892857 C70.9381388,13.4428571 73.5431784,12.5 77.0036041,12.5 C83.3412378,12.5 85.3630596,16.2714286 85.3630596,20.7892857 Z M79.6086437,25.15 L79.6086437,23.0678571 C76.4981487,23.0285714 74.087515,23.775 74.087515,26.0928571 C74.087515,27.625 75.0984259,28.3714286 76.4203863,28.3714286 C77.8978714,28.3714286 79.1031883,27.3892857 79.4920002,26.1714286 C79.5697625,25.8571429 79.6086437,25.5035714 79.6086437,25.15 Z M84.8316832,12.9321429 L91.402604,12.9321429 L94.2409307,22.3607143 C94.5519802,23.5 94.9407921,24.9142857 95.1740792,25.9357143 L95.2907228,25.9357143 C95.5628911,24.9142857 95.8739406,23.4607143 96.1461089,22.3607143 L98.4789802,12.9321429 L104.816614,12.9321429 L100.384158,25.5821429 C97.6624752,33.2035714 95.8350594,36.2678571 93.6965941,38.1928571 C91.6358911,40 89.4585446,40.6285714 87.9810594,40.825 L86.7368614,35.7571429 C87.475604,35.6392857 88.4087525,35.2857143 89.3030198,34.7357143 C90.1972871,34.2642857 91.1693168,33.3214286 91.7525347,32.3392857 C91.9469406,32.0642857 92.0635842,31.75 92.0635842,31.475 C92.0635842,31.2785714 92.024703,30.9642857 91.7914158,30.4928571 L84.8316832,12.9321429 Z M103.80099,31.2 L104.850782,26.9178571 C105.939455,27.5857143 108.194564,28.3714286 109.944218,28.3714286 C111.732752,28.3714286 112.471495,27.7428571 112.471495,26.7607143 C112.471495,25.7785714 111.888277,25.3071429 109.67205,24.5607143 C105.74505,23.225 104.228683,21.0642857 104.267564,18.825 C104.267564,15.2107143 107.300297,12.5 112.004921,12.5 C114.221149,12.5 116.204089,13.0107143 117.370525,13.6 L116.320733,17.725 C115.465347,17.2535714 113.832337,16.625 112.199327,16.625 C110.760723,16.625 109.944218,17.2142857 109.944218,18.1964286 C109.944218,19.1 110.68296,19.5714286 113.015832,20.3964286 C116.631782,21.6535714 118.148149,23.5 118.18703,26.3285714 C118.18703,29.9035714 115.387584,32.575 109.944218,32.575 C107.455822,32.575 105.239594,31.9857143 103.80099,31.2 Z" id="pays" fill="#24333A"></path>
            </g>
        </g>
    </g>
</svg>