<?xml version="1.0" encoding="UTF-8"?>
<svg width="49px" height="41px" viewBox="0 0 49 41" version="1.1" xmlns="http://www.w3.org/2000/svg" xmlns:xlink="http://www.w3.org/1999/xlink">
    <!-- Generator: Sketch 51.2 (57519) - http://www.bohemiancoding.com/sketch -->
    <title>process-icon-gutschein-1</title>
    <desc>Created with Sketch.</desc>
    <defs></defs>
    <g id="Final" stroke="none" stroke-width="1" fill="none" fill-rule="evenodd">
        <g id="pays.de-0816" transform="translate(-396.000000, -3157.000000)">
            <g id="Group-46" transform="translate(397.000000, 2898.000000)">
                <g id="Group-32" transform="translate(0.000000, 118.000000)">
                    <g id="process-icon-gutschein-1" transform="translate(0.000000, 142.000000)">
                        <path d="M47.0333333,29.7916667 L40.8354167,23.59375 L34.6375,29.7916667 C34.0541667,30.375 34.0541667,31.25 34.6375,31.8333333 C35.2208333,32.4166667 36.0958333,32.4166667 36.6791667,31.8333333 L39.3770833,29.1354167 L39.3770833,38.5416667 C39.3770833,39.34375 40.0333333,40 40.8354167,40 C41.6375,40 42.29375,39.34375 42.29375,38.5416667 L42.29375,29.1354167 L44.9916667,31.8333333 C45.2833333,32.125 45.6479167,32.2708333 46.0125,32.2708333 C46.3770833,32.2708333 46.7416667,32.125 47.0333333,31.8333333 C47.6166667,31.25 47.6166667,30.375 47.0333333,29.7916667 Z" id="Combined-Shape-Copy-3" fill="#24333A" transform="translate(40.835417, 31.796875) scale(1, -1) translate(-40.835417, -31.796875) "></path>
                        <path d="M0.000303810607,8.16679707 L0.000303810608,9.91684224 C0.000303810608,10.5617206 0.522115671,11.0835149 1.1669765,11.0835149 L2.33364919,11.0835149 C3.64615597,11.0835149 4.66699457,12.1043535 4.66699457,13.4168603 C4.66699457,14.7293671 3.64615597,15.7502057 2.33364919,15.7502057 L1.1669765,15.7502057 C0.522098171,15.7502057 0.000303810608,16.2720176 0.000303810608,16.9168784 L0.000303810608,25.6669236 C0.000303810608,26.3118019 0.522115671,26.8335962 1.1669765,26.8335962 L40.833848,26.8335962 C41.4787263,26.8335962 42.0005206,26.3117844 42.0005206,25.6669236 L42.0005206,1.16679707 C42.0005206,0.521918738 41.4787088,0.000124377724 40.833848,0.000124377724 L7.83366726,0.000124377724 C7.52148898,-0.00443147913 7.22069743,0.116336644 6.99739628,0.335087774 C6.7763643,0.556119748 6.65104032,0.854618789 6.65104032,1.16680873 C6.65104032,1.47899868 6.7763643,1.77750355 6.99739628,1.99852969 C7.22070326,2.21728082 7.52148898,2.33804895 7.83366726,2.33349309 L10.500358,2.33349309 L10.500358,6.41684751 C10.4958022,6.72902578 10.6165703,7.02981734 10.8353214,7.25311849 C11.0563534,7.47415046 11.3548524,7.59947444 11.6670424,7.59947444 C11.9792323,7.59947444 12.2777372,7.47415046 12.4987633,7.25311849 C12.7175145,7.0298115 12.8382826,6.72902578 12.8337267,6.41684751 L12.8337267,2.33349309 L39.6671986,2.33349309 L39.6671986,24.5002742 L12.8337267,24.5002742 L12.8337267,20.4169198 C12.8405634,20.0819564 12.7038411,19.7583914 12.4554681,19.5305402 C12.2070952,19.3049524 11.8744126,19.1955768 11.5394551,19.2320353 C10.9379186,19.2981157 10.4867079,19.8130908 10.5004164,20.4169081 L10.5004164,24.5002625 L2.33370752,24.5002625 L2.33370752,18.0835627 C4.8994541,18.0835627 7.00039828,15.9826186 7.00039828,13.416872 C7.00039828,10.8511254 4.8994541,8.75018122 2.33370752,8.75018122 L2.33370752,8.16680873 C2.33826338,7.8500746 2.21522025,7.54701387 1.99190743,7.32371271 C1.76860044,7.10040573 1.46553971,6.97735676 1.14881141,6.98191262 C0.437806069,7.04800462 -0.0134045935,7.56297978 0.000303810607,8.16679707 Z M11.5393967,9.89864215 C10.9378603,9.96472249 10.4866496,10.4796976 10.500358,11.0835149 L10.500358,15.7502057 C10.4958022,16.062384 10.6165703,16.3631755 10.8353214,16.5864767 C11.0563534,16.8075086 11.3548524,16.9328326 11.6670424,16.9328326 C11.9792323,16.9328326 12.2777372,16.8075086 12.4987633,16.5864767 C12.7175145,16.3631697 12.8382826,16.062384 12.8337267,15.7502057 L12.8337267,11.0835149 C12.8405634,10.7485515 12.7038411,10.4249865 12.4554681,10.1971354 C12.2070952,9.97154752 11.8744126,9.86217196 11.5394551,9.89863048 L11.5393967,9.89864215 Z" id="Fill-1" stroke="#FB5101" stroke-width="0.7" fill="#FB5101" transform="translate(21.000260, 13.416798) scale(-1, -1) translate(-21.000260, -13.416798) "></path>
                    </g>
                </g>
            </g>
        </g>
    </g>
</svg>