<?xml version="1.0" encoding="UTF-8"?>
<svg width="64px" height="16px" viewBox="0 0 64 16" version="1.1" xmlns="http://www.w3.org/2000/svg" xmlns:xlink="http://www.w3.org/1999/xlink">
    <!-- Generator: Sketch 51.2 (57519) - http://www.bohemiancoding.com/sketch -->
    <title>process-icon-arrow</title>
    <desc>Created with Sketch.</desc>
    <defs></defs>
    <g id="Final" stroke="none" stroke-width="1" fill="none" fill-rule="evenodd">
        <g id="pays.de-0816" transform="translate(-688.000000, -3030.000000)" fill="#24333A">
            <g id="Group-46" transform="translate(397.000000, 2898.000000)">
                <g id="Group-32" transform="translate(0.000000, 118.000000)">
                    <g id="process-icon-arrow" transform="translate(291.000000, 14.000000)">
                        <path d="M0.00513998353,8.31406816 C0.00513998353,8.39144928 0.00513998353,8.39144928 0.072065205,8.46585888 C0.072065205,8.54324 0.072065205,8.54324 0.138990427,8.61764961 C0.138990427,8.69503072 0.205915648,8.69503072 0.205915648,8.76944033 C0.205915648,8.84682144 0.27284087,8.84682144 0.27284087,8.92123105 C0.27284087,8.99861216 0.339766091,8.99861216 0.339766091,9.07302177 L0.406691313,9.15040288 L0.540541756,9.227784 L0.607466977,9.30516511 L8.97575555,15.7815286 C9.17396123,15.9333193 9.43652213,16.0107004 9.70167938,16.0107004 C10.0980907,16.0107004 10.5588705,15.7815286 10.821405,15.3261564 C11.2178164,14.6416124 11.0839659,13.6505307 10.4249937,13.1921565 L5.6732107,9.53430647 L62.6892355,9.53430647 C63.4151593,9.53430647 64.00718,8.84976247 64.00718,8.01045625 C64.00718,7.17115002 63.415133,6.48660602 62.6892355,6.48660602 L5.6732107,6.48660602 L10.4172837,2.82875595 C11.0093307,2.37041228 11.2075232,1.38231731 10.8136951,0.694756093 C10.4172837,0.0102120961 9.56270213,-0.2189445 8.96804558,0.236412423 L0.599757002,6.71277587 L0.53283178,6.79015699 C0.465906559,6.79015699 0.465906559,6.8675381 0.401551329,6.8675381 L0.334626107,6.94491922 C0.334626107,7.02230033 0.267700886,7.02230033 0.267700886,7.09670994 C0.267700886,7.09670994 0.200775664,7.17409105 0.200775664,7.24850066 C0.200775664,7.32588177 0.133850443,7.32588177 0.133850443,7.40029138 C0.133850443,7.47767249 0.133850443,7.47767249 0.0669252215,7.5520821 C0.0669252215,7.62946321 0.0669252215,7.62946321 0,7.70387282 L0,7.85566354 L0,8.00745426 C0.00514657326,8.0878145 0.00514657326,8.0878145 0.00514657326,8.16221649 L0.00513998353,8.31406816 Z" id="Fill-1" transform="translate(32.003590, 8.005350) scale(-1, 1) translate(-32.003590, -8.005350) "></path>
                    </g>
                </g>
            </g>
        </g>
    </g>
</svg>