<?xml version="1.0" encoding="UTF-8"?>
<svg width="36px" height="36px" viewBox="0 0 36 36" version="1.1" xmlns="http://www.w3.org/2000/svg" xmlns:xlink="http://www.w3.org/1999/xlink">
    <!-- Generator: Sketch 51.2 (57519) - http://www.bohemiancoding.com/sketch -->
    <title>process-icon-wochen-1</title>
    <desc>Created with Sketch.</desc>
    <defs></defs>
    <g id="Final" stroke="none" stroke-width="1" fill="none" fill-rule="evenodd">
        <g id="pays.de-0816" transform="translate(-403.000000, -3290.000000)">
            <g id="Group-46" transform="translate(397.000000, 2898.000000)">
                <g id="Group-32" transform="translate(0.000000, 118.000000)">
                    <g id="process-icon-wochen-1" transform="translate(6.000000, 274.000000)">
                        <g id="Group-15">
                            <path d="M27.0891089,3.32590099 L27.0891089,1.84063366 C27.0891089,1.02054653 27.7532554,0.355009901 28.5747327,0.355009901 C29.3962099,0.355009901 30.0603564,1.02054653 30.0603564,1.84063366 L30.0603564,3.32590099 L32.2795248,3.32590099 C34.3304198,3.32590099 36,4.99530297 36,7.04637624 L36,32.2809505 C36,34.3318455 34.3319881,36 32.2809505,36 L4.07512871,36 C2.02562341,36 0.356078724,34.3319881 0.356078724,32.2809505 L0.356078724,10.8083497 C0.355368598,10.7894955 0.355010344,10.7705517 0.355010344,10.7515248 C0.355010344,10.7324978 0.355368598,10.713554 0.356078724,10.6946998 L0.356078724,7.04637624 C0.356078724,4.99548119 2.02548083,3.32590099 4.07655446,3.32590099 L6.29607921,3.32590099 L6.29607921,1.84063366 C6.29607921,1.02054653 6.96161584,0.355009901 7.78170297,0.355009901 C8.6017901,0.355009901 9.26732673,1.02054653 9.26732673,1.84063366 L9.26732673,3.32590099 L27.0891089,3.32590099 Z M27.0891096,6.29750495 L9.26732606,6.29750495 C9.26655523,7.11693757 8.6013148,7.78170297 7.78170297,7.78170297 C6.96209114,7.78170297 6.29685071,7.11693757 6.29607988,6.29750495 L4.07655446,6.29750495 C3.66301925,6.29750495 3.32608063,6.63444713 3.32608063,7.0479802 L3.32608063,9.26590099 L33.0300749,9.26590099 L33.0300749,7.0479802 C33.0300749,6.63444356 32.6931327,6.29750495 32.2795996,6.29750495 L30.0603558,6.29750495 C30.0595865,7.11693757 29.3957338,7.78170297 28.5747327,7.78170297 C27.7537316,7.78170297 27.0898788,7.11693757 27.0891096,6.29750495 Z M33.0300749,12.2371485 L3.32608063,12.2371485 L3.32608063,32.2825545 C3.32608063,32.6960897 3.66163271,33.0316382 4.07516436,33.0316382 L32.2809897,33.0316382 C32.6945263,33.0316382 33.0300749,32.6960861 33.0300749,32.2825545 L33.0300749,12.2371485 Z M10.7529505,28.5747327 C10.7529505,30.5546257 7.78173861,30.5546257 7.78173861,28.5747327 C7.78173861,26.5934495 10.7529505,26.5934495 10.7529505,28.5747327 Z M10.7529505,22.6336634 C10.7529505,24.6135564 7.78173861,24.6135564 7.78173861,22.6336634 C7.78173861,20.6537703 10.7529505,20.6537703 10.7529505,22.6336634 Z M15.208396,28.5747327 C15.208396,30.5546257 12.2371842,30.5546257 12.2371842,28.5747327 C12.2371842,26.5934495 15.208396,26.5934495 15.208396,28.5747327 Z M15.208396,22.6336634 C15.208396,24.6135564 12.2371842,24.6135564 12.2371842,22.6336634 C12.2371842,20.6537703 15.208396,20.6537703 15.208396,22.6336634 Z M15.208396,16.6925941 C15.208396,18.6738772 12.2371842,18.6738772 12.2371842,16.6925941 C12.2371842,14.712701 15.208396,14.712701 15.208396,16.6925941 Z M24.1192871,22.6336634 C24.1192871,24.6135564 21.1480752,24.6135564 21.1480752,22.6336634 C21.1480752,20.6537703 24.1192871,20.6537703 24.1192871,22.6336634 Z M24.1192871,16.6925941 C24.1192871,18.6738772 21.1480752,18.6738772 21.1480752,16.6925941 C21.1480752,14.712701 24.1192871,14.712701 24.1192871,16.6925941 Z M28.5747327,22.6336634 C28.5747327,24.6135564 25.6035208,24.6135564 25.6035208,22.6336634 C25.6035208,20.6537703 28.5747327,20.6537703 28.5747327,22.6336634 Z M28.5747327,16.6925941 C28.5747327,18.6738772 25.6035208,18.6738772 25.6035208,16.6925941 C25.6035208,14.712701 28.5747327,14.712701 28.5747327,16.6925941 Z M19.6638416,28.5747327 C19.6638416,30.5546257 16.6926297,30.5546257 16.6926297,28.5747327 C16.6926297,26.5934495 19.6638416,26.5934495 19.6638416,28.5747327 Z M19.6638416,22.6336634 C19.6638416,24.6135564 16.6926297,24.6135564 16.6926297,22.6336634 C16.6926297,20.6537703 19.6638416,20.6537703 19.6638416,22.6336634 Z M19.6638416,16.6925941 C19.6638416,18.6738772 16.6926297,18.6738772 16.6926297,16.6925941 C16.6926297,14.712701 19.6638416,14.712701 19.6638416,16.6925941 Z" id="Combined-Shape" fill="#FB5101"></path>
                            <path d="M24.1192871,28.5747327 C24.1192871,30.5546257 21.1480752,30.5546257 21.1480752,28.5747327 C21.1480752,26.5934495 24.1192871,26.5934495 24.1192871,28.5747327" id="Fill-7" stroke="#24333A" fill="#24333A"></path>
                        </g>
                    </g>
                </g>
            </g>
        </g>
    </g>
</svg>