<?xml version="1.0" encoding="UTF-8"?>
<svg width="35px" height="42px" viewBox="0 0 35 42" version="1.1" xmlns="http://www.w3.org/2000/svg" xmlns:xlink="http://www.w3.org/1999/xlink">
    <!-- Generator: Sketch 51.2 (57519) - http://www.bohemiancoding.com/sketch -->
    <title>process-icon-registrieren-1</title>
    <desc>Created with Sketch.</desc>
    <defs></defs>
    <g id="Final" stroke="none" stroke-width="1" fill="none" fill-rule="evenodd">
        <g id="pays.de-0816" transform="translate(-404.000000, -3020.000000)">
            <g id="Group-46" transform="translate(397.000000, 2898.000000)">
                <g id="Group-32" transform="translate(0.000000, 118.000000)">
                    <g id="process-icon-registrieren-1" transform="translate(7.000000, 4.000000)">
                        <path d="M16.5520833,37.2604167 L0.21875,37.2604167 L0.21875,0.0729166667 L28.9479167,0.0729166667 L28.9479167,20.9270833 C28.9479167,21.7291667 28.2916667,22.3854167 27.4895833,22.3854167 C26.6875,22.3854167 26.03125,21.7291667 26.03125,20.9270833 L26.03125,2.98958333 L3.13541667,2.98958333 L3.13541667,34.2708333 L16.5520833,34.2708333 C17.3541667,34.2708333 18.0104167,34.9270833 18.0104167,35.7291667 C18.0104167,36.53125 17.3541667,37.2604167 16.5520833,37.2604167 Z M21.65625,15.53125 L7.51041667,15.53125 C6.70833333,15.53125 6.05208333,14.875 6.05208333,14.0729167 C6.05208333,13.2708333 6.70833333,12.6145833 7.51041667,12.6145833 L21.7291667,12.6145833 C22.53125,12.6145833 23.1875,13.2708333 23.1875,14.0729167 C23.1875,14.875 22.4583333,15.53125 21.65625,15.53125 Z M21.65625,9.40625 L7.51041667,9.40625 C6.70833333,9.40625 6.05208333,8.75 6.05208333,7.94791667 C6.05208333,7.14583333 6.70833333,6.48958333 7.51041667,6.48958333 L21.7291667,6.48958333 C22.53125,6.48958333 23.1875,7.14583333 23.1875,7.94791667 C23.1875,8.75 22.4583333,9.40625 21.65625,9.40625 Z M18.4479167,21.65625 L11.9583333,21.65625 C11.15625,21.65625 10.5,21 10.5,20.1979167 C10.5,19.3958333 11.15625,18.7395833 11.9583333,18.7395833 L18.4479167,18.7395833 C19.25,18.7395833 19.90625,19.3958333 19.90625,20.1979167 C19.90625,21 19.25,21.65625 18.4479167,21.65625 Z M8.96875,20.1979167 C8.96875,22.1415833 6.05208333,22.1415833 6.05208333,20.1979167 C6.05208333,18.25425 8.96875,18.25425 8.96875,20.1979167 Z M15.53125,27.78125 L11.9583333,27.78125 C11.15625,27.78125 10.5,27.125 10.5,26.3229167 C10.5,25.5208333 11.15625,24.8645833 11.9583333,24.8645833 L15.53125,24.8645833 C16.3333333,24.8645833 16.9895833,25.5208333 16.9895833,26.3229167 C16.9895833,27.125 16.3333333,27.78125 15.53125,27.78125 Z M8.96875,26.3229167 C8.96875,28.2665833 6.05208333,28.2665833 6.05208333,26.3229167 C6.05208333,24.37925 8.96875,24.37925 8.96875,26.3229167 Z" id="Combined-Shape" fill="#FB5101"></path>
                        <path d="M33.6875,31.7916667 L27.4895833,25.59375 L21.2916667,31.7916667 C20.7083333,32.375 20.7083333,33.25 21.2916667,33.8333333 C21.875,34.4166667 22.75,34.4166667 23.3333333,33.8333333 L26.03125,31.1354167 L26.03125,40.5416667 C26.03125,41.34375 26.6875,42 27.4895833,42 C28.2916667,42 28.9479167,41.34375 28.9479167,40.5416667 L28.9479167,31.1354167 L31.6458333,33.8333333 C31.9375,34.125 32.3020833,34.2708333 32.6666667,34.2708333 C33.03125,34.2708333 33.3958333,34.125 33.6875,33.8333333 C34.2708333,33.25 34.2708333,32.375 33.6875,31.7916667 Z" id="Combined-Shape-Copy-2" fill="#24333A"></path>
                    </g>
                </g>
            </g>
        </g>
    </g>
</svg>