<?xml version="1.0" encoding="UTF-8"?>
<svg width="36px" height="38px" viewBox="0 0 36 38" version="1.1" xmlns="http://www.w3.org/2000/svg" xmlns:xlink="http://www.w3.org/1999/xlink">
    <!-- Generator: Sketch 51.2 (57519) - http://www.bohemiancoding.com/sketch -->
    <title>process-icon-registrieren-2</title>
    <desc>Created with Sketch.</desc>
    <defs></defs>
    <g id="Final" stroke="none" stroke-width="1" fill="none" fill-rule="evenodd">
        <g id="pays.de-0816" transform="translate(-800.000000, -3020.000000)">
            <g id="Group-46" transform="translate(397.000000, 2898.000000)">
                <g id="Group-32" transform="translate(0.000000, 118.000000)">
                    <g id="process-icon-registrieren-2" transform="translate(403.000000, 4.000000)">
                        <path d="M16.3333333,37.1875 L0,37.1875 L0,0 L28.7291667,0 L28.7291667,20.8541667 C28.7291667,21.65625 28.0729167,22.3125 27.2708333,22.3125 C26.46875,22.3125 25.8125,21.65625 25.8125,20.8541667 L25.8125,2.91666667 L2.91666667,2.91666667 L2.91666667,34.1979167 L16.3333333,34.1979167 C17.1354167,34.1979167 17.7916667,34.8541667 17.7916667,35.65625 C17.7916667,36.4583333 17.1354167,37.1875 16.3333333,37.1875 Z M21.4375,15.4583333 L7.29166667,15.4583333 C6.48958333,15.4583333 5.83333333,14.8020833 5.83333333,14 C5.83333333,13.1979167 6.48958333,12.5416667 7.29166667,12.5416667 L21.5104167,12.5416667 C22.3125,12.5416667 22.96875,13.1979167 22.96875,14 C22.96875,14.8020833 22.2395833,15.4583333 21.4375,15.4583333 Z M21.4375,9.33333333 L7.29166667,9.33333333 C6.48958333,9.33333333 5.83333333,8.67708333 5.83333333,7.875 C5.83333333,7.07291667 6.48958333,6.41666667 7.29166667,6.41666667 L21.5104167,6.41666667 C22.3125,6.41666667 22.96875,7.07291667 22.96875,7.875 C22.96875,8.67708333 22.2395833,9.33333333 21.4375,9.33333333 Z M18.2291667,21.5833333 L11.7395833,21.5833333 C10.9375,21.5833333 10.28125,20.9270833 10.28125,20.125 C10.28125,19.3229167 10.9375,18.6666667 11.7395833,18.6666667 L18.2291667,18.6666667 C19.03125,18.6666667 19.6875,19.3229167 19.6875,20.125 C19.6875,20.9270833 19.03125,21.5833333 18.2291667,21.5833333 Z M8.75,20.125 C8.75,22.0686667 5.83333333,22.0686667 5.83333333,20.125 C5.83333333,18.1813333 8.75,18.1813333 8.75,20.125 Z M15.3125,27.7083333 L11.7395833,27.7083333 C10.9375,27.7083333 10.28125,27.0520833 10.28125,26.25 C10.28125,25.4479167 10.9375,24.7916667 11.7395833,24.7916667 L15.3125,24.7916667 C16.1145833,24.7916667 16.7708333,25.4479167 16.7708333,26.25 C16.7708333,27.0520833 16.1145833,27.7083333 15.3125,27.7083333 Z M8.75,26.25 C8.75,28.1936667 5.83333333,28.1936667 5.83333333,26.25 C5.83333333,24.3063333 8.75,24.3063333 8.75,26.25 Z" id="Combined-Shape-Copy" fill="#FB5101"></path>
                        <polygon id="Fill-1" fill="#24333A" points="32.6880884 23.3313691 32.1489262 23.3313691 24.7375641 30.7427313 21.2725116 27.2776788 20.7333495 27.2776788 18 29.9923549 18 30.5315171 24.4684835 37 25.0076457 37 35.402803 26.6048427 35.402803 26.0656805"></polygon>
                    </g>
                </g>
            </g>
        </g>
    </g>
</svg>