<?xml version="1.0" encoding="UTF-8"?>
<svg width="52px" height="52px" viewBox="0 0 52 52" version="1.1" xmlns="http://www.w3.org/2000/svg" xmlns:xlink="http://www.w3.org/1999/xlink">
    <!-- Generator: Sketch 51.2 (57519) - http://www.bohemiancoding.com/sketch -->
    <title>process-icon-wochen-2</title>
    <desc>Created with Sketch.</desc>
    <defs></defs>
    <g id="Final" stroke="none" stroke-width="1" fill="none" fill-rule="evenodd">
        <g id="pays.de-0816" transform="translate(-792.000000, -3282.000000)">
            <g id="Group-46" transform="translate(397.000000, 2898.000000)">
                <g id="Group-32" transform="translate(0.000000, 118.000000)">
                    <g id="process-icon-wochen-2" transform="translate(395.000000, 266.000000)">
                        <path d="M43.0891089,19.325901 L43.0891089,17.8406337 C43.0891089,17.2240485 43.4645399,16.6948281 44,16.4701468 L44,15.0463762 L44,16.4701468 C44.1767268,16.3959915 44.3708858,16.3550099 44.5747327,16.3550099 C45.3962099,16.3550099 46.0603564,17.0205465 46.0603564,17.8406337 L46.0603564,19.325901 L48.2795248,19.325901 C50.3304198,19.325901 52,20.995303 52,23.0463762 L52,48.2809505 C52,50.3318455 50.3319881,52 48.2809505,52 L20.0751287,52 C18.0256234,52 16.3560787,50.3319881 16.3560787,48.2809505 L16.3560787,26.8083497 C16.3553686,26.7894955 16.3550103,26.7705517 16.3550103,26.7515248 C16.3550103,26.7324978 16.3553686,26.713554 16.3560787,26.6946998 L16.3560787,23.0463762 C16.3560787,20.9954812 18.0254808,19.325901 20.0765545,19.325901 L22.2960792,19.325901 L22.2960792,17.8406337 C22.2960792,17.0205465 22.9616158,16.3550099 23.781703,16.3550099 C24.6017901,16.3550099 25.2673267,17.0205465 25.2673267,17.8406337 L25.2673267,19.325901 L43.0891089,19.325901 Z M43.0891096,22.297505 L25.2673261,22.297505 C25.2665552,23.1169376 24.6013148,23.781703 23.781703,23.781703 C22.9620911,23.781703 22.2968507,23.1169376 22.2960799,22.297505 L20.0765545,22.297505 C19.6630192,22.297505 19.3260806,22.6344471 19.3260806,23.0479802 L19.3260806,25.265901 L49.0300749,25.265901 L49.0300749,23.0479802 C49.0300749,22.6344436 48.6931327,22.297505 48.2795996,22.297505 L46.0603558,22.297505 C46.0595865,23.1169376 45.3957338,23.781703 44.5747327,23.781703 C43.7537316,23.781703 43.0898788,23.1169376 43.0891096,22.297505 Z M49.0300749,28.2371485 L19.3260806,28.2371485 L19.3260806,48.2825545 C19.3260806,48.6960897 19.6616327,49.0316382 20.0751644,49.0316382 L48.2809897,49.0316382 C48.6945263,49.0316382 49.0300749,48.6960861 49.0300749,48.2825545 L49.0300749,28.2371485 Z M14,44 L12.0751287,44 C10.0256234,44 8.35607872,42.3319881 8.35607872,40.2809505 L8.35607872,18.8083497 C8.3553686,18.7894955 8.35501034,18.7705517 8.35501034,18.7515248 C8.35501034,18.7324978 8.3553686,18.713554 8.35607872,18.6946998 L8.35607872,15.0463762 C8.35607872,12.9954812 10.0254808,11.325901 12.0765545,11.325901 L14.2960792,11.325901 L14.2960792,9.84063366 C14.2960792,9.02054653 14.9616158,8.3550099 15.781703,8.3550099 C16.6017901,8.3550099 17.2673267,9.02054653 17.2673267,9.84063366 L17.2673267,11.325901 L35.0891089,11.325901 L35.0891089,9.84063366 C35.0891089,9.22404846 35.4645399,8.69482808 36,8.47014682 L36,7.04637624 L36,8.47014682 C36.1767268,8.39599151 36.3708858,8.3550099 36.5747327,8.3550099 C37.3962099,8.3550099 38.0603564,9.02054653 38.0603564,9.84063366 L38.0603564,11.325901 L40.2795248,11.325901 C42.074895,11.325901 43.5780487,12.6052296 43.9247403,14.3 L40.3410294,14.3 C40.320766,14.2983475 40.3002786,14.297505 40.2795996,14.297505 L38.0603558,14.297505 C38.060355,14.2983368 38.0603535,14.2991685 38.0603514,14.3 L35.0891138,14.3 C35.0891118,14.2991685 35.0891104,14.2983368 35.0891096,14.297505 L17.2673261,14.297505 C17.2673253,14.2983368 17.2673238,14.2991685 17.2673217,14.3 L14.2960841,14.3 C14.2960821,14.2991685 14.2960807,14.2983368 14.2960799,14.297505 L12.0765545,14.297505 C11.6630192,14.297505 11.3260806,14.6344471 11.3260806,15.0479802 L11.3260806,17.265901 L14,17.265901 L14,20.2371485 L11.3260806,20.2371485 L11.3260806,40.2825545 C11.3260806,40.6960897 11.6616327,41.0316382 12.0751644,41.0316382 L14,41.0316382 L14,44 Z M6,36 L4.07512871,36 C2.02562341,36 0.356078724,34.3319881 0.356078724,32.2809505 L0.356078724,10.8083497 C0.355368598,10.7894955 0.355010344,10.7705517 0.355010344,10.7515248 C0.355010344,10.7324978 0.355368598,10.713554 0.356078724,10.6946998 L0.356078724,7.04637624 C0.356078724,4.99548119 2.02548083,3.32590099 4.07655446,3.32590099 L6.29607921,3.32590099 L6.29607921,1.84063366 C6.29607921,1.02054653 6.96161584,0.355009901 7.78170297,0.355009901 C8.6017901,0.355009901 9.26732673,1.02054653 9.26732673,1.84063366 L9.26732673,3.32590099 L27.0891089,3.32590099 L27.0891089,1.84063366 C27.0891089,1.02054653 27.7532554,0.355009901 28.5747327,0.355009901 C29.3962099,0.355009901 30.0603564,1.02054653 30.0603564,1.84063366 L30.0603564,3.32590099 L32.2795248,3.32590099 C34.074895,3.32590099 35.5780487,4.60522958 35.9247403,6.3 L32.3410294,6.3 C32.320766,6.29834748 32.3002786,6.29750495 32.2795996,6.29750495 L30.0603558,6.29750495 C30.060355,6.29833679 30.0603535,6.29916848 30.0603514,6.3 L27.0891138,6.3 C27.0891118,6.29916848 27.0891104,6.29833679 27.0891096,6.29750495 L9.26732606,6.29750495 C9.26732528,6.29833679 9.26732381,6.29916848 9.26732166,6.3 L6.29608413,6.3 C6.29608213,6.29916848 6.29608066,6.29833679 6.29607988,6.29750495 L4.07655446,6.29750495 C3.66301925,6.29750495 3.32608063,6.63444713 3.32608063,7.0479802 L3.32608063,9.26590099 L6,9.26590099 L6,12.2371485 L3.32608063,12.2371485 L3.32608063,32.2825545 C3.32608063,32.6960897 3.66163271,33.0316382 4.07516436,33.0316382 L6,33.0316382 L6,36 Z M26.7529505,44.5747327 C26.7529505,46.5546257 23.7817386,46.5546257 23.7817386,44.5747327 C23.7817386,42.5934495 26.7529505,42.5934495 26.7529505,44.5747327 Z M26.7529505,38.6336634 C26.7529505,40.6135564 23.7817386,40.6135564 23.7817386,38.6336634 C23.7817386,36.6537703 26.7529505,36.6537703 26.7529505,38.6336634 Z M31.208396,44.5747327 C31.208396,46.5546257 28.2371842,46.5546257 28.2371842,44.5747327 C28.2371842,42.5934495 31.208396,42.5934495 31.208396,44.5747327 Z M31.208396,38.6336634 C31.208396,40.6135564 28.2371842,40.6135564 28.2371842,38.6336634 C28.2371842,36.6537703 31.208396,36.6537703 31.208396,38.6336634 Z M31.208396,32.6925941 C31.208396,34.6738772 28.2371842,34.6738772 28.2371842,32.6925941 C28.2371842,30.712701 31.208396,30.712701 31.208396,32.6925941 Z M40.1192871,38.6336634 C40.1192871,40.6135564 37.1480752,40.6135564 37.1480752,38.6336634 C37.1480752,36.6537703 40.1192871,36.6537703 40.1192871,38.6336634 Z M40.1192871,32.6925941 C40.1192871,34.6738772 37.1480752,34.6738772 37.1480752,32.6925941 C37.1480752,30.712701 40.1192871,30.712701 40.1192871,32.6925941 Z M44.5747327,38.6336634 C44.5747327,40.6135564 41.6035208,40.6135564 41.6035208,38.6336634 C41.6035208,36.6537703 44.5747327,36.6537703 44.5747327,38.6336634 Z M44.5747327,32.6925941 C44.5747327,34.6738772 41.6035208,34.6738772 41.6035208,32.6925941 C41.6035208,30.712701 44.5747327,30.712701 44.5747327,32.6925941 Z M35.6638416,44.5747327 C35.6638416,46.5546257 32.6926297,46.5546257 32.6926297,44.5747327 C32.6926297,42.5934495 35.6638416,42.5934495 35.6638416,44.5747327 Z M35.6638416,38.6336634 C35.6638416,40.6135564 32.6926297,40.6135564 32.6926297,38.6336634 C32.6926297,36.6537703 35.6638416,36.6537703 35.6638416,38.6336634 Z M35.6638416,32.6925941 C35.6638416,34.6738772 32.6926297,34.6738772 32.6926297,32.6925941 C32.6926297,30.712701 35.6638416,30.712701 35.6638416,32.6925941 Z" id="Combined-Shape" fill="#FB5101"></path>
                        <path d="M40.1192871,44.5747327 C40.1192871,46.5546257 37.1480752,46.5546257 37.1480752,44.5747327 C37.1480752,42.5934495 40.1192871,42.5934495 40.1192871,44.5747327" id="Fill-7" stroke="#24333A" fill="#24333A"></path>
                    </g>
                </g>
            </g>
        </g>
    </g>
</svg>