<?xml version="1.0" encoding="UTF-8"?>
<svg width="40px" height="38px" viewBox="0 0 40 38" version="1.1" xmlns="http://www.w3.org/2000/svg" xmlns:xlink="http://www.w3.org/1999/xlink">
    <!-- Generator: Sketch 51.2 (57519) - http://www.bohemiancoding.com/sketch -->
    <title>vorteile-icon-Wochen</title>
    <desc>Created with Sketch.</desc>
    <defs></defs>
    <g id="Final" stroke="none" stroke-width="1" fill="none" fill-rule="evenodd">
        <g id="pays.de-0816" transform="translate(-632.000000, -2593.000000)" fill="#FB5101">
            <g id="Group-23" transform="translate(266.000000, 2343.000000)">
                <g id="Group-50" transform="translate(0.000000, 112.000000)">
                    <g id="Group-22" transform="translate(366.000000, 131.000000)">
                        <g id="vorteile-icon-Wochen" transform="translate(0.000000, 7.000000)">
                            <path d="M37.619791,10.8278954 L2.380609,10.8278954 L0.000399108894,10.8278954 L0.000399108894,2.66838518 L7.36302576,2.66838518 L7.36302576,0 L10.218921,0 L10.218921,2.66838518 L29.781479,2.66838518 L29.781479,0 L32.6373742,0 L32.6373742,2.66838518 L40,2.66838518 L40,10.8278954 L37.619791,10.8278954 Z M39.9997778,37.4299703 L0,37.4299703 L0,13.2096599 L39.9997778,13.2096599 L39.9997778,37.4299703 Z M28.0882884,16.3016428 L28.0882884,20.1106438 L33.5553691,20.1106438 L33.5553691,16.3016428 L28.0882884,16.3016428 Z M28.0882884,22.7287182 L28.0882884,26.539457 L33.5553691,26.5377192 L33.5553691,22.7287182 L28.0882884,22.7287182 Z M28.0882884,29.1575713 L28.0882884,32.9683102 L33.5553691,32.9665724 L33.5553691,29.1575713 L28.0882884,29.1575713 Z M17.2652374,16.3016428 L17.2652374,20.1106438 L22.7323182,20.1106438 L22.7323182,16.3016428 L17.2652374,16.3016428 Z M17.2652374,22.7287182 L17.2652374,26.539457 L22.7323182,26.5377192 L22.7323182,22.7287182 L17.2652374,22.7287182 Z M17.2652374,29.1575713 L17.2652374,32.9683102 L22.7323182,32.9665724 L22.7323182,29.1575713 L17.2652374,29.1575713 Z M6.4439642,16.3016428 L6.4439642,20.1106438 L11.9110449,20.1106438 L11.9110449,16.3016428 L6.4439642,16.3016428 Z M6.4439642,22.7287182 L6.4439642,26.539457 L11.9110449,26.5377192 L11.9110449,22.7287182 L6.4439642,22.7287182 Z M6.4439642,29.1575713 L6.4439642,32.9683102 L11.9110449,32.9665724 L11.9110449,29.1575713 L6.4439642,29.1575713 Z" id="Combined-Shape"></path>
                        </g>
                    </g>
                </g>
            </g>
        </g>
    </g>
</svg>