<?xml version="1.0" encoding="UTF-8"?>
<svg width="45px" height="36px" viewBox="0 0 45 36" version="1.1" xmlns="http://www.w3.org/2000/svg" xmlns:xlink="http://www.w3.org/1999/xlink">
    <!-- Generator: Sketch 51.2 (57519) - http://www.bohemiancoding.com/sketch -->
    <title>vorteile-icon-KeineCard</title>
    <desc>Created with Sketch.</desc>
    <defs></defs>
    <g id="Final" stroke="none" stroke-width="1" fill="none" fill-rule="evenodd">
        <g id="pays.de-0816" transform="translate(-266.000000, -2592.000000)">
            <g id="Group-23" transform="translate(266.000000, 2343.000000)">
                <g id="Group-50" transform="translate(0.000000, 112.000000)">
                    <g id="Group-18" transform="translate(0.000000, 131.000000)">
                        <g id="vorteile-icon-KeineCard" transform="translate(0.000000, 9.000000)">
                            <path d="M2.60465116,1 C1.16193488,1 0,2.24908 0,3.8 L0,5.48 L44.8,5.48 L44.8,3.8 C44.8,2.24908 43.6380651,1 42.1953488,1 L2.60465116,1 Z M0,7.72 L0,11.08 L44.8,11.08 L44.8,7.72 L0,7.72 Z M0,12.2 L0,26.375 C0,27.8289875 1.16193488,29 2.60465116,29 L42.1953488,29 C43.6380651,29 44.7918735,27.8289875 44.8,26.375 L44.8,12.2 L0,12.2 Z M28.7753846,16.68 C29.7526794,16.68 30.6633428,17.0066683 31.376128,17.5510894 C32.0828652,17.0200339 32.9753846,16.6952582 33.9446154,16.6952582 C36.2162338,16.6952582 38.08,18.4585149 38.08,20.6076291 C38.08,22.7567434 36.2162338,24.52 33.9446154,24.52 C32.9673206,24.52 32.0687532,24.1914195 31.36,23.6489106 C30.6492308,24.1895514 29.7486474,24.52 28.7753846,24.52 C26.5037662,24.52 24.64,22.7567434 24.64,20.6076291 C24.64,18.4585149 26.5037662,16.68 28.7753846,16.68 Z M29.12,18.92 C27.868736,18.92 26.88,19.9126072 26.88,21.1687702 C26.88,22.4249332 27.868736,23.4 29.12,23.4 C30.371264,23.4 31.36,22.4249332 31.36,21.1687702 C31.36,19.9126072 30.371264,18.92 29.12,18.92 Z M33.8017216,18.920056 C33.2941444,18.920056 32.836342,19.1322456 32.48,19.462556 C32.6770608,19.9853664 32.7825569,20.562844 32.7825569,21.160028 C32.7825569,21.76158 32.6790532,22.330316 32.48,22.8575 C32.8363013,23.1943736 33.2941393,23.4 33.8017216,23.4 C34.9403039,23.4 35.84,22.411264 35.84,21.16 C35.84,19.908736 34.9403039,18.92 33.8017216,18.92 L33.8017216,18.920056 Z" id="Fill-1" fill="#FB5101"></path>
                            <path d="M12.5,29.5 L31.5,0.5" id="Line-3" stroke="#FFFFFF" stroke-width="5" stroke-linecap="square" fill-rule="nonzero"></path>
                        </g>
                    </g>
                </g>
            </g>
        </g>
    </g>
</svg>