<?xml version="1.0" encoding="UTF-8"?>
<svg width="46px" height="46px" viewBox="0 0 46 46" version="1.1" xmlns="http://www.w3.org/2000/svg" xmlns:xlink="http://www.w3.org/1999/xlink">
    <!-- Generator: Sketch 51.2 (57519) - http://www.bohemiancoding.com/sketch -->
    <title>vorteile-icon-247</title>
    <desc>Created with Sketch.</desc>
    <defs></defs>
    <g id="Final" stroke="none" stroke-width="1" fill="none" fill-rule="evenodd">
        <g id="pays.de-0816" transform="translate(-970.000000, -2457.000000)" fill="#FB5101">
            <g id="Group-23" transform="translate(266.000000, 2343.000000)">
                <g id="Group-50" transform="translate(0.000000, 112.000000)">
                    <g id="Group" transform="translate(704.000000, 0.000000)">
                        <g id="vorteile-icon-247" transform="translate(0.000000, 2.000000)">
                            <path d="M26.6752598,4.90650078e-05 L26.6750145,0 C37.3294809,0 45.9983307,8.66880558 46.0002491,19.323272 C46.0002491,25.9279127 42.6805107,32.0075578 37.120464,35.5858689 L36.0107607,33.8609395 C40.982567,30.6599383 43.949479,25.2264794 43.949479,19.3234683 C43.949479,9.79995027 36.2006423,2.05111359 26.6771243,2.05111359 C20.8006083,2.05111359 15.380495,4.99844861 12.1759612,9.93389774 L10.4548589,8.81654032 C14.0370951,3.29662881 20.10153,4.90650078e-05 26.6752598,4.90650078e-05 Z M25.6498011,5.42016235 L27.7006203,5.42016235 L27.7006203,18.7329709 L37.1971526,24.2145136 L36.1717921,25.9912066 L25.6498011,19.9174493 L25.6498011,5.42016235 Z M30.8379351,32.6169452 L30.8381509,32.6166999 C31.8577709,32.620527 32.7700807,32.9923416 33.4715631,33.6957376 C34.1768628,34.4010471 34.5506008,35.3133618 34.5506008,36.3348953 L34.5486873,42.2727425 C34.5544279,43.2942765 34.1826132,44.2085048 33.4715631,44.9233819 C32.7662536,45.626773 31.8539389,45.996679 30.7825554,45.996679 L30.7787234,45.996679 C22.1329784,45.7724519 14.8193483,42.7284588 9.04439199,36.9520349 C3.26757855,31.173649 0.223992708,23.8619815 -0.000249097564,15.1642276 C-0.000249097564,14.1426941 0.371565532,13.2303745 1.07687502,12.5250699 C1.78218451,11.8197653 2.69449926,11.4479458 3.71603027,11.4479458 L9.66516247,11.4460322 C10.6886095,11.4460322 11.6028378,11.8197604 12.3024066,12.5212428 C13.0077063,13.2246388 13.3814443,14.138867 13.3814443,15.1642276 C13.3814443,17.0444968 13.6651382,18.853769 14.2286007,20.5442057 C14.6751414,21.8896663 14.3838424,23.2274728 13.4101964,24.308424 L13.3737852,24.348672 L13.3373692,24.3870016 L10.7077792,27.0146781 C11.7350532,28.7300399 12.9482837,30.2920734 14.3301506,31.6720268 C15.7062768,33.0500666 17.2683104,34.263248 18.9855857,35.2924847 L21.651582,32.6264884 L21.6899115,32.5919908 C22.4297137,31.923117 23.3113629,31.5685438 24.2370724,31.5685438 C24.6433797,31.5685438 25.0516398,31.6356255 25.457957,31.7717024 C27.1388751,32.3313722 28.9424066,32.6169452 30.8379351,32.6169452 Z" id="Combined-Shape"></path>
                        </g>
                    </g>
                </g>
            </g>
        </g>
    </g>
</svg>