<?xml version="1.0" encoding="UTF-8"?>
<svg width="40px" height="40px" viewBox="0 0 40 40" version="1.1" xmlns="http://www.w3.org/2000/svg" xmlns:xlink="http://www.w3.org/1999/xlink">
    <!-- Generator: Sketch 51.2 (57519) - http://www.bohemiancoding.com/sketch -->
    <title>vorteile-icon-Abwicklung</title>
    <desc>Created with Sketch.</desc>
    <defs></defs>
    <g id="Final" stroke="none" stroke-width="1" fill="none" fill-rule="evenodd">
        <g id="pays.de-0816" transform="translate(-266.000000, -2460.000000)" fill="#FB5101">
            <g id="Group-23" transform="translate(266.000000, 2343.000000)">
                <g id="Group-50" transform="translate(0.000000, 112.000000)">
                    <g id="Group-20">
                        <g id="vorteile-icon-Abwicklung" transform="translate(0.000000, 5.000000)">
                            <path d="M13.3333333,4.44444444 L13.3333333,0 L17.7777778,0 L17.7777778,4.44444444 L13.3333333,4.44444444 Z M22.2222222,13.3333333 L22.2222222,8.88888889 L26.6666667,8.88888889 L26.6666667,13.3333333 L22.2222222,13.3333333 Z M22.2222222,4.44444444 L22.2222222,0 L26.6666667,0 L26.6666667,4.44444444 L22.2222222,4.44444444 Z M26.6666667,22.2222222 L31.1111111,22.2222222 L31.1111111,17.7777778 L40,17.7777778 L40,22.2222222 L35.5555556,22.2222222 L35.5555556,26.6666667 L31.1111111,26.6666667 L31.1111111,35.5555556 L35.5555556,35.5555556 L35.5555556,26.6666667 L40,26.6666667 L40,40 L0,40 L0,4.44444444 L4.44444444,4.44444444 L4.44444444,0 L8.88888889,0 L8.88888889,4.44444444 L13.3333333,4.44444444 L13.3333333,13.3333333 L22.2222222,13.3333333 L22.2222222,17.7777778 L17.7777778,17.7777778 L17.7777778,22.2222222 L22.2222222,22.2222222 L22.2222222,17.7777778 L26.6666667,17.7777778 L26.6666667,22.2222222 Z M4.44444444,8.88888889 L4.44444444,13.3333333 L8.88888889,13.3333333 L8.88888889,8.88888889 L4.44444444,8.88888889 Z M26.6666667,31.1111111 L26.6666667,26.6666667 L22.2222222,26.6666667 L22.2222222,31.1111111 L26.6666667,31.1111111 Z M26.6666667,17.7777778 L26.6666667,13.3333333 L31.1111111,13.3333333 L31.1111111,17.7777778 L26.6666667,17.7777778 Z M31.1111111,4.44444444 L35.5555556,4.44444444 L35.5555556,8.88888889 L26.6666667,8.88888889 L26.6666667,4.44444444 L31.1111111,4.44444444 Z M35.5555556,13.3333333 L35.5555556,8.88888889 L40,8.88888889 L40,13.3333333 L35.5555556,13.3333333 Z M35.5555556,4.44444444 L35.5555556,0 L40,0 L40,4.44444444 L35.5555556,4.44444444 Z" id="Combined-Shape"></path>
                        </g>
                    </g>
                </g>
            </g>
        </g>
    </g>
</svg>