<?xml version="1.0" encoding="UTF-8"?>
<svg width="60px" height="33px" viewBox="0 0 60 33" version="1.1" xmlns="http://www.w3.org/2000/svg" xmlns:xlink="http://www.w3.org/1999/xlink">
    <!-- Generator: Sketch 51.2 (57519) - http://www.bohemiancoding.com/sketch -->
    <title>vorteile-icon-Bonitat</title>
    <desc>Created with Sketch.</desc>
    <defs></defs>
    <g id="Final" stroke="none" stroke-width="1" fill="none" fill-rule="evenodd">
        <g id="pays.de-0816" transform="translate(-622.000000, -2461.000000)" fill="#FB5101">
            <g id="Group-23" transform="translate(266.000000, 2343.000000)">
                <g id="Group-50" transform="translate(0.000000, 112.000000)">
                    <g id="Group-21" transform="translate(356.000000, 0.000000)">
                        <g id="vorteile-icon-Bonitat" transform="translate(0.000000, 6.000000)">
                            <path d="M6.77068435,20.1481469 L15.3977045,7.85619497 C15.5264623,7.67226394 15.736675,7.56452742 15.9600251,7.56452742 L25.4535654,7.56452742 C25.590207,7.56452742 25.7242117,7.60656996 25.839832,7.68277121 L38.1478677,16.0515897 C38.5656629,16.3353936 38.5498952,16.9686618 38.1110788,17.2182868 C35.4542598,18.7423656 32.1696953,18.8343211 29.355469,17.3339071 L26.9143786,16.0305886 C26.704166,15.9175985 26.4492873,15.9228521 26.2443283,16.0437261 L12.788027,23.8925625 C12.5620668,24.0265739 12.2782831,24.0186901 12.0601866,23.8715412 L6.69710655,20.2979259 L6.77068435,20.1481469 Z M15.8518715,2.14587049 C16.1645603,2.36395352 16.2381381,2.79228957 16.0200416,3.10497839 L4.12974058,20.0504736 C3.91165756,20.3631625 3.48069805,20.4367403 3.17063268,20.2186438 L0.293375576,18.1979787 C-0.0193132415,17.9798957 -0.0928910379,17.5489362 0.125205444,17.2388708 L12.0155072,0.293375576 C12.2335902,-0.0193132415 12.6645497,-0.0928910379 12.9746151,0.125205444 L15.8518715,2.14587049 Z M43.9779899,3.10511293 L43.9779293,3.10511293 C43.7572027,2.79241066 43.8334039,2.36410151 44.1434693,2.14600503 L47.0207257,0.12533998 C47.333428,-0.0927565018 47.7617371,-0.0165552513 47.9798336,0.293510113 L59.8755161,17.2369873 C60.0936126,17.5496896 60.0174113,17.9779987 59.707346,18.1960952 L56.8300896,20.2167603 C56.5173873,20.4348568 56.0890781,20.3586555 55.8709816,20.0485901 L43.9779899,3.10511293 Z M41.9653297,16.9529143 L41.9646369,16.9524569 C42.2694419,16.6450419 42.2221457,16.1378879 41.8647842,15.8987701 L32.3766253,9.44520765 C32.0297777,9.2113839 31.9719676,8.72788804 32.2504977,8.41782268 L32.8128182,7.79243831 C32.9441995,7.64528945 33.1307674,7.56383456 33.3252124,7.56383456 L44.0383226,7.56383456 C44.2616727,7.56383456 44.4718854,7.67156435 44.6006431,7.85550211 L52.8672142,19.6327928 C53.0931878,19.953352 53.0064792,20.3974288 52.6753926,20.6076415 L36.423431,30.9924835 C32.5212112,33.486117 27.5391374,33.5202891 23.6055035,31.0791988 L15.4990304,26.0498355 C15.0575838,25.7765927 15.0680978,25.1301601 15.514798,24.8700211 L18.7100305,23.0070324 L26.2911401,18.584696 C26.4960924,18.4638221 26.7509778,18.4585684 26.9611905,18.5715586 L27.8572009,19.0497941 C32.5081141,21.532927 38.2366615,20.6815825 41.9653297,16.9529143 Z" id="Combined-Shape"></path>
                        </g>
                    </g>
                </g>
            </g>
        </g>
    </g>
</svg>