<?xml version="1.0" standalone="no"?>
<!DOCTYPE svg PUBLIC "-//W3C//DTD SVG 20010904//EN"
 "http://www.w3.org/TR/2001/REC-SVG-20010904/DTD/svg10.dtd">
<svg version="1.0" xmlns="http://www.w3.org/2000/svg"
 width="784.000000pt" height="784.000000pt" viewBox="0 0 784.000000 784.000000"
 preserveAspectRatio="xMidYMid meet">
<metadata>
Created by potrace 1.11, written by Peter Selinger 2001-2013
</metadata>
<g transform="translate(0.000000,784.000000) scale(0.100000,-0.100000)"
fill="#000000" stroke="none">
<path d="M3770 7805 c-30 -19 -58 -35 -61 -35 -4 0 -36 -18 -70 -40 -35 -22
-80 -48 -99 -58 -19 -10 -74 -41 -121 -70 -47 -29 -91 -52 -97 -52 -6 0 -12
-4 -14 -8 -4 -9 -197 -122 -209 -122 -5 0 -9 -4 -9 -8 0 -4 -15 -15 -32 -23
-31 -15 -176 -98 -243 -140 -16 -11 -43 -26 -60 -34 -30 -15 -47 -25 -95 -56
-14 -9 -45 -27 -70 -41 -25 -14 -107 -62 -184 -107 -76 -44 -140 -81 -141 -81
-2 0 -40 -22 -85 -50 -45 -27 -83 -50 -85 -50 -8 0 -130 -75 -133 -82 -2 -5
-8 -8 -13 -8 -5 0 -43 -20 -83 -45 -41 -25 -77 -45 -79 -45 -3 0 -34 -18 -68
-40 -35 -22 -71 -43 -79 -47 -8 -4 -43 -24 -77 -45 -35 -21 -63 -34 -63 -30 0
4 -4 2 -8 -4 -4 -6 -45 -33 -92 -60 -47 -27 -94 -54 -105 -61 -11 -7 -27 -15
-35 -19 -8 -4 -39 -22 -68 -41 -29 -18 -54 -33 -57 -33 -3 0 -29 -16 -60 -35
-30 -20 -55 -32 -55 -28 0 4 -4 3 -8 -3 -4 -6 -113 -72 -242 -147 -129 -75
-239 -140 -245 -145 -5 -4 -18 -11 -27 -15 -17 -6 -18 -109 -18 -1959 l0
-1953 33 -22 c18 -13 36 -23 38 -23 3 0 58 -32 123 -70 64 -39 121 -70 126
-70 6 0 10 -4 10 -9 0 -5 8 -11 17 -14 10 -3 39 -19 65 -34 98 -59 141 -83
149 -83 5 0 9 -4 9 -8 0 -4 12 -13 27 -19 16 -7 46 -23 68 -36 76 -47 270
-161 305 -180 19 -10 47 -26 62 -35 15 -9 85 -50 155 -91 144 -83 320 -187
343 -201 57 -35 121 -70 130 -70 5 0 10 -4 10 -10 0 -5 6 -10 13 -10 11 0 13
357 12 1951 l0 1951 45 27 c24 14 52 31 62 36 95 56 138 81 163 95 17 10 120
70 230 135 110 65 225 131 255 148 30 17 57 34 58 39 2 4 9 8 15 8 7 0 40 18
75 40 34 22 65 40 68 40 3 0 30 16 60 35 30 19 57 35 60 35 3 0 28 15 57 33
29 18 73 44 100 57 26 14 47 28 47 32 0 5 5 8 10 8 9 0 226 124 335 191 17 10
37 22 45 26 8 4 75 43 150 87 74 43 151 88 170 98 19 10 56 32 82 47 25 16 66
40 90 54 23 13 101 58 171 100 71 43 130 77 132 77 1 0 44 25 94 55 51 30 96
55 101 55 6 0 10 4 10 9 0 5 11 12 25 15 14 4 25 11 25 16 0 6 4 10 9 10 6 0
61 30 123 66 62 37 133 78 158 92 25 14 57 32 72 41 194 114 238 139 242 133
2 -4 3 -883 3 -1954 l0 -1946 -65 -39 c-36 -21 -74 -42 -84 -48 -10 -5 -75
-44 -145 -85 -70 -41 -132 -77 -138 -79 -5 -2 -29 -17 -51 -32 -23 -16 -44
-25 -48 -22 -3 4 -6 2 -6 -3 0 -6 -22 -21 -50 -35 -27 -13 -50 -27 -50 -31 0
-5 -4 -8 -9 -8 -8 0 -66 -32 -156 -87 -11 -7 -29 -17 -40 -22 -11 -6 -42 -24
-70 -41 -27 -17 -58 -33 -67 -37 -10 -3 -18 -10 -18 -15 0 -5 -4 -6 -10 -3 -5
3 -10 2 -10 -2 0 -5 -24 -21 -52 -37 -29 -15 -93 -52 -143 -82 -49 -30 -97
-57 -105 -61 -8 -4 -42 -23 -76 -44 -33 -20 -80 -48 -105 -61 -24 -13 -67 -38
-95 -56 l-51 -32 0 -985 0 -985 56 32 c31 17 64 38 75 47 10 9 21 16 25 15 3
-1 15 4 26 11 42 25 191 113 225 132 69 40 195 113 210 123 8 6 27 16 43 23
15 6 27 15 27 19 0 4 4 8 9 8 5 0 55 27 110 60 56 33 106 60 111 60 6 0 10 4
10 8 0 4 12 13 28 20 15 6 41 21 57 32 17 10 44 26 60 35 17 8 44 24 60 35 17
11 37 23 45 27 8 4 59 33 113 65 54 32 103 58 108 58 5 0 9 5 9 10 0 6 4 10
10 10 8 0 101 52 160 90 8 5 33 19 55 31 22 12 43 27 47 33 4 6 8 7 8 3 0 -5
12 0 28 11 15 10 47 30 72 44 25 14 61 35 80 47 19 11 42 24 50 28 8 4 38 21
65 38 28 17 57 35 65 38 8 4 33 18 55 32 22 14 47 28 55 32 13 6 147 86 190
113 8 6 22 13 30 17 8 4 74 42 147 85 73 43 136 78 142 78 5 0 11 4 13 8 2 4
23 19 48 33 25 14 90 52 145 84 55 32 111 65 125 72 14 8 39 23 55 33 17 11
37 23 45 27 8 3 55 30 103 60 49 29 91 53 95 53 4 0 16 7 27 16 20 15 20 30
20 1965 l0 1950 -50 32 c-27 18 -57 35 -66 38 -13 6 -103 58 -169 99 -8 5 -55
32 -105 61 -49 28 -142 82 -205 119 -63 37 -166 97 -228 134 -62 36 -117 66
-122 66 -6 0 -10 5 -10 10 0 6 -6 10 -14 10 -7 0 -19 7 -26 15 -7 8 -16 12
-21 9 -5 -3 -9 0 -9 5 0 6 -4 11 -10 11 -7 0 -128 69 -210 120 -8 5 -63 37
-122 70 -60 34 -111 66 -114 71 -3 5 -10 7 -15 4 -5 -4 -9 -1 -9 4 0 6 -7 11
-15 11 -8 0 -15 3 -15 8 0 4 -20 16 -45 27 -25 11 -45 22 -45 26 0 4 -11 10
-25 13 -14 4 -25 11 -25 16 0 6 -7 10 -15 10 -8 0 -15 5 -15 10 0 6 -4 10 -10
10 -8 0 -123 65 -339 192 -25 16 -57 33 -71 40 -14 7 -27 15 -30 18 -3 3 -16
11 -29 18 -60 34 -95 54 -221 128 -74 44 -148 85 -163 93 -15 8 -27 18 -27 23
0 4 -9 8 -20 8 -11 0 -20 3 -20 8 0 4 -34 25 -75 47 -41 21 -75 43 -75 47 0 4
-5 8 -10 8 -9 0 -74 35 -130 70 -14 9 -64 38 -160 93 -19 11 -47 27 -62 36
-33 20 -231 135 -238 139 -3 1 -30 -13 -60 -33z"/>
</g>
</svg>
